SplineFontDB: 3.2
FontName: MuktiItalic
FullName: Mukti Italic
FamilyName: Mukti
Weight: Medium
Copyright: GNU GPL3+ FE (c) Mukta Bangla Font Project, Dr Anirban Mitra 2002-24. For detail licence agreement see www.gnu.org/licences/gpl.txt\nAs a special exception, if you create a document which uses this font, and embed this font or unaltered portions of this font into the document, this font does not by itself cause the resulting document to be covered by the GNU General Public License. This exception does not however invalidate any other reasons why the document might be covered by the GNU General Public License. If you modify this font, you may extend this exception to your version of the font, but you are not obligated to do so. If you do not wish to do so, delete this exception statement from your version
FontLog: "muktiregular3.0beta1+AAoACgAA-v3.0.3"
Version: 3.1.0 July 7, 2024
ItalicAngle: 15
UnderlinePosition: -166
UnderlineWidth: 73
Ascent: 800
Descent: 200
InvalidEm: 0
sfntRevision: 0x0001fd70
LayerCount: 2
Layer: 0 0 "Back" 1
Layer: 1 0 "Fore" 0
XUID: [1021 498 675293083 7945486]
StyleMap: 0x0001
FSType: 0
OS2Version: 3
OS2_WeightWidthSlopeOnly: 0
OS2_UseTypoMetrics: 0
CreationTime: 1138213189
ModificationTime: 1720334615
PfmFamily: 33
TTFWeight: 500
TTFWidth: 5
LineGap: 0
VLineGap: 0
Panose: 0 0 0 0 0 0 0 0 0 0
OS2TypoAscent: 1241
OS2TypoAOffset: 0
OS2TypoDescent: 438
OS2TypoDOffset: 0
OS2TypoLinegap: 0
OS2WinAscent: 1241
OS2WinAOffset: 0
OS2WinDescent: 438
OS2WinDOffset: 0
HheadAscent: 1059
HheadAOffset: 0
HheadDescent: -256
HheadDOffset: 0
OS2SubXSize: 650
OS2SubYSize: 700
OS2SubXOff: 0
OS2SubYOff: 140
OS2SupXSize: 650
OS2SupYSize: 700
OS2SupXOff: 0
OS2SupYOff: 480
OS2StrikeYSize: 50
OS2StrikeYPos: 259
OS2CapHeight: 1493
OS2XHeight: 1073
OS2Vendor: 'fbf '
OS2CodePages: 00000001.80000000
OS2UnicodeRanges: 80018003.00002002.00000000.00000000

StartChar: .notdef
Encoding: 154 -1 0
Width: 398
Flags: HW
LayerCount: 2
Fore
SplineSet
30 0 m 1
 184 666 l 1
 493 666 l 1
 340 0 l 1
 30 0 l 1
67 33 m 1
 317 33 l 1
 455 633 l 1
 206 633 l 1
 67 33 l 1
EndSplineSet
EndChar

StartChar: exclam
Encoding: 2 33 3
Width: 226
GlyphClass: 2
Flags: HW
LayerCount: 2
Fore
SplineSet
331 729 m 1
 253 391 l 1
 181 168 l 1
 145 168 l 1
 176 391 l 1
 254 729 l 1
 331 729 l 1
187 104 m 1
 163 0 l 1
 85 0 l 1
 109 104 l 1
 187 104 l 1
EndSplineSet
EndChar

StartChar: quotedbl
Encoding: 3 34 4
Width: 327
GlyphClass: 2
Flags: HW
LayerCount: 2
Fore
SplineSet
211 709 m 1xc0
 297 709 l 1
 272 598 l 1xc0
 216 464 l 1
 180 464 l 1xa0
 185 598 l 1
 211 709 l 1xc0
360 709 m 1x90
 446 709 l 1
 421 598 l 1x90
 365 464 l 1
 328 464 l 1x88
 334 598 l 1
 360 709 l 1x90
EndSplineSet
EndChar

StartChar: numbersign
Encoding: 4 35 5
Width: 515
GlyphClass: 2
Flags: HW
LayerCount: 2
Fore
SplineSet
611 697 m 1
 533 501 l 1
 619 501 l 1
 604 433 l 1
 505 433 l 1
 435 259 l 1
 533 259 l 1
 517 191 l 1
 409 191 l 1
 324 -20 l 1
 253 -20 l 1
 337 191 l 1
 221 191 l 1
 136 -20 l 1
 67 -20 l 1
 151 191 l 1
 57 191 l 1
 73 259 l 1
 178 259 l 1
 248 433 l 1
 146 433 l 1
 162 501 l 1
 274 501 l 1
 354 697 l 1
 425 697 l 1
 346 501 l 1
 462 501 l 1
 540 697 l 1
 611 697 l 1
434 433 m 1
 318 433 l 1
 249 259 l 1
 365 259 l 1
 434 433 l 1
EndSplineSet
EndChar

StartChar: dollar
Encoding: 5 36 6
Width: 514
GlyphClass: 2
Flags: HW
LayerCount: 2
Fore
SplineSet
405 770 m 1xec
 460 770 l 1
 447 716 l 1
 523 710 568 676 584 615 c 0
 592 588 591 556 582 519 c 1
 509 519 l 1xee
 520 570 510 608 480 630 c 0
 467 639 451 645 431 646 c 1
 374 397 l 1
 424 382 461 366 484 349 c 0
 529 317 543 266 528 195 c 1
 507 111 464 50 400 12 c 0
 365 -8 324 -19 277 -23 c 1
 253 -126 l 1
 198 -126 l 1
 222 -23 l 1
 128 -16 77 26 68 104 c 0xed
 65 129 67 157 74 187 c 0
 75 191 77 195 78 199 c 0
 79 202 79 205 80 208 c 1
 153 208 l 1xf4
 150 181 l 2
 144 141 145 115 152 103 c 0
 166 71 195 52 238 46 c 1
 301 318 l 1
 248 337 212 354 195 370 c 0
 158 404 148 453 163 516 c 0
 185 613 244 676 337 704 c 0
 354 709 372 713 392 716 c 1
 405 770 l 1xec
321 405 m 1
 376 645 l 1
 314 636 272 606 250 556 c 1
 241 526 l 1
 227 466 254 426 321 405 c 1
353 309 m 1
 293 46 l 1
 332 51 363 63 387 83 c 0
 419 110 440 143 449 183 c 0xe5
 458 224 450 254 426 274 c 0
 410 286 387 298 353 309 c 1
EndSplineSet
EndChar

StartChar: percent
Encoding: 6 37 7
Width: 824
GlyphClass: 2
Flags: HW
LayerCount: 2
Fore
SplineSet
343 685 m 0
 395 685 432 663 453 619 c 0
 469 591 471 556 462 515 c 0
 462 514 462 513 462 512 c 0
 450 459 420 416 373 382 c 0
 337 356 302 343 265 343 c 0
 215 343 178 364 155 406 c 0
 139 438 136 473 145 514 c 0
 157 568 187 612 234 647 c 0
 270 672 306 685 343 685 c 0
326 615 m 0
 293 615 264 600 238 569 c 1
 237 569 l 1
 224 552 214 534 209 514 c 0
 201 479 209 451 232 430 c 0
 245 419 261 413 281 413 c 0
 314 413 343 428 369 458 c 0
 383 475 393 493 398 513 c 0
 407 551 398 580 373 600 c 0
 360 610 345 615 326 615 c 0
729 709 m 1
 791 709 l 1
 255 -20 l 1
 194 -20 l 1
 729 709 l 1
714 322 m 0
 767 322 804 300 825 256 c 0
 839 225 842 190 833 150 c 0
 821 97 791 54 744 20 c 0
 709 -6 673 -19 636 -19 c 0
 586 -19 550 2 527 44 c 0
 511 75 507 111 516 152 c 0
 528 206 558 250 606 284 c 0
 641 309 678 322 714 322 c 0
697 252 m 0
 664 252 635 237 609 207 c 0
 595 190 585 172 580 152 c 0
 580 151 580 151 580 150 c 0
 574 126 576 105 585 89 c 0
 590 81 596 74 605 67 c 0
 605 66 605 66 606 66 c 1
 606 65 606 65 607 65 c 0
 620 56 634 51 652 51 c 0
 685 51 714 66 740 96 c 0
 754 112 764 130 769 150 c 0
 778 188 769 217 744 237 c 0
 735 244 725 249 712 251 c 0
 709 251 704 251 697 252 c 0
EndSplineSet
EndChar

StartChar: ampersand
Encoding: 7 38 8
Width: 595
GlyphClass: 2
Flags: HW
LayerCount: 2
Fore
SplineSet
340 431 m 1x37
 386 458 419 481 436 500 c 0
 450 516 459 534 464 554 c 0
 472 589 464 614 440 629 c 0
 430 636 418 639 403 639 c 0
 366 639 337 623 317 589 c 0
 311 579 306 566 303 553 c 0
 299 535 298 521 302 509 c 0
 306 494 319 467 340 431 c 1x37
396 137 m 1
 293 337 l 1
 241 306 204 279 183 255 c 0
 163 234 150 210 144 183 c 0
 134 140 142 105 170 80 c 0
 187 63 210 55 236 55 c 0xbb
 256 55 276 59 296 67 c 0
 324 79 357 102 396 137 c 1
226 552 m 2x37
 223 528 l 2
 224 535 224 543 226 552 c 2x37
226 552 m 1
 238 603 267 644 314 675 c 0
 349 698 385 709 422 709 c 0
 423 709 423 709 424 709 c 0
 461 709 489 700 509 680 c 0
 517 672 524 662 529 651 c 2
 533 642 l 2
 544 617 545 587 537 552 c 0
 527 507 502 468 462 437 c 0
 439 419 408 399 369 378 c 1
 455 215 l 1
 468 233 480 254 491 277 c 0
 500 296 506 312 510 328 c 0
 510 330 511 332 511 334 c 2
 585 334 l 1
 571 272 539 211 489 151 c 1
 568 0 l 1
 466 0 l 1x77
 427 78 l 1
 392 49 366 29 349 18 c 0
 308 -8 260 -22 209 -23 c 0
 137 -23 90 4 68 59 c 0
 55 92 54 131 64 176 c 0xbb
 78 235 108 282 155 319 c 0
 181 340 217 364 264 389 c 1
 234 448 221 502 226 552 c 1
EndSplineSet
EndChar

StartChar: quotesingle
Encoding: 8 39 9
Width: 174
GlyphClass: 2
Flags: HW
LayerCount: 2
Fore
SplineSet
207 709 m 1xc0
 295 709 l 1
 269 598 l 1xc0
 213 464 l 1
 176 464 l 1xa0
 182 598 l 1
 207 709 l 1xc0
EndSplineSet
EndChar

StartChar: parenleft
Encoding: 9 40 10
Width: 306
GlyphClass: 2
Flags: HW
LayerCount: 2
Fore
SplineSet
201 259 m 0
 163 95 170 -63 220 -212 c 1
 168 -212 l 1
 125 -122 105 -17 107 102 c 0
 108 156 114 209 126 259 c 0
 138 310 156 364 181 419 c 0
 233 537 301 640 385 729 c 1
 437 729 l 1
 352 624 288 511 242 389 c 0
 226 346 211 303 201 259 c 0
EndSplineSet
EndChar

StartChar: parenright
Encoding: 10 41 11
Width: 306
GlyphClass: 2
Flags: HW
LayerCount: 2
Fore
SplineSet
36 -212 m 1
 -14 -212 l 1
 70 -108 134 6 181 128 c 0
 197 171 211 215 221 258 c 0
 259 423 253 580 203 729 c 1
 253 729 l 1
 296 638 317 533 315 415 c 0
 315 361 308 309 296 258 c 0
 284 207 265 153 240 98 c 0
 188 -20 120 -123 36 -212 c 1
EndSplineSet
EndChar

StartChar: asterisk
Encoding: 11 42 12
Width: 359
GlyphClass: 2
Flags: HW
LayerCount: 2
Fore
SplineSet
316 729 m 1
 375 729 l 1
 343 617 l 1
 452 655 l 1
 455 596 l 1
 347 566 l 1
 393 477 l 1
 336 441 l 1
 300 534 l 1
 220 441 l 1
 183 477 l 1
 267 566 l 1
 174 596 l 1
 205 655 l 1
 295 617 l 1
 316 729 l 1
EndSplineSet
EndChar

StartChar: plus
Encoding: 12 43 13
Width: 540
GlyphClass: 2
Flags: HW
LayerCount: 2
Fore
SplineSet
557 267 m 1
 541 197 l 1
 349 197 l 1
 301 -10 l 1
 236 -10 l 1
 283 197 l 1
 91 197 l 1
 107 267 l 1
 300 267 l 1
 347 474 l 1
 413 474 l 1
 365 267 l 1
 557 267 l 1
EndSplineSet
EndChar

StartChar: comma
Encoding: 13 44 14
Width: 278
GlyphClass: 2
Flags: HW
LayerCount: 2
Fore
SplineSet
194 162 m 0
 231 151 245 127 236 90 c 0
 232 74 224 58 213 42 c 1
 189 1 152 -35 107 -66 c 1
 93 -67 85 -64 82 -57 c 0
 80 -53 80 -49 81 -43 c 0
 82 -38 84 -34 88 -28 c 1
 102 -19 120 -3 142 18 c 0
 171 47 188 69 192 86 c 0
 195 99 190 107 177 112 c 0
 172 114 166 114 159 114 c 0
 158 114 158 114 156 114 c 0
 141 113 133 112 132 112 c 0
 121 117 117 125 120 137 c 0
 122 147 127 154 138 160 c 1
 159 162 176 164 187 163 c 0
 190 163 192 162 194 162 c 0
EndSplineSet
EndChar

StartChar: period
Encoding: 15 46 15
Width: 254
GlyphClass: 2
Flags: HW
LayerCount: 2
Fore
SplineSet
200 104 m 1
 176 0 l 1
 79 0 l 1
 103 104 l 1
 200 104 l 1
EndSplineSet
EndChar

StartChar: slash
Encoding: 16 47 16
AltUni2: 002044.ffffffff.0
Width: 257
GlyphClass: 2
Flags: HW
LayerCount: 2
Fore
SplineSet
381 729 m 1
 433 729 l 1
 39 -20 l 1
 -12 -20 l 1
 381 729 l 1
EndSplineSet
EndChar

StartChar: zero
Encoding: 17 48 17
Width: 514
GlyphClass: 2
Flags: HW
LayerCount: 2
Fore
SplineSet
419 709 m 2
 483 709 526 684 551 634 c 0
 552 633 551 632 552 631 c 0
 580 569 579 470 548 337 c 0
 506 156 438 43 342 -3 c 0
 313 -16 283 -23 250 -23 c 0
 141 -23 90 49 96 193 c 0
 98 236 105 286 118 343 c 0
 172 577 268 699 406 709 c 1
 419 709 l 2
401 631 m 0
 313 631 247 535 202 342 c 0
 157 147 179 50 265 50 c 0
 338 50 395 114 438 242 c 0
 448 272 458 306 467 345 c 0
 511 535 489 631 401 631 c 0
EndSplineSet
EndChar

StartChar: one
Encoding: 18 49 18
Width: 423
GlyphClass: 2
Flags: HW
LayerCount: 2
Fore
SplineSet
328 505 m 1
 183 505 l 1
 198 568 l 1
 260 576 305 589 332 606 c 0
 352 620 370 646 390 683 c 2
 404 709 l 1
 458 709 l 1
 294 0 l 1
 212 0 l 1
 328 505 l 1
EndSplineSet
EndChar

StartChar: two
Encoding: 19 50 19
Width: 514
GlyphClass: 2
Flags: HW
LayerCount: 2
Fore
SplineSet
489 87 m 1
 469 0 l 1
 31 0 l 1
 55 85 87 150 128 195 c 0
 164 232 216 269 286 307 c 2
 384 359 l 2
 451 395 491 442 505 499 c 0
 516 547 506 584 475 610 c 0
 457 625 434 632 406 632 c 0
 360 632 320 613 286 575 c 0
 283 571 280 567 277 563 c 0
 262 542 248 508 235 463 c 1
 152 463 l 1
 169 530 193 581 223 617 c 0
 274 678 342 709 427 709 c 0
 488 709 533 690 563 653 c 0
 595 614 604 563 590 501 c 0
 570 413 506 342 400 287 c 2
 296 233 l 2
 259 212 229 194 208 176 c 0
 177 152 156 122 142 87 c 1
 489 87 l 1
EndSplineSet
EndChar

StartChar: three
Encoding: 20 51 20
Width: 514
GlyphClass: 2
Flags: HW
LayerCount: 2
Fore
SplineSet
280 325 m 1xf2
 297 400 l 1
 349 401 386 406 409 415 c 0
 447 430 473 462 485 511 c 0
 498 568 485 605 445 623 c 0
 432 629 416 632 396 632 c 0
 348 632 308 614 279 579 c 1
 277 578 l 1
 260 556 246 523 235 480 c 1
 153 480 l 1
 188 620 264 696 382 708 c 1
 413 709 l 1
 499 709 550 678 568 616 c 0
 577 587 577 553 568 514 c 0xec
 551 442 510 393 443 367 c 1
 496 346 523 310 523 259 c 0
 524 242 520 221 515 198 c 0
 496 116 453 55 386 15 c 0
 343 -10 294 -23 241 -23 c 0
 149 -23 93 11 75 80 c 0
 67 112 68 154 77 206 c 1
 159 206 l 1
 143 118 166 69 229 58 c 0
 239 56 250 55 262 55 c 0
 326 55 374 82 406 134 c 0
 417 152 426 173 432 197 c 0
 452 283 416 326 325 326 c 0
 310 325 295 325 280 325 c 1xf2
EndSplineSet
EndChar

StartChar: four
Encoding: 21 52 21
Width: 514
GlyphClass: 2
Flags: HW
LayerCount: 2
Fore
SplineSet
343 170 m 1
 65 170 l 1
 86 263 l 1
 489 709 l 1
 549 709 l 1
 443 249 l 1
 541 249 l 1
 522 170 l 1
 425 170 l 1
 385 0 l 1
 304 0 l 1
 343 170 l 1
361 249 m 1
 433 559 l 1
 155 249 l 1
 361 249 l 1
EndSplineSet
EndChar

StartChar: five
Encoding: 22 53 22
Width: 514
GlyphClass: 2
Flags: HW
LayerCount: 2
Fore
SplineSet
606 709 m 1
 586 622 l 1
 311 622 l 1
 239 424 l 1
 279 452 322 466 371 467 c 0
 445 467 494 438 521 380 c 0
 539 339 544 290 530 231 c 0
 510 145 466 78 401 30 c 0
 353 -5 302 -23 245 -23 c 0
 176 -23 127 -1 97 44 c 0
 76 75 67 118 72 174 c 1
 154 174 l 1
 155 95 190 55 261 55 c 0
 323 55 373 82 409 136 c 0
 424 159 435 187 442 219 c 0
 459 292 447 342 407 370 c 0
 389 383 366 389 338 389 c 0
 301 389 266 377 236 354 c 0
 226 346 214 335 202 323 c 1
 127 323 l 1
 264 709 l 1
 606 709 l 1
EndSplineSet
EndChar

StartChar: six
Encoding: 23 54 23
Width: 514
GlyphClass: 2
Flags: HW
LayerCount: 2
Fore
SplineSet
583 524 m 1xfc
 501 524 l 1xfc
 503 595 475 631 415 631 c 0
 346 631 291 583 247 487 c 0
 230 451 217 410 206 362 c 1
 255 415 311 441 376 441 c 0
 445 441 493 413 518 358 c 0
 536 319 539 271 526 216 c 0xfa
 508 137 469 75 407 29 c 0
 361 -6 310 -23 255 -23 c 0
 182 -23 133 6 110 65 c 0
 87 124 87 206 111 312 c 2
 114 323 l 2
 142 446 184 541 239 608 c 0
 296 675 363 709 439 709 c 0
 511 709 557 678 576 616 c 0
 585 590 586 559 583 524 c 1xfc
348 363 m 0
 295 363 252 341 217 297 c 0
 198 274 184 246 177 214 c 0
 164 157 172 113 203 82 c 0
 221 64 244 55 274 55 c 0
 320 55 362 76 397 118 c 0
 419 144 433 174 441 209 c 0xfa
 457 277 445 323 407 348 c 0
 392 358 371 363 348 363 c 0
EndSplineSet
EndChar

StartChar: seven
Encoding: 24 55 24
Width: 514
GlyphClass: 2
Flags: HW
LayerCount: 2
Fore
SplineSet
646 709 m 1
 629 635 l 1
 557 558 495 483 442 410 c 0
 347 280 271 144 215 0 c 1
 127 0 l 1
 221 216 360 424 542 622 c 1
 185 622 l 1
 206 709 l 1
 646 709 l 1
EndSplineSet
EndChar

StartChar: eight
Encoding: 25 56 25
Width: 514
GlyphClass: 2
Flags: HW
LayerCount: 2
Fore
SplineSet
449 373 m 1xec
 515 334 539 275 522 196 c 0
 505 121 464 64 401 23 c 0
 355 -8 304 -23 249 -23 c 0
 172 -23 119 4 90 59 c 0
 70 97 67 143 79 197 c 0xf2
 97 276 148 334 232 373 c 1
 219 384 208 394 200 403 c 0
 175 431 167 466 174 507 c 1
 177 520 l 2
 192 586 229 637 287 672 c 0
 327 697 371 709 418 709 c 0
 490 709 540 684 564 633 c 0
 580 602 582 564 572 520 c 0
 562 475 539 438 505 410 c 2
 491 399 l 1
 449 373 l 1xec
400 631 m 0
 350 631 312 611 284 572 c 0
 273 557 265 539 260 519 c 0
 249 472 260 440 294 421 c 0
 309 413 327 408 348 408 c 0
 397 408 437 427 464 465 c 0
 465 465 466 465 466 466 c 0
 477 481 483 498 488 518 c 0xec
 500 568 488 602 452 620 c 0
 438 627 420 631 400 631 c 0
331 334 m 0
 276 334 231 313 197 270 c 0
 180 249 168 224 161 195 c 0
 148 140 160 100 195 75 c 0
 213 62 236 55 265 55 c 0
 322 55 367 77 401 120 c 0
 418 141 430 166 437 195 c 0xf2
 450 250 438 290 402 315 c 0
 384 328 360 334 331 334 c 0
EndSplineSet
EndChar

StartChar: nine
Encoding: 26 57 26
Width: 514
GlyphClass: 2
Flags: HW
LayerCount: 2
Fore
SplineSet
86 162 m 1xec
 168 162 l 1xec
 166 91 193 55 253 55 c 0
 322 55 378 103 421 199 c 0
 438 235 451 276 462 324 c 1
 410 273 354 246 293 245 c 0
 223 245 176 273 151 328 c 0
 133 367 130 415 143 470 c 0xf4
 161 549 201 611 263 657 c 0
 309 692 359 709 414 709 c 0
 487 709 536 680 560 621 c 0
 582 562 582 480 558 374 c 2
 555 363 l 2
 527 240 484 145 429 78 c 0
 384 24 330 -9 267 -20 c 1
 229 -23 l 1
 158 -23 113 8 93 70 c 0
 85 97 83 127 86 162 c 1xec
395 632 m 0
 347 631 306 610 271 567 c 0
 250 542 235 512 227 477 c 0xf4
 211 409 223 363 262 338 c 0
 277 328 298 323 321 323 c 0
 372 323 417 345 452 388 c 0
 471 412 485 440 492 472 c 0
 505 530 497 574 466 605 c 0
 447 623 424 632 395 632 c 0
EndSplineSet
EndChar

StartChar: colon
Encoding: 27 58 27
Width: 224
GlyphClass: 2
Flags: HW
LayerCount: 2
Fore
SplineSet
175 224 m 0
 163 224 155 229 149 238 c 0
 144 247 141 258 144 271 c 0
 147 282 154 293 164 301 c 0
 174 310 186 314 197 314 c 0
 208 314 217 310 222 301 c 0
 228 293 229 282 226 271 c 0
 223 258 217 247 207 238 c 0
 197 229 186 224 175 224 c 0
122 -6 m 0
 110 -6 102 -1 96 8 c 0
 91 17 88 28 91 41 c 0
 94 52 101 62 111 71 c 0
 121 79 133 84 144 84 c 0
 155 84 163 79 169 71 c 0
 174 62 176 52 173 41 c 0
 170 28 163 17 153 8 c 0
 143 -1 133 -6 122 -6 c 0
EndSplineSet
EndChar

StartChar: semicolon
Encoding: 28 59 28
Width: 313
GlyphClass: 2
Flags: HW
LayerCount: 2
Fore
SplineSet
218 119 m 0
 256 110 271 86 262 47 c 0
 256 21 238 -8 210 -41 c 0
 185 -69 160 -92 133 -109 c 1
 119 -110 110 -107 107 -99 c 0
 105 -95 105 -90 106 -84 c 0
 107 -80 109 -76 112 -70 c 1
 125 -63 144 -47 168 -23 c 0
 197 6 213 29 217 46 c 0
 221 64 210 72 184 71 c 2
 180 71 l 1
 158 69 l 1
 146 75 141 83 144 95 c 0
 146 104 152 111 163 117 c 1
 183 119 200 121 212 120 c 0
 215 120 216 119 218 119 c 0
211 224 m 0
 199 224 190 229 184 238 c 0
 179 247 177 258 180 271 c 0
 183 282 190 293 200 301 c 0
 210 310 222 314 233 314 c 0
 244 314 253 310 258 301 c 0
 264 293 265 282 262 271 c 0
 259 258 252 247 242 238 c 0
 232 229 222 224 211 224 c 0
EndSplineSet
EndChar

StartChar: less
Encoding: 29 60 29
Width: 540
GlyphClass: 2
Flags: HW
LayerCount: 2
Fore
SplineSet
87 198 m 1
 103 267 l 1
 605 474 l 1
 587 395 l 1
 183 234 l 1
 512 70 l 1
 494 -9 l 1
 87 198 l 1
EndSplineSet
EndChar

StartChar: equal
Encoding: 30 61 30
Width: 540
GlyphClass: 2
Flags: HW
LayerCount: 2
Fore
SplineSet
577 353 m 1
 561 283 l 1
 111 283 l 1
 127 353 l 1
 577 353 l 1
537 181 m 1
 521 111 l 1
 71 111 l 1
 87 181 l 1
 537 181 l 1
EndSplineSet
EndChar

StartChar: greater
Encoding: 31 62 31
Width: 540
GlyphClass: 2
Flags: HW
LayerCount: 2
Fore
SplineSet
562 267 m 1
 546 198 l 1
 43 -9 l 1
 62 70 l 1
 465 231 l 1
 137 395 l 1
 155 474 l 1
 562 267 l 1
EndSplineSet
EndChar

StartChar: question
Encoding: 32 63 32
Width: 513
GlyphClass: 2
Flags: HW
LayerCount: 2
Fore
SplineSet
351 199 m 1
 268 199 l 1
 280 254 l 1
 293 297 312 330 338 354 c 0
 342 358 345 361 348 364 c 2
 415 417 l 2
 472 461 504 505 514 549 c 0
 525 596 514 629 480 649 c 1
 479 649 l 1
 463 658 445 663 422 663 c 0
 371 663 333 644 305 605 c 0
 289 582 276 550 266 507 c 1
 187 507 l 1
 220 648 292 725 407 739 c 1
 444 741 l 1
 522 741 574 713 596 657 c 0
 607 626 607 590 598 549 c 0
 591 518 577 489 559 464 c 0
 540 437 508 405 464 370 c 0
 417 332 387 304 377 287 c 2
 372 277 l 1
 364 253 357 227 351 199 c 1
329 104 m 1
 305 0 l 1
 222 0 l 1
 246 104 l 1
 329 104 l 1
EndSplineSet
EndChar

StartChar: at
Encoding: 33 64 33
Width: 941
GlyphClass: 2
Flags: HW
LayerCount: 2
Fore
SplineSet
733 501 m 1
 811 501 l 1
 662 221 l 2
 649 198 643 182 640 171 c 0
 636 153 640 140 656 131 c 1
 657 131 l 1
 662 128 668 127 675 127 c 0
 715 127 757 151 801 199 c 0
 843 246 871 299 884 357 c 0
 902 437 889 507 843 566 c 0
 796 628 729 660 643 664 c 1
 629 664 l 2
 538 664 448 630 362 562 c 1
 327 531 l 1
 246 456 195 370 173 273 c 0
 151 179 166 99 216 35 c 0
 267 -32 344 -65 444 -65 c 0
 493 -65 555 -54 631 -33 c 1
 640 -100 l 1
 563 -128 490 -142 420 -142 c 0
 308 -142 222 -106 157 -35 c 0
 86 44 64 141 91 258 c 1
 97 283 l 2
 133 412 206 522 318 612 c 0
 400 677 491 718 588 735 c 0
 610 738 634 740 658 741 c 0
 761 741 842 707 903 640 c 0
 971 566 993 475 969 369 c 1
 959 334 l 1
 936 265 895 202 837 146 c 0
 776 87 712 57 644 57 c 0
 584 57 555 83 558 134 c 1
 505 86 456 62 410 62 c 0
 360 62 325 85 306 131 c 0
 293 163 291 201 301 245 c 0
 318 318 357 382 418 438 c 0
 478 493 541 521 604 522 c 0
 655 522 687 493 698 435 c 1
 733 501 l 1
584 458 m 0
 543 458 501 434 459 387 c 0
 421 345 397 297 385 244 c 0
 378 213 379 188 387 168 c 0
 391 158 396 150 405 143 c 0
 416 132 432 126 450 126 c 0
 486 126 523 148 560 191 c 0
 581 216 601 248 619 287 c 0
 633 316 642 341 648 362 c 0
 654 386 654 406 646 422 c 0
 641 430 635 438 627 444 c 0
 615 453 602 458 584 458 c 0
EndSplineSet
EndChar

StartChar: bracketleft
Encoding: 34 91 34
Width: 255
GlyphClass: 2
Flags: HW
LayerCount: 2
Fore
SplineSet
400 729 m 1xe0
 383 657 l 1xe0
 287 657 l 1
 103 -140 l 1xd0
 199 -140 l 1
 182 -212 l 1
 9 -212 l 1
 227 729 l 1
 400 729 l 1xe0
EndSplineSet
EndChar

StartChar: backslash
Encoding: 35 92 35
Width: 257
GlyphClass: 2
Flags: HW
LayerCount: 2
Fore
SplineSet
212 729 m 1
 260 -20 l 1
 209 -20 l 1
 161 729 l 1
 212 729 l 1
EndSplineSet
EndChar

StartChar: bracketright
Encoding: 36 93 36
Width: 255
GlyphClass: 2
Flags: HW
LayerCount: 2
Fore
SplineSet
-28 -212 m 1xe0
 -11 -140 l 1xe0
 84 -140 l 1
 268 657 l 1xd0
 173 657 l 1
 189 729 l 1
 362 729 l 1
 145 -212 l 1
 -28 -212 l 1xe0
EndSplineSet
EndChar

StartChar: asciicircum
Encoding: 37 94 37
Width: 433
GlyphClass: 2
Flags: HW
LayerCount: 2
Fore
SplineSet
346 709 m 1
 414 709 l 1
 470 329 l 1
 406 329 l 1
 362 629 l 1
 180 329 l 1
 116 329 l 1
 346 709 l 1
EndSplineSet
EndChar

StartChar: underscore
Encoding: 38 95 38
Width: 517
GlyphClass: 2
Flags: HW
LayerCount: 2
Fore
SplineSet
509 -126 m 1
 497 -176 l 1
 -61 -176 l 1
 -49 -126 l 1
 509 -126 l 1
EndSplineSet
EndChar

StartChar: grave
Encoding: 39 96 39
Width: 306
GlyphClass: 2
Flags: HW
LayerCount: 2
Fore
SplineSet
296 740 m 1
 351 592 l 1
 295 592 l 1
 191 740 l 1
 296 740 l 1
EndSplineSet
EndChar

StartChar: braceleft
Encoding: 40 123 40
Width: 307
GlyphClass: 2
Flags: HW
LayerCount: 2
Fore
SplineSet
424 729 m 1
 409 664 l 1
 395 664 l 2
 365 664 346 655 335 637 c 0
 330 628 325 614 321 597 c 2
 279 416 l 2
 264 351 240 306 210 283 c 1
 209 282 l 2
 202 277 189 269 167 259 c 1
 212 234 225 181 207 101 c 2
 165 -80 l 2
 157 -113 160 -134 174 -141 c 0
 181 -145 192 -147 208 -147 c 2
 222 -147 l 1
 207 -212 l 1
 164 -212 l 2
 113 -212 88 -185 87 -132 c 0
 87 -117 89 -100 93 -81 c 2
 132 86 l 2
 146 148 144 188 127 206 c 0
 119 214 107 220 91 224 c 1
 107 293 l 1
 142 300 168 319 183 348 c 0
 194 367 202 394 211 431 c 2
 250 598 l 2
 266 666 298 708 345 723 c 0
 357 727 369 729 381 729 c 2
 424 729 l 1
EndSplineSet
EndChar

StartChar: bar
Encoding: 41 124 41
Width: 236
GlyphClass: 2
Flags: HW
LayerCount: 2
Fore
SplineSet
259 729 m 1
 315 729 l 1
 98 -212 l 1
 42 -212 l 1
 259 729 l 1
EndSplineSet
EndChar

StartChar: braceright
Encoding: 42 125 42
Width: 307
GlyphClass: 2
Flags: HW
CounterMasks: 1 e0
LayerCount: 2
Fore
SplineSet
-23 -212 m 1
 -8 -147 l 1
 7 -147 l 2
 37 -147 57 -138 68 -120 c 0
 72 -113 77 -99 82 -80 c 2
 124 101 l 2
 142 181 180 234 237 258 c 1
 192 283 179 336 197 416 c 2
 239 597 l 2
 247 630 243 651 229 658 c 0
 222 662 211 664 195 664 c 2
 180 664 l 1
 195 729 l 1
 238 729 l 2
 289 729 315 702 316 648 c 0
 316 633 314 617 310 598 c 2
 272 431 l 2
 257 368 259 328 277 310 c 0
 284 302 296 296 311 293 c 1
 295 224 l 1
 261 217 235 198 219 167 c 0
 209 148 200 121 192 86 c 2
 154 -81 l 2
 138 -150 106 -192 57 -207 c 0
 46 -210 33 -212 21 -212 c 2
 -23 -212 l 1
EndSplineSet
EndChar

StartChar: asciitilde
Encoding: 43 126 43
Width: 539
GlyphClass: 2
Flags: HW
LayerCount: 2
Fore
SplineSet
434 268 m 0
 409 268 386 277 365 294 c 2
 289 357 l 2
 279 364 266 368 252 371 c 1
 223 371 201 345 184 293 c 1
 136 293 l 1
 161 380 200 428 254 437 c 0
 270 439 284 437 297 432 c 0
 304 429 309 426 315 422 c 2
 409 353 l 2
 424 342 437 336 451 336 c 0
 479 336 499 352 510 385 c 1
 517 411 l 1
 565 411 l 1
 561 395 l 2
 548 338 523 300 483 280 c 0
 468 272 451 268 434 268 c 0
EndSplineSet
EndChar

StartChar: danda
Encoding: 47 2404 44
Width: 268
GlyphClass: 2
Flags: HW
LayerCount: 2
Fore
SplineSet
340 585 m 1
 205 0 l 1
 144 0 l 1
 281 585 l 1
 340 585 l 1
EndSplineSet
EndChar

StartChar: doubledanda
Encoding: 48 2405 45
Width: 389
GlyphClass: 2
Flags: HW
LayerCount: 2
Fore
SplineSet
409 545 m 1
 295 70 l 1
 237 16 l 1
 349 487 l 1
 409 545 l 1
266 535 m 1
 159 61 l 1
 103 11 l 1
 210 478 l 1
 266 535 l 1
EndSplineSet
EndChar

StartChar: u0981
Encoding: 50 2433 46
Width: 11
GlyphClass: 2
Flags: HMW
AnchorPoint: "Anchor-0" -113 740 mark 0
LayerCount: 2
Fore
SplineSet
68 856 m 0
 59 865 56 877 59 892 c 0
 62 907 72 920 85 930 c 0
 98 939 113 944 129 944 c 0
 148 944 162 939 171 930 c 0
 180 921 183 908 179 892 c 0
 177 882 172 873 166 866 c 2
 157 858 l 2
 157 857 155 856 154 856 c 0
 141 847 125 842 106 842 c 0
 90 842 77 847 68 856 c 0
37 832 m 0
 51 816 69 809 89 809 c 0
 90 809 90 809 91 809 c 2
 93 809 l 1
 127 811 152 820 171 836 c 0
 184 847 200 869 220 903 c 1
 232 909 242 912 249 912 c 0
 262 912 271 904 275 889 c 1
 249 818 196 772 115 751 c 0
 108 751 100 750 93 750 c 0
 47 750 13 762 -11 784 c 0
 -39 809 -47 844 -37 889 c 1
 -26 902 -16 909 -9 909 c 0
 -2 909 7 904 17 894 c 1
 15 869 21 849 37 832 c 0
EndSplineSet
Substitution2: "Single Substitution Lookup 27" u0981.salt
EndChar

StartChar: u0982
Encoding: 51 2434 47
Width: 434
GlyphClass: 2
Flags: HMW
LayerCount: 2
Fore
SplineSet
442 60 m 0
 440 53 435 47 428 43 c 0
 421 39 412 36 405 36 c 0
 397 36 389 39 384 44 c 2
 184 337 l 1
 183 344 181 350 182 356 c 0
 186 373 196 381 213 381 c 0
 220 381 228 378 234 373 c 1
 440 74 l 2
 443 69 443 64 442 60 c 0
287 569 m 0
 281 558 276 546 273 535 c 0
 265 501 275 485 302 485 c 0
 327 485 351 501 374 534 c 1
 381 547 386 559 388 569 c 0
 395 600 385 615 358 615 c 0
 357 615 355 615 354 615 c 0
 327 613 304 598 287 569 c 0
443 566 m 0
 441 558 438 548 435 538 c 0
 425 509 404 484 373 462 c 0
 342 440 314 428 287 428 c 0
 260 428 239 438 225 458 c 0
 211 478 208 503 215 532 c 0
 217 542 220 552 224 562 c 0
 259 635 307 671 367 671 c 0
 434 671 459 636 443 566 c 0
EndSplineSet
EndChar

StartChar: u0983
Encoding: 52 2435 48
Width: 403
GlyphClass: 2
Flags: HW
LayerCount: 2
Fore
SplineSet
234 218 m 4xf5
 218 202 206 183 197 162 c 5
 194 148 194 137 195 127 c 4
 196 122 196 117 199 113 c 4
 206 102 217 96 232 96 c 4
 257 96 280 109 302 133 c 4
 321 153 332 174 337 195 c 4
 345 231 331 249 293 250 c 5
 272 247 252 237 234 218 c 4xf5
377 665 m 2
 412 665 438 653 454 629 c 0
 468 607 474 580 466 547 c 0
 463 536 458 524 452 513 c 0
 441 486 426 461 403 439 c 0
 367 404 327 387 284 387 c 0
 254 387 232 398 218 420 c 0
 203 441 200 469 208 503 c 0xfa
 219 552 245 594 285 628 c 0
 314 652 344 664 375 665 c 2
 377 665 l 2
245 35 m 4
 237 34 229 33 222 33 c 4
 189 33 166 44 151 65 c 4
 137 87 132 118 139 156 c 5
 151 198 174 235 207 267 c 4
 240 299 276 314 314 314 c 4
 345 314 367 303 383 282 c 4
 399 259 402 228 393 190 c 4xf5
 392 184 391 179 389 173 c 4
 361 106 313 59 245 35 c 4
301 570 m 0
 282 550 268 528 263 505 c 0
 259 486 261 472 269 463 c 0
 277 453 288 448 302 448 c 0
 328 448 354 462 377 490 c 0
 393 509 403 528 407 547 c 0xfa
 415 583 401 602 364 603 c 1
 342 602 321 591 301 570 c 0
EndSplineSet
EndChar

StartChar: u0985
Encoding: 53 2437 49
Width: 774
GlyphClass: 2
Flags: HW
LayerCount: 2
Fore
SplineSet
507 610 m 1
 539 566 l 1
 572 556 596 546 611 537 c 0
 633 522 645 503 650 479 c 1
 667 435 670 387 658 336 c 0
 652 309 641 283 627 260 c 1
 689 140 l 1
 798 610 l 1
 507 610 l 1
855 610 m 1
 731 71 l 1
 722 50 709 39 690 39 c 0
 683 39 676 43 672 50 c 2
 588 198 l 1
 536 129 477 94 410 94 c 0
 379 94 349 101 316 116 c 0
 254 145 208 200 180 283 c 0
 155 356 145 438 150 530 c 1
 160 546 171 554 183 554 c 0
 190 554 198 550 204 541 c 1
 199 454 209 377 234 311 c 0
 264 233 312 183 378 161 c 0
 391 156 405 154 421 154 c 0
 456 154 486 164 510 185 c 0
 557 224 589 277 604 342 c 0
 622 421 607 474 557 503 c 1
 544 505 532 506 522 506 c 0
 477 506 448 484 438 439 c 0
 435 424 433 406 434 385 c 1
 424 368 412 360 399 360 c 0
 391 360 383 365 377 374 c 1
 377 400 380 422 384 441 c 0
 395 489 424 525 473 550 c 1
 427 610 l 1
 131 610 l 1
 145 673 l 1
 927 673 l 1
 912 610 l 1
 855 610 l 1
EndSplineSet
EndChar

StartChar: u0986
Encoding: 54 2438 50
Width: 936
GlyphClass: 2
Flags: HW
LayerCount: 2
Fore
SplineSet
508 610 m 1
 540 566 l 1
 573 556 596 546 611 537 c 0
 633 522 646 503 651 479 c 1
 668 435 671 387 659 336 c 0
 653 309 642 283 628 260 c 1
 690 140 l 1
 799 610 l 1
 508 610 l 1
856 610 m 1
 732 71 l 1
 723 50 710 39 691 39 c 0
 684 39 677 43 673 50 c 2
 589 198 l 1
 537 129 478 94 411 94 c 0
 380 94 350 101 317 116 c 0
 255 145 209 200 181 283 c 0
 156 356 145 438 150 530 c 1
 160 546 172 554 184 554 c 0
 191 554 199 550 205 541 c 1
 200 454 210 377 235 311 c 0
 265 233 313 183 379 161 c 0
 392 156 406 154 422 154 c 0
 457 154 487 164 511 185 c 0
 558 224 590 277 605 342 c 0
 623 421 608 474 558 503 c 1
 545 505 532 506 522 506 c 0
 477 506 449 484 439 439 c 0
 436 424 434 406 435 385 c 1
 425 368 413 360 400 360 c 0
 392 360 383 365 377 374 c 1
 377 400 381 422 385 441 c 0
 396 489 425 525 474 550 c 1
 428 610 l 1
 132 610 l 1
 146 673 l 1
 1095 673 l 1
 1080 610 l 1
 1016 610 l 1
 890 62 l 2
 888 52 878 47 859 47 c 0
 842 47 835 53 838 64 c 2
 964 610 l 1
 856 610 l 1
EndSplineSet
EndChar

StartChar: u0987
Encoding: 55 2439 51
Width: 406
GlyphClass: 2
Flags: HW
LayerCount: 2
Fore
SplineSet
529 672 m 1
 547 672 565 673 581 673 c 1
 566 610 l 1
 314 610 l 2
 313 610 313 609 316 608 c 0
 318 607 319 606 322 605 c 0
 332 600 338 596 340 592 c 1
 347 594 354 594 361 594 c 0
 399 594 430 582 454 558 c 0
 485 526 493 478 479 416 c 0
 476 405 473 393 470 382 c 0
 425 286 331 229 190 211 c 1
 467 -6 l 1
 467 -10 467 -14 466 -18 c 0
 462 -36 450 -45 433 -44 c 2
 430 -44 l 1
 81 227 l 1
 77 235 77 243 79 252 c 0
 83 271 92 280 108 280 c 0
 111 280 115 279 118 278 c 0
 142 274 167 272 189 272 c 0
 292 272 369 310 417 387 c 1
 421 397 424 407 427 418 c 0
 434 447 432 472 422 494 c 0
 410 522 384 536 345 536 c 0
 273 536 226 496 204 416 c 1
 196 407 187 402 175 402 c 0
 162 402 155 409 154 423 c 1
 161 454 176 484 199 513 c 0
 222 542 247 563 276 574 c 1
 243 610 l 1
 137 610 l 1
 152 673 l 1
 469 671 l 1
 478 720 462 753 420 771 c 0
 401 778 379 782 351 783 c 2
 279 783 l 1
 195 794 142 807 122 820 c 0
 89 842 78 888 89 959 c 0
 90 968 96 974 106 977 c 0
 111 979 117 979 124 979 c 0
 140 979 146 975 144 966 c 0
 134 917 141 884 168 866 c 0
 188 854 224 848 277 847 c 2
 352 847 l 2
 372 847 388 846 402 844 c 0
 449 841 484 825 508 796 c 0
 531 769 538 733 531 685 c 2
 529 672 l 1
EndSplineSet
EndChar

StartChar: u0988
Encoding: 56 2440 52
Width: 539
GlyphClass: 2
Flags: HW
LayerCount: 2
Fore
SplineSet
285 927 m 1xfb80
 276 877 285 842 314 825 c 0
 334 814 371 808 427 808 c 2
 461 808 l 2
 550 808 609 797 638 776 c 0
 664 756 671 724 659 678 c 0
 659 676 658 675 658 673 c 2
 708 673 l 1
 694 610 l 1
 241 610 l 1
 274 551 l 1
 282 553 289 553 296 553 c 0
 338 553 366 534 383 497 c 0
 398 464 399 427 387 385 c 0
 386 382 385 380 384 377 c 1
 434 416 465 440 477 449 c 0
 538 492 582 514 609 515 c 0
 622 515 630 513 633 506 c 0
 635 502 635 498 634 492 c 0
 633 488 631 484 629 480 c 0
 551 349 502 240 482 152 c 0
 466 84 463 16 471 -50 c 1
 464 -67 454 -75 438 -75 c 0
 431 -75 422 -73 417 -68 c 1
 410 5 414 79 432 155 c 0
 453 246 492 341 550 439 c 1
 514 422 470 390 415 341 c 0
 340 272 295 233 285 225 c 0
 236 188 194 170 160 170 c 0
 135 170 111 179 89 197 c 0
 87 201 87 206 88 212 c 0
 92 230 105 240 125 244 c 1
 142 233 159 227 175 227 c 0
 207 227 246 250 293 297 c 1
 317 327 333 358 340 390 c 0
 348 426 342 455 324 476 c 0
 311 490 297 497 279 497 c 0
 256 497 232 486 210 465 c 0
 188 444 175 419 168 390 c 1
 161 382 152 378 142 378 c 0
 130 378 123 383 119 392 c 1xf780
 126 432 144 466 171 493 c 0
 184 507 200 519 218 529 c 1
 176 610 l 1
 127 610 l 1
 142 673 l 1
 607 673 l 1
 610 680 614 687 615 693 c 0
 623 728 599 747 542 751 c 0
 531 752 495 752 435 752 c 0
 406 752 381 753 359 756 c 0
 348 757 339 759 330 761 c 0
 287 772 258 786 246 803 c 0
 231 825 225 864 233 921 c 1
 239 934 248 941 260 941 c 0
 270 941 280 936 285 927 c 1xfb80
EndSplineSet
EndChar

StartChar: u0989
Encoding: 57 2441 53
Width: 682
GlyphClass: 2
Flags: HW
LayerCount: 2
Fore
SplineSet
657 673 m 1xf980
 668 729 644 764 585 777 c 0
 571 780 555 782 538 783 c 2
 466 783 l 1
 381 794 329 807 309 820 c 0
 276 842 264 888 275 959 c 0
 276 968 282 974 292 977 c 0
 297 979 304 979 311 979 c 0
 327 979 333 975 331 966 c 0
 321 917 328 884 355 866 c 0
 375 854 410 847 463 846 c 2
 539 846 l 2
 559 846 575 846 589 844 c 0
 636 841 670 825 694 796 c 0
 720 766 727 725 716 673 c 1xfb80
 838 673 l 1
 824 610 l 1
 468 610 l 1
 409 353 l 1
 411 340 417 333 427 333 c 0
 444 333 469 347 503 376 c 0
 533 402 563 433 595 470 c 0
 600 477 608 480 616 480 c 0
 629 480 639 474 647 463 c 0
 684 414 695 358 681 296 c 0
 674 264 659 229 638 190 c 1
 568 88 493 36 413 35 c 0
 412 35 412 35 411 35 c 0
 378 35 346 43 317 58 c 0
 302 66 286 75 272 87 c 0
 238 116 213 152 196 195 c 0
 166 271 149 373 144 502 c 0
 145 507 147 511 150 515 c 0
 151 517 154 519 156 521 c 0
 163 527 170 530 178 530 c 0
 187 530 194 526 199 519 c 1
 206 408 217 329 232 281 c 1
 242 229 265 184 299 148 c 0
 334 112 374 94 419 94 c 0
 470 94 517 119 563 168 c 0
 594 201 615 240 625 285 c 0xfd40
 637 335 632 377 612 412 c 1
 558 361 525 330 510 319 c 0
 468 288 430 272 396 272 c 1
 356 279 343 316 358 382 c 2
 411 610 l 1
 135 610 l 1
 150 673 l 1
 657 673 l 1xf980
EndSplineSet
EndChar

StartChar: u098a
Encoding: 58 2442 54
Width: 723
GlyphClass: 2
Flags: HW
LayerCount: 2
Fore
SplineSet
397 829 m 0xfee0
 422 817 468 811 535 811 c 2
 570 812 l 2
 620 812 655 809 676 802 c 0
 706 794 725 778 737 756 c 0
 748 737 751 715 745 690 c 0
 744 685 742 679 740 673 c 1
 887 673 l 1
 873 610 l 1
 515 610 l 1
 454 347 l 1
 456 333 463 326 473 326 c 0
 504 326 559 373 642 465 c 0
 649 474 659 479 670 479 c 0
 677 479 684 477 688 472 c 0
 732 423 743 359 723 279 c 1
 722 274 l 1
 706 213 674 160 626 112 c 0
 574 61 517 35 457 35 c 0
 404 35 353 52 302 86 c 0
 251 120 215 163 193 214 c 0xfee0
 155 304 142 411 152 536 c 1
 158 552 168 560 182 560 c 0
 192 560 200 555 205 545 c 1
 203 470 204 414 208 377 c 0
 214 329 228 284 249 242 c 1
 237 377 l 2
 233 422 236 469 243 519 c 1
 252 533 261 540 271 540 c 0
 280 540 289 534 295 522 c 1xfde0
 285 426 288 336 305 252 c 0
 312 216 325 184 345 157 c 0
 375 114 416 93 467 93 c 0
 544 93 607 142 655 240 c 0
 662 255 667 270 671 287 c 0
 683 337 678 377 657 407 c 1
 604 359 572 332 562 324 c 0
 512 285 474 266 445 266 c 0
 414 266 397 289 394 335 c 1
 457 610 l 1
 132 610 l 1
 146 673 l 1
 678 673 l 1
 680 679 683 685 684 690 c 0
 690 717 677 735 646 745 c 0
 623 752 584 756 533 755 c 2
 524 755 l 2
 473 754 432 757 401 764 c 0
 385 768 371 772 360 778 c 0
 308 803 290 854 306 930 c 1
 318 941 330 947 340 947 c 0
 348 947 355 943 360 936 c 1
 347 883 358 847 397 829 c 0xfee0
EndSplineSet
EndChar

StartChar: u098b
Encoding: 59 2443 55
Width: 669
GlyphClass: 2
Flags: HW
LayerCount: 2
Fore
SplineSet
503 491 m 1
 245 342 l 1
 418 123 l 1
 503 491 l 1
737 688 m 0
 757 688 763 682 760 671 c 2
 643 162 l 2
 639 145 626 137 604 137 c 0
 593 137 585 140 582 146 c 2
 510 272 l 1
 461 57 l 2
 457 39 442 31 417 31 c 0
 409 31 403 33 399 38 c 2
 176 328 l 2
 173 333 173 338 174 344 c 0
 176 354 184 364 194 373 c 1
 433 513 l 1
 402 562 l 1
 363 524 323 505 281 505 c 0
 227 505 192 531 171 583 c 0
 171 586 171 589 172 592 c 0
 176 611 190 620 212 620 c 0
 217 620 220 620 223 619 c 1
 235 581 259 562 293 562 c 0
 327 562 357 581 382 619 c 1
 395 630 409 635 423 632 c 0
 426 632 429 631 432 630 c 2
 489 542 l 1
 520 562 l 1
 544 669 l 2
 547 681 560 687 580 687 c 0
 598 687 605 682 602 671 c 2
 531 362 l 1
 603 240 l 1
 703 671 l 2
 706 682 717 688 737 688 c 0
EndSplineSet
EndChar

StartChar: u098c
Encoding: 60 2444 56
Width: 593
GlyphClass: 2
Flags: HW
LayerCount: 2
Fore
SplineSet
271 597 m 0xd8
 281 590 316 575 376 551 c 0
 452 520 506 488 541 453 c 0
 592 402 608 341 592 270 c 0
 587 248 578 225 567 201 c 1
 539 153 499 115 446 84 c 0
 397 55 349 39 298 35 c 1
 278 39 266 46 269 57 c 0
 270 62 275 68 282 76 c 1
 292 93 300 110 310 127 c 0
 320 144 327 160 330 174 c 0
 334 192 336 210 333 231 c 1
 324 265 299 282 263 282 c 0
 243 282 224 275 204 261 c 0
 180 241 163 216 156 184 c 0
 151 161 151 137 155 112 c 0
 154 105 153 100 150 95 c 0
 148 92 145 91 143 89 c 0
 136 83 127 80 119 80 c 0
 108 80 102 84 100 91 c 0
 93 121 94 152 101 184 c 0xb8
 109 220 126 252 150 278 c 0
 187 319 231 340 279 340 c 0
 307 340 330 332 350 316 c 0
 370 300 382 278 386 251 c 0
 390 224 390 197 384 172 c 0
 379 151 369 127 356 102 c 1
 399 113 438 132 469 159 c 0
 505 189 528 224 537 265 c 0
 540 278 541 291 540 304 c 0
 541 356 520 399 475 434 c 0
 450 452 407 474 344 500 c 0
 277 528 236 547 222 557 c 0
 188 581 175 613 184 652 c 0
 189 670 197 678 213 678 c 0
 232 678 241 671 239 655 c 1
 235 641 237 627 248 615 c 0
 253 609 261 603 271 597 c 0xd8
EndSplineSet
EndChar

StartChar: u098f
Encoding: 61 2447 57
Width: 627
GlyphClass: 2
Flags: HW
LayerCount: 2
Fore
SplineSet
690 540 m 2x7c
 580 60 l 2
 579 54 572 48 562 43 c 0
 552 38 540 36 531 36 c 0
 524 36 520 38 518 42 c 0
 492 97 450 125 391 125 c 0x7c
 372 125 345 121 306 115 c 0
 267 109 238 106 219 106 c 0
 202 106 188 108 175 111 c 1
 135 129 108 155 97 190 c 0
 88 221 89 261 101 312 c 0
 105 330 111 350 118 373 c 1
 128 381 138 385 146 385 c 0
 156 385 164 379 170 369 c 1
 160 334 155 313 153 306 c 0
 140 249 149 208 177 182 c 0
 190 170 209 164 232 164 c 0xbc
 246 164 271 167 308 174 c 0
 345 181 374 184 394 184 c 0
 451 184 498 164 536 123 c 1
 632 536 l 2
 643 584 635 608 604 608 c 0
 588 608 563 600 533 585 c 0
 464 551 422 502 407 438 c 0
 400 409 399 376 402 337 c 1
 396 320 384 311 365 311 c 0
 355 311 349 314 344 321 c 1
 338 355 339 390 347 426 c 0
 359 480 385 528 426 572 c 0
 467 615 515 644 571 659 c 0
 586 664 600 667 612 667 c 0
 638 667 660 656 679 633 c 0
 696 612 699 581 690 540 c 2x7c
EndSplineSet
EndChar

StartChar: u0990
Encoding: 62 2448 58
Width: 719
GlyphClass: 2
Flags: HW
LayerCount: 2
Fore
SplineSet
622 289 m 1x7f80
 569 60 l 2
 568 54 560 48 550 43 c 0
 540 38 529 36 520 36 c 0
 513 36 509 38 507 42 c 0
 481 97 438 125 379 125 c 0x7f80
 360 125 333 121 294 115 c 0
 255 109 227 106 208 106 c 0
 191 106 176 108 163 111 c 1
 123 129 96 155 85 190 c 0
 76 221 77 261 89 312 c 0
 93 330 99 350 106 373 c 1
 116 381 127 385 135 385 c 0
 145 385 153 379 159 369 c 1
 149 334 144 313 142 306 c 0
 129 249 137 208 165 182 c 0
 178 170 198 164 221 164 c 0xbf80
 235 164 259 167 296 174 c 0
 333 181 363 184 383 184 c 0
 440 184 488 164 526 123 c 1
 621 536 l 2
 632 584 623 608 592 608 c 0
 576 608 552 600 522 585 c 0
 453 551 411 502 396 438 c 0
 389 409 387 376 390 337 c 1
 384 320 373 311 354 311 c 0
 344 311 337 314 332 321 c 1
 326 355 327 390 335 426 c 0
 347 480 374 528 415 572 c 0
 456 615 503 644 559 659 c 0
 574 664 588 667 600 667 c 0
 626 667 648 656 667 633 c 0
 684 612 688 581 679 540 c 2
 638 359 l 1
 671 368 699 389 726 421 c 0
 755 456 774 492 783 530 c 0
 799 599 773 640 706 655 c 0
 596 680 548 724 562 786 c 0
 572 829 602 864 654 890 c 1
 662 891 668 890 673 887 c 0
 676 886 678 884 680 882 c 0
 686 876 687 868 685 860 c 0
 684 854 681 848 676 843 c 0
 647 817 629 796 626 781 c 0
 622 763 643 747 687 733 c 0
 749 714 789 697 809 680 c 0
 847 650 858 603 843 540 c 0
 831 486 804 434 761 385 c 0
 720 337 675 305 622 289 c 1x7f80
EndSplineSet
EndChar

StartChar: u0993
Encoding: 63 2451 59
Width: 696
GlyphClass: 2
Flags: HW
LayerCount: 2
Fore
SplineSet
608 671 m 1xf8
 659 670 698 651 724 616 c 0
 750 581 758 540 747 492 c 0xf8
 738 451 715 413 681 377 c 1
 718 340 728 291 714 230 c 0
 704 186 682 148 650 116 c 0
 614 81 571 60 522 53 c 0
 509 51 498 50 487 50 c 0
 425 50 368 72 319 116 c 0
 211 208 164 373 177 610 c 1
 180 623 185 632 193 637 c 0
 197 639 200 640 206 640 c 0
 216 640 226 634 233 622 c 1
 231 535 233 463 243 408 c 0
 255 334 278 272 313 222 c 0
 365 146 427 108 499 108 c 0
 549 108 590 123 620 154 c 0
 639 174 651 196 657 223 c 0xf4
 663 247 662 270 656 292 c 0
 650 314 637 330 620 340 c 0
 604 349 599 359 602 370 c 0
 604 378 610 387 621 396 c 1
 658 420 682 450 690 485 c 0
 696 512 694 537 681 559 c 0
 663 591 636 607 599 607 c 0
 569 607 543 595 519 572 c 0
 495 549 480 521 472 488 c 0
 467 466 465 445 470 425 c 1
 462 406 448 397 428 397 c 0
 421 397 413 400 409 405 c 1
 405 432 407 460 413 487 c 0
 424 535 447 575 483 610 c 0
 519 645 561 665 608 671 c 1xf8
EndSplineSet
EndChar

StartChar: u0994
Encoding: 64 2452 60
Width: 755
GlyphClass: 2
Flags: HW
LayerCount: 2
Fore
SplineSet
703 422 m 1xfd
 723 433 744 451 764 474 c 0
 793 509 811 545 820 583 c 0
 836 652 810 693 743 708 c 0
 633 733 586 777 600 839 c 0
 610 882 640 917 692 943 c 1
 700 944 705 943 710 940 c 0
 713 939 716 938 718 936 c 0
 723 929 725 921 723 913 c 0
 722 907 718 901 713 896 c 0
 684 870 667 849 664 834 c 0
 660 816 680 800 724 786 c 0
 786 767 827 750 847 733 c 0
 885 703 895 656 880 593 c 0
 868 539 841 487 798 438 c 0
 763 397 726 368 688 351 c 1
 708 318 712 278 701 230 c 0
 691 186 668 148 636 116 c 0
 600 81 557 60 508 53 c 0
 495 51 484 50 473 50 c 0
 411 50 354 72 305 116 c 0
 197 208 150 373 163 610 c 1
 166 623 171 632 179 637 c 0
 183 639 187 640 193 640 c 0
 203 640 212 634 219 622 c 1
 217 535 219 463 229 408 c 0
 241 334 264 272 299 222 c 0
 351 146 414 108 486 108 c 0
 536 108 576 123 606 154 c 0
 625 174 637 196 643 223 c 0xfb
 649 247 649 270 643 292 c 0
 637 314 623 330 606 340 c 0
 590 349 585 359 588 370 c 0
 590 378 596 387 607 396 c 1
 644 420 667 450 675 485 c 0
 681 512 679 537 667 559 c 0
 649 591 622 607 585 607 c 0
 555 607 529 595 505 572 c 0
 481 549 466 521 458 488 c 0
 453 466 452 445 457 425 c 1
 449 406 434 397 414 397 c 0
 407 397 399 400 395 405 c 1
 391 432 393 460 399 487 c 0
 410 535 434 575 470 610 c 0
 506 645 547 665 594 671 c 1
 645 670 684 651 710 616 c 0
 736 581 744 540 733 492 c 0
 727 468 717 444 703 422 c 1xfd
EndSplineSet
EndChar

StartChar: u0995
Encoding: 65 2453 61
Width: 659
GlyphClass: 2
Flags: HW
AnchorPoint: "Anchor-1" 400 20 basechar 0
AnchorPoint: "Anchor-0" 340 680 basechar 0
LayerCount: 2
Fore
SplineSet
446 493 m 1
 183 342 l 1
 360 121 l 1
 446 493 l 1
673 382 m 0
 664 341 646 306 622 277 c 0
 595 246 566 230 534 231 c 0
 520 230 513 233 510 241 c 0
 508 245 508 251 510 258 c 0
 513 273 522 282 535 287 c 1
 547 285 559 289 570 297 c 0
 576 301 582 306 588 313 c 0
 606 333 618 357 624 384 c 0
 631 413 628 437 617 457 c 0
 597 495 562 513 512 511 c 2
 508 511 l 1
 403 55 l 2
 400 42 391 35 378 35 c 0
 364 35 353 41 344 51 c 2
 117 328 l 2
 110 333 107 340 109 348 c 0
 111 358 119 366 131 373 c 2
 461 560 l 1
 473 610 l 1
 134 610 l 1
 149 673 l 1
 817 673 l 1
 802 610 l 1
 531 610 l 1
 522 572 l 1
 649 556 699 493 673 382 c 0
EndSplineSet
EndChar

StartChar: u0996
Encoding: 66 2454 62
Width: 589
GlyphClass: 2
Flags: HW
AnchorPoint: "Anchor-1" 520 40 basechar 0
AnchorPoint: "Anchor-0" 547 660 basechar 0
LayerCount: 2
Fore
SplineSet
743 673 m 1
 728 610 l 1
 655 610 l 1
 529 64 l 2
 527 57 523 52 514 47 c 0
 505 42 496 39 487 39 c 0
 479 39 472 41 468 46 c 2
 209 297 l 1
 205 306 205 315 207 324 c 0
 211 341 220 349 232 349 c 0
 271 354 307 370 342 397 c 0
 380 427 402 461 411 499 c 0
 417 524 416 548 409 572 c 1
 367 506 317 473 259 473 c 0
 226 473 192 485 157 508 c 1
 151 515 149 523 151 533 c 0
 155 552 165 562 182 562 c 0
 185 562 188 561 191 560 c 0
 218 540 245 531 270 531 c 0
 322 531 360 565 382 633 c 0
 385 646 389 655 397 660 c 0
 401 662 405 663 411 663 c 0
 417 663 421 661 427 657 c 0
 470 622 482 568 464 496 c 1
 462 491 l 1
 439 404 381 343 286 308 c 1
 485 121 l 1
 599 617 l 2
 608 654 630 673 663 673 c 2
 743 673 l 1
EndSplineSet
EndChar

StartChar: u0997
Encoding: 67 2455 63
Width: 571
GlyphClass: 2
Flags: HW
AnchorPoint: "Anchor-1" 514 36 basechar 0
AnchorPoint: "Anchor-0" 547 667 basechar 0
LayerCount: 2
Fore
SplineSet
735 673 m 1xb8
 721 610 l 1
 648 610 l 1xb8
 519 53 l 2
 516 38 505 31 485 31 c 0
 465 31 459 38 462 53 c 2
 538 382 l 2
 548 425 544 461 530 491 c 0
 499 550 453 580 390 580 c 0
 325 580 267 548 216 484 c 1
 254 488 285 483 309 468 c 0
 321 461 333 451 341 439 c 0
 366 406 372 365 361 316 c 0
 345 248 305 197 238 162 c 0
 234 161 230 160 226 160 c 0
 218 160 211 163 206 168 c 0
 201 173 200 180 202 187 c 0
 204 195 209 202 217 209 c 0
 267 236 297 271 307 316 c 0
 314 346 309 373 295 395 c 0
 281 417 260 428 232 428 c 0
 212 428 190 422 167 409 c 0
 157 403 148 401 141 401 c 0
 127 401 123 409 126 424 c 0
 127 428 128 432 131 437 c 0
 158 493 190 537 228 568 c 0
 263 597 306 618 360 633 c 0
 380 637 398 638 415 638 c 0xd8
 484 638 536 607 575 545 c 1
 605 673 l 1
 735 673 l 1xb8
EndSplineSet
EndChar

StartChar: u0998
Encoding: 68 2456 64
Width: 499
GlyphClass: 2
Flags: HW
AnchorPoint: "Anchor-1" 435 34 basechar 0
AnchorPoint: "Anchor-0" 427 667 basechar 0
LayerCount: 2
Fore
SplineSet
306 484 m 1
 324 484 331 474 327 455 c 0
 325 448 321 441 315 435 c 2
 192 315 l 1
 406 121 l 1
 519 610 l 1
 261 610 l 1
 230 594 213 573 207 548 c 0
 203 529 206 513 217 499 c 0
 228 485 244 477 265 477 c 1
 306 484 l 1
147 673 m 1
 663 673 l 1
 649 610 l 1
 576 610 l 1
 450 62 l 2
 447 47 432 39 410 39 c 0
 401 39 393 41 388 46 c 2
 128 287 l 1
 121 291 117 298 119 307 c 0
 121 314 126 321 133 328 c 2
 226 420 l 1
 198 425 178 438 164 461 c 0
 150 484 146 511 153 543 c 0
 158 565 170 588 185 610 c 1
 133 610 l 1
 147 673 l 1
EndSplineSet
EndChar

StartChar: u0999
Encoding: 69 2457 65
Width: 570
GlyphClass: 2
Flags: HMW
AnchorPoint: "Anchor-1" 405 40 basechar 0 {} {11-11 0}
AnchorPoint: "Anchor-0" 407 673 basechar 0
LayerCount: 2
Fore
SplineSet
447 570 m 0
 428 550 412 528 401 504 c 1
 427 498 446 495 460 495 c 0
 499 495 531 515 557 556 c 0
 559 559 559 562 560 565 c 0
 563 578 560 589 552 597 c 0
 542 606 531 610 519 610 c 0
 510 610 499 608 488 602 c 0
 475 595 462 585 447 570 c 0
529 671 m 0
 533 671 536 672 540 672 c 0
 562 672 580 663 594 647 c 0
 602 638 609 625 615 610 c 1
 617 597 616 583 613 568 c 0
 606 539 590 511 565 487 c 0
 529 453 489 436 443 436 c 0
 418 436 396 441 378 450 c 0
 374 450 368 435 361 403 c 0
 355 379 359 358 369 339 c 1
 519 409 l 1
 528 416 539 420 552 420 c 0
 558 420 563 419 568 418 c 1
 621 368 639 310 624 244 c 0
 611 189 579 141 529 100 c 0
 479 59 427 38 374 38 c 0
 315 38 265 62 222 110 c 0
 185 151 162 200 152 256 c 0
 145 295 141 337 141 382 c 0
 141 407 142 449 145 511 c 1
 151 528 161 537 175 537 c 0
 185 537 193 531 197 519 c 1
 191 415 195 335 207 278 c 0
 218 229 239 187 269 152 c 0
 303 114 341 94 385 94 c 0
 416 94 447 105 480 126 c 0
 530 158 560 197 571 243 c 0
 581 288 570 327 537 362 c 1
 347 265 l 1
 310 304 296 347 307 394 c 0
 314 425 321 448 330 465 c 0
 330 467 329 468 328 468 c 0
 260 506 219 561 208 633 c 0
 208 640 209 645 212 650 c 0
 213 652 215 654 217 656 c 0
 224 662 232 665 240 665 c 0
 247 665 253 663 258 659 c 1
 279 593 309 547 353 522 c 1
 369 555 395 587 429 617 c 0
 465 650 499 668 529 671 c 0
EndSplineSet
EndChar

StartChar: u099a
Encoding: 70 2458 66
Width: 435
GlyphClass: 2
Flags: HW
AnchorPoint: "Anchor-1" 157 31 basechar 0
AnchorPoint: "Anchor-0" 93 673 basechar 0
LayerCount: 2
Fore
SplineSet
228 475 m 1
 152 145 l 2
 144 112 153 95 174 95 c 0
 183 95 194 99 210 107 c 0
 244 125 279 156 318 202 c 0
 359 252 384 297 393 336 c 0
 396 347 397 357 396 366 c 1
 391 381 364 398 315 415 c 0
 266 432 238 452 228 475 c 1
146 673 m 1
 603 673 l 1
 588 610 l 1
 259 610 l 1
 250 570 l 1
 259 534 282 504 318 483 c 1
 409 440 l 1
 439 423 453 401 452 373 c 0
 452 362 449 350 446 337 c 0
 432 277 397 215 340 152 c 0
 284 89 230 50 177 35 c 0
 173 34 168 33 163 33 c 0
 142 33 123 41 108 58 c 0
 90 77 84 102 91 133 c 2
 201 610 l 1
 132 610 l 1
 146 673 l 1
EndSplineSet
EndChar

StartChar: u099b
Encoding: 71 2459 67
Width: 562
GlyphClass: 2
Flags: HMW
AnchorPoint: "Anchor-1" 620 -32 basechar 0
AnchorPoint: "Anchor-0" 213 673 basechar 0
LayerCount: 2
Fore
SplineSet
266 524 m 1
 221 327 l 2
 217 310 222 301 237 301 c 0
 262 301 300 318 348 354 c 0
 396 390 420 420 422 443 c 0
 425 466 404 481 361 488 c 0
 310 497 278 509 266 524 c 1
150 673 m 1
 728 673 l 1
 714 612 l 1
 286 612 l 1
 281 590 298 572 335 559 c 0
 366 548 401 542 440 542 c 0
 455 542 466 542 475 544 c 1
 521 541 555 525 573 496 c 0
 590 469 594 434 584 392 c 0
 572 341 544 291 502 245 c 0
 471 211 442 184 413 167 c 0
 393 156 368 145 337 136 c 1
 382 134 427 123 475 104 c 0
 528 83 572 55 609 21 c 1
 611 12 611 5 610 -1 c 0
 606 -18 594 -26 573 -25 c 2
 569 -25 l 1
 522 17 464 48 394 67 c 0
 340 82 268 92 182 97 c 1
 175 105 173 116 176 129 c 0
 179 140 184 148 193 152 c 1
 243 158 278 164 296 168 c 0
 331 177 364 194 394 216 c 1
 424 235 454 262 481 296 c 0
 510 331 528 363 535 394 c 0
 545 439 527 468 482 482 c 1
 481 474 481 466 479 458 c 0
 466 403 430 355 370 312 c 0
 315 273 262 252 216 252 c 0
 169 252 151 275 161 320 c 2
 227 604 l 1
 220 610 l 1
 135 610 l 1
 150 673 l 1
EndSplineSet
EndChar

StartChar: u099c
Encoding: 72 2460 68
Width: 772
GlyphClass: 2
Flags: HW
AnchorPoint: "Anchor-1" 747 -12 basechar 0
AnchorPoint: "Anchor-0" 393 667 basechar 0
LayerCount: 2
Fore
SplineSet
144 673 m 1
 936 673 l 1
 921 610 l 1
 643 610 l 1
 823 470 l 1
 832 466 836 459 833 447 c 0
 832 442 828 437 824 432 c 0
 768 344 736 272 723 217 c 0
 709 157 710 91 729 19 c 1
 723 -5 713 -17 693 -17 c 0
 688 -17 682 -16 677 -13 c 1
 656 73 654 149 669 216 c 0
 683 275 717 347 770 432 c 1
 543 613 l 1
 507 596 475 571 445 538 c 0
 415 504 397 473 390 443 c 0
 383 411 390 387 411 371 c 0
 414 372 445 384 506 408 c 0
 544 423 577 430 602 430 c 1
 642 391 655 341 641 279 c 0
 624 207 580 152 509 115 c 0
 464 92 422 80 382 80 c 0
 289 80 220 140 172 259 c 1
 160 277 151 311 146 360 c 0
 141 413 140 464 146 515 c 1
 151 536 162 546 177 546 c 0
 186 546 193 540 200 529 c 1
 185 432 196 347 230 272 c 0
 272 182 328 136 400 136 c 0
 442 136 484 153 528 188 c 0
 559 213 580 244 588 280 c 0
 597 317 591 350 570 377 c 1
 557 373 526 361 478 341 c 0
 440 325 409 316 387 315 c 1
 339 340 321 382 335 441 c 0
 348 499 385 555 442 610 c 1
 130 610 l 1
 144 673 l 1
EndSplineSet
EndChar

StartChar: u099d
Encoding: 73 2461 69
Width: 643
GlyphClass: 2
Flags: HW
AnchorPoint: "Anchor-1" 372 30 basechar 0
AnchorPoint: "Anchor-0" 353 667 basechar 0
LayerCount: 2
Fore
SplineSet
436 491 m 1
 179 342 l 1
 351 123 l 1
 436 491 l 1
659 610 m 2
 669 652 693 673 731 673 c 2
 811 673 l 1
 797 610 l 1
 717 610 l 1
 613 162 l 2
 610 149 599 142 579 142 c 0
 567 142 558 145 553 152 c 2
 443 272 l 1
 394 57 l 2
 390 39 376 31 354 31 c 0
 345 31 337 33 332 39 c 2
 108 326 l 2
 105 329 105 336 107 345 c 0
 110 358 116 368 126 373 c 2
 452 560 l 1
 464 610 l 1
 135 610 l 1
 150 673 l 1
 478 673 l 2
 516 673 531 652 521 610 c 2
 462 351 l 1
 573 238 l 1
 659 610 l 2
EndSplineSet
EndChar

StartChar: u099e
Encoding: 74 2462 70
Width: 838
GlyphClass: 2
Flags: HW
AnchorPoint: "Anchor-1" 568 27 basechar 0
AnchorPoint: "Anchor-0" 480 667 basechar 0
LayerCount: 2
Fore
SplineSet
828 493 m 0x3f80
 805 493 776 475 745 438 c 0
 737 429 715 399 678 348 c 1
 683 311 694 277 711 247 c 0
 732 211 758 193 787 193 c 0
 792 193 797 194 803 195 c 0
 825 208 837 223 841 241 c 0x3f40
 845 258 840 275 826 289 c 0
 812 303 796 310 776 310 c 1
 763 319 758 329 761 340 c 0
 764 351 772 361 786 369 c 1
 808 372 828 381 846 397 c 0
 862 411 873 427 877 444 c 0
 885 477 868 493 828 493 c 0x3f80
623 306 m 1
 566 60 l 2
 565 54 558 48 548 43 c 0
 538 38 527 36 518 36 c 0
 511 36 506 38 504 42 c 0
 478 97 436 125 377 125 c 0x5f40
 358 125 330 121 291 115 c 0
 252 109 224 106 205 106 c 0
 188 106 174 108 161 111 c 1
 121 129 94 155 83 190 c 0
 74 221 76 261 88 312 c 0
 92 330 97 350 104 373 c 1
 114 381 124 385 132 385 c 0
 142 385 150 379 156 369 c 1
 146 334 141 313 139 306 c 0
 126 249 135 208 163 182 c 0
 176 170 195 164 218 164 c 0x9f40
 232 164 258 167 295 174 c 0
 332 181 361 184 381 184 c 0
 438 184 485 164 523 123 c 1
 618 536 l 2
 629 584 620 608 589 608 c 0
 573 608 550 600 520 585 c 0
 451 551 408 502 393 438 c 0
 386 409 384 376 387 337 c 1
 381 320 370 311 351 311 c 0
 341 311 335 314 330 321 c 1
 324 355 324 390 332 426 c 0
 344 480 372 528 413 572 c 0
 454 615 501 644 557 659 c 0
 572 664 586 667 598 667 c 0
 624 667 647 656 666 633 c 0
 683 612 686 581 677 540 c 2
 642 391 l 1
 664 425 689 456 717 485 c 0
 761 529 804 552 849 555 c 1
 881 552 906 540 923 517 c 0
 940 494 945 467 938 437 c 0x5f80
 930 402 906 370 868 342 c 1
 901 315 912 278 902 233 c 0
 890 183 857 150 802 135 c 0
 794 134 785 133 777 133 c 0
 716 133 671 170 642 243 c 0
 634 262 628 283 623 306 c 1
EndSplineSet
EndChar

StartChar: u099f
Encoding: 75 2463 71
Width: 450
GlyphClass: 2
Flags: HW
AnchorPoint: "Anchor-1" 182 37 basechar 0
AnchorPoint: "Anchor-0" 127 807 basechar 0
LayerCount: 2
Fore
SplineSet
309 753 m 1xfa
 224 763 171 775 152 789 c 0
 119 811 108 858 121 930 c 1
 125 943 135 949 150 949 c 0
 162 949 170 945 174 936 c 1
 163 885 172 850 201 832 c 0
 221 819 260 813 319 813 c 2
 374 813 l 2
 442 812 488 806 516 794 c 0
 562 773 579 733 565 673 c 1xfa
 613 673 l 1
 599 610 l 1
 275 610 l 1
 175 176 l 2
 171 159 174 145 182 133 c 0
 190 121 201 115 218 115 c 0
 241 115 268 128 297 154 c 0
 358 210 395 264 407 315 c 0
 414 345 411 367 401 382 c 0
 400 383 391 392 371 412 c 0
 369 416 369 420 370 425 c 0
 372 433 376 440 384 447 c 0
 392 454 401 457 411 457 c 1
 456 416 473 371 461 321 c 0xfc
 447 260 410 198 352 135 c 0
 291 69 235 35 184 35 c 0
 161 35 141 48 126 74 c 0
 111 100 106 128 113 160 c 2
 217 609 l 1
 196 610 172 610 150 610 c 2
 138 610 l 1
 153 673 l 1
 507 673 l 1
 510 680 513 686 514 692 c 0
 524 735 483 756 390 756 c 1
 309 753 l 1xfa
EndSplineSet
EndChar

StartChar: u09a0
Encoding: 76 2464 72
Width: 467
GlyphClass: 2
Flags: HW
AnchorPoint: "Anchor-1" 212 39 basechar 0
AnchorPoint: "Anchor-0" 280 667 basechar 0
LayerCount: 2
Fore
SplineSet
390 551 m 1xf6
 388 540 386 528 383 517 c 0
 355 394 274 304 142 246 c 1
 135 216 133 190 137 168 c 0
 139 157 143 146 148 137 c 0
 163 109 186 94 218 94 c 0
 251 94 286 109 323 140 c 0
 379 187 413 241 428 304 c 0
 446 381 433 464 390 551 c 1xf6
285 950 m 0xee
 298 1005 338 1040 407 1052 c 1
 423 1047 427 1035 423 1016 c 0
 421 1006 416 999 409 996 c 1
 369 996 345 980 338 949 c 0xee
 333 927 336 891 346 842 c 1
 368 766 385 709 397 673 c 1
 635 673 l 1
 621 610 l 1
 429 610 l 1
 485 506 501 402 477 297 c 0
 462 232 429 173 379 121 c 0
 325 66 269 39 209 39 c 0
 187 39 165 44 145 52 c 0
 122 61 104 85 91 125 c 0
 78 164 75 202 83 236 c 0xf6
 89 261 100 279 116 292 c 1
 179 317 229 349 264 385 c 0
 300 422 323 468 336 524 c 0
 342 550 345 579 347 610 c 1
 135 610 l 1
 150 673 l 1
 334 673 l 1
 331 688 322 721 304 774 c 0
 281 849 275 907 285 950 c 0xee
EndSplineSet
EndChar

StartChar: u09a1
Encoding: 77 2465 73
Width: 666
GlyphClass: 2
Flags: HW
AnchorPoint: "Anchor-1" 439 31 basechar 0
AnchorPoint: "Anchor-0" 307 673 basechar 0
LayerCount: 2
Fore
SplineSet
838 673 m 1
 824 610 l 1
 468 610 l 1
 409 353 l 1
 411 340 417 333 427 333 c 0
 444 333 469 347 503 376 c 0
 533 402 563 433 595 470 c 0
 600 477 608 480 616 480 c 0
 629 480 639 474 647 463 c 0
 684 414 695 358 681 296 c 0
 674 264 659 229 638 190 c 1
 568 88 493 36 413 35 c 0
 379 35 347 43 317 58 c 0
 302 66 286 75 272 87 c 0
 238 116 213 152 196 195 c 0
 166 271 149 373 144 502 c 0
 145 507 147 511 150 515 c 0
 151 517 154 519 156 521 c 0
 163 527 170 530 178 530 c 0
 187 530 194 526 199 519 c 1
 206 408 217 329 232 281 c 1
 242 229 265 184 299 148 c 0
 334 112 374 94 419 94 c 0
 470 94 517 119 563 168 c 0
 594 201 615 240 625 285 c 0
 637 335 632 377 612 412 c 1
 558 361 525 330 510 319 c 0
 468 288 430 272 396 272 c 1
 356 279 343 316 358 382 c 2
 411 610 l 1
 135 610 l 1
 150 673 l 1
 838 673 l 1
EndSplineSet
EndChar

StartChar: u09a2
Encoding: 78 2466 74
Width: 452
GlyphClass: 2
Flags: HW
AnchorPoint: "Anchor-1" 202 36 basechar 0
AnchorPoint: "Anchor-0" 120 680 basechar 0
LayerCount: 2
Fore
SplineSet
150 673 m 1
 624 673 l 1
 610 610 l 1
 286 610 l 1
 186 176 l 2
 182 159 184 145 192 133 c 0
 200 121 212 115 229 115 c 0
 252 115 279 128 308 154 c 0
 369 210 406 264 418 315 c 0
 425 345 422 367 412 382 c 0
 411 383 402 392 382 412 c 0
 380 416 380 420 381 425 c 0
 383 433 387 440 395 447 c 0
 403 454 412 457 422 457 c 1
 467 416 484 371 472 321 c 0
 458 260 421 198 363 135 c 0
 302 69 246 35 195 35 c 0
 172 35 152 48 137 74 c 0
 122 100 117 128 124 160 c 2
 228 609 l 1
 135 610 l 1
 150 673 l 1
EndSplineSet
EndChar

StartChar: u09a3
Encoding: 79 2467 75
Width: 476
GlyphClass: 2
Flags: HW
AnchorPoint: "Anchor-1" 422 41 basechar 0
AnchorPoint: "Anchor-0" 453 660 basechar 0
LayerCount: 2
Fore
SplineSet
374 68 m 2xb8
 454 414 l 2
 457 429 460 455 461 493 c 0
 463 520 451 543 428 562 c 0
 405 581 380 591 348 591 c 0
 315 591 285 580 258 558 c 0
 224 531 203 498 194 461 c 0
 187 430 189 401 202 377 c 0
 215 353 235 340 263 339 c 1
 270 336 273 330 270 319 c 0
 268 311 264 302 258 295 c 0
 252 287 245 283 238 283 c 0
 174 297 141 336 137 398 c 0
 135 419 138 440 143 461 c 0
 153 506 174 544 207 578 c 0
 251 623 307 646 377 646 c 0xd8
 421 646 460 627 494 588 c 1
 507 645 533 673 571 673 c 2
 641 673 l 1
 626 610 l 1
 557 610 l 1
 432 69 l 2
 428 52 417 44 399 44 c 0
 379 44 370 52 374 68 c 2xb8
EndSplineSet
EndChar

StartChar: u09a4
Encoding: 80 2468 76
Width: 662
GlyphClass: 2
Flags: HW
AnchorPoint: "Anchor-1" 437 40 basechar 0
AnchorPoint: "Anchor-0" 380 673 basechar 0
LayerCount: 2
Fore
SplineSet
549 547 m 0
 587 547 618 537 641 516 c 0
 652 505 662 491 669 475 c 0
 690 432 692 378 677 313 c 0
 672 292 666 271 657 250 c 0
 631 187 597 137 556 99 c 0
 511 58 464 38 413 38 c 0
 400 38 386 39 374 42 c 0
 325 52 287 71 259 99 c 0
 242 116 224 144 203 184 c 0
 153 281 134 394 149 523 c 0
 149 528 150 532 153 536 c 0
 154 538 157 540 159 542 c 0
 167 547 174 549 182 549 c 0
 194 549 201 544 202 534 c 0
 202 453 203 397 207 366 c 0
 214 311 231 259 256 211 c 0
 276 174 297 148 317 133 c 0
 331 123 358 111 399 98 c 0
 406 97 414 97 421 97 c 0
 469 97 512 118 549 161 c 0
 581 199 605 248 622 310 c 0
 638 369 638 415 617 447 c 0
 597 477 567 491 527 489 c 0
 525 489 523 489 521 489 c 0
 476 481 449 456 440 416 c 0
 436 397 437 381 444 366 c 1
 439 346 428 336 408 336 c 0
 401 336 396 338 390 342 c 1
 382 367 380 392 386 417 c 0
 395 454 415 485 448 510 c 0
 481 535 515 547 549 547 c 0
150 673 m 1
 831 673 l 1
 816 610 l 1
 135 610 l 1
 150 673 l 1
EndSplineSet
EndChar

StartChar: u09a5
Encoding: 81 2469 77
Width: 521
GlyphClass: 2
Flags: HW
AnchorPoint: "Anchor-1" 461 41 basechar 0
AnchorPoint: "Anchor-0" 500 667 basechar 0
LayerCount: 2
Fore
SplineSet
303 653 m 0xb8
 348 653 379 639 400 611 c 0
 421 583 426 548 416 504 c 0
 408 469 389 432 363 394 c 0
 340 361 302 327 248 292 c 1
 426 117 l 1
 540 610 l 2
 545 631 554 647 570 658 c 0
 583 668 597 673 612 673 c 2
 682 673 l 1
 668 610 l 1
 597 610 l 1x78
 470 60 l 2
 467 47 454 40 430 40 c 0
 421 40 414 42 409 46 c 2
 177 274 l 1
 175 283 175 292 177 299 c 0
 180 310 185 318 194 321 c 0
 230 335 265 360 300 397 c 0
 335 434 355 469 363 504 c 0
 373 547 358 576 321 592 c 1
 309 594 299 595 290 595 c 0
 234 595 196 560 177 489 c 1
 171 475 161 468 143 468 c 0
 131 468 125 473 123 482 c 1
 137 558 168 609 217 634 c 0
 241 647 270 653 303 653 c 0xb8
EndSplineSet
EndChar

StartChar: u09a6
Encoding: 82 2470 78
Width: 405
GlyphClass: 2
Flags: HW
AnchorPoint: "Anchor-1" 353 37 basechar 0
AnchorPoint: "Anchor-0" 67 667 basechar 0
LayerCount: 2
Fore
SplineSet
571 673 m 1
 557 610 l 1
 236 610 l 1
 182 375 l 1
 205 398 243 427 296 460 c 0
 358 499 402 517 428 514 c 0
 429 514 431 513 432 513 c 0
 451 511 459 499 453 478 c 1
 403 389 370 316 357 258 c 0
 343 196 343 133 360 69 c 1
 360 61 357 54 351 49 c 2
 343 44 l 1
 340 43 l 2
 331 40 320 39 307 40 c 1
 287 108 285 178 302 251 c 0
 315 306 341 370 378 443 c 1
 302 414 227 364 156 294 c 1
 147 289 139 287 130 287 c 0
 112 287 106 295 109 310 c 2
 178 610 l 1
 135 610 l 1
 150 673 l 1
 571 673 l 1
EndSplineSet
EndChar

StartChar: u09a7
Encoding: 83 2471 79
Width: 440
GlyphClass: 2
Flags: HW
AnchorPoint: "Anchor-1" 368 34 basechar 0
AnchorPoint: "Anchor-0" 407 653 basechar 0
LayerCount: 2
Fore
SplineSet
349 121 m 1
 436 495 l 1
 173 344 l 1
 349 121 l 1
605 673 m 1
 590 610 l 1
 520 610 l 1
 391 53 l 2
 388 42 375 37 352 37 c 0
 343 37 336 39 331 42 c 2
 109 328 l 2
 106 333 105 339 107 347 c 0
 110 359 116 370 127 380 c 1
 223 432 l 1
 180 455 155 489 150 534 c 0
 151 542 151 550 153 558 c 0
 162 597 184 626 218 646 c 0
 247 663 283 671 323 671 c 1
 333 668 337 659 334 646 c 0
 330 629 322 618 310 612 c 1
 250 612 216 595 208 562 c 0
 206 555 206 546 207 538 c 0
 219 499 247 480 289 480 c 0
 296 480 303 481 310 482 c 1
 451 564 l 1
 462 610 l 2
 472 652 496 673 534 673 c 2
 605 673 l 1
EndSplineSet
EndChar

StartChar: u09a8
Encoding: 84 2472 80
Width: 482
GlyphClass: 2
Flags: HW
AnchorPoint: "Anchor-1" 421 28 basechar 0
AnchorPoint: "Anchor-0" 400 673 basechar 0
LayerCount: 2
Fore
SplineSet
645 673 m 1
 630 610 l 1
 559 610 l 1
 430 51 l 2
 427 39 417 33 397 33 c 0
 377 33 370 39 373 51 c 2
 422 263 l 1
 422 301 417 331 404 352 c 0
 386 381 352 395 305 395 c 0
 271 395 239 385 212 364 c 0
 184 342 164 312 156 276 c 0
 148 241 149 215 159 198 c 0
 166 187 179 175 197 162 c 0
 200 157 200 152 199 146 c 0
 197 137 193 130 185 123 c 0
 177 117 169 114 163 115 c 0
 162 115 163 115 162 115 c 0
 128 131 106 158 99 195 c 0
 94 222 95 249 101 277 c 0
 111 321 134 359 168 392 c 0
 210 433 262 453 324 453 c 0
 379 453 421 432 451 390 c 1
 502 610 l 1
 135 610 l 1
 150 673 l 1
 645 673 l 1
EndSplineSet
EndChar

StartChar: u09aa
Encoding: 85 2474 81
Width: 600
GlyphClass: 2
Flags: HW
AnchorPoint: "Anchor-1" 546 35 basechar 0
AnchorPoint: "Anchor-0" 320 673 basechar 0
LayerCount: 2
Fore
SplineSet
499 542 m 1xa0
 467 585 430 606 388 606 c 0
 346 606 300 585 249 542 c 1
 330 398 l 1
 499 542 l 1xa0
594 502 m 1
 618 609 l 2
 622 626 631 641 645 654 c 0
 659 667 675 673 691 673 c 2
 761 673 l 1
 747 610 l 1
 676 610 l 1x60
 548 55 l 2
 545 42 534 35 515 35 c 0
 495 35 487 41 490 54 c 2
 553 328 l 2
 560 359 560 390 553 422 c 0
 550 437 541 463 526 500 c 1
 261 276 l 1
 253 274 246 275 241 277 c 0
 238 278 237 279 235 281 c 0
 229 288 226 296 228 306 c 0
 229 310 231 314 233 317 c 2
 279 358 l 1
 206 493 l 1
 167 443 l 1
 162 440 158 439 153 439 c 0
 145 439 137 442 132 449 c 0
 127 456 125 463 126 472 c 1
 193 575 274 638 367 661 c 0
 382 664 395 666 409 666 c 0
 491 666 553 611 594 502 c 1
EndSplineSet
EndChar

StartChar: u09ab
Encoding: 86 2475 82
Width: 635
GlyphClass: 2
Flags: HW
AnchorPoint: "Anchor-1" 395 31 basechar 0
AnchorPoint: "Anchor-0" 293 667 basechar 0
LayerCount: 2
Fore
SplineSet
801 673 m 1
 786 610 l 1
 230 610 l 1
 318 463 l 1
 320 449 319 437 313 429 c 0
 310 424 306 421 302 418 c 2
 184 321 l 1
 364 121 l 1
 455 514 l 2
 464 551 477 570 497 570 c 0
 601 570 662 538 679 474 c 0
 686 446 686 417 679 387 c 0
 670 348 652 313 624 282 c 0
 597 252 569 236 542 233 c 1
 527 235 521 246 526 267 c 0
 529 280 536 288 547 292 c 1
 556 291 565 294 575 302 c 0
 581 307 587 312 592 319 c 0
 608 339 619 362 625 389 c 0
 630 411 630 431 625 450 c 0
 614 493 576 515 512 515 c 1
 408 62 l 2
 406 51 401 44 393 40 c 0
 389 38 384 37 377 37 c 0
 364 37 354 41 347 49 c 2
 122 297 l 1
 120 305 119 312 121 319 c 0
 123 328 129 338 139 347 c 2
 257 443 l 1
 156 610 l 1
 133 610 l 1
 147 673 l 1
 801 673 l 1
EndSplineSet
EndChar

StartChar: u09ac
Encoding: 87 2476 83
Width: 444
GlyphClass: 2
Flags: HW
AnchorPoint: "Anchor-1" 374 35 basechar 0
AnchorPoint: "Anchor-0" 327 667 basechar 0
LayerCount: 2
Fore
SplineSet
354 128 m 1
 440 500 l 1
 177 347 l 1
 354 128 l 1
150 673 m 1
 608 673 l 1
 594 610 l 1
 523 610 l 1
 397 62 l 1
 390 47 377 39 359 39 c 0
 349 39 341 42 336 49 c 2
 112 332 l 2
 108 337 107 343 109 352 c 0
 112 363 117 371 124 375 c 2
 455 564 l 1
 466 610 l 1
 135 610 l 1
 150 673 l 1
EndSplineSet
EndChar

StartChar: u09ad
Encoding: 88 2477 84
Width: 725
GlyphClass: 2
Flags: HW
AnchorPoint: "Anchor-1" 471 21 basechar 0
AnchorPoint: "Anchor-0" 360 667 basechar 0
LayerCount: 2
Fore
SplineSet
210 577 m 1
 202 492 207 408 228 326 c 0
 243 264 266 213 297 172 c 0
 338 118 387 91 446 91 c 0
 511 91 571 119 625 175 c 0
 657 209 677 244 686 283 c 0
 695 322 689 358 669 392 c 1
 610 335 561 301 520 292 c 0
 508 289 496 288 485 288 c 0
 449 288 422 302 405 329 c 0
 388 356 385 390 394 430 c 0
 398 447 404 465 414 482 c 1
 422 489 430 493 438 493 c 0
 450 493 459 485 465 470 c 1
 459 455 454 442 451 429 c 0
 438 372 452 344 497 344 c 0
 504 344 511 345 518 347 c 0
 546 354 571 368 595 390 c 0
 606 400 623 420 649 452 c 0
 656 462 667 468 682 468 c 0
 689 468 694 466 698 461 c 0
 742 405 756 345 742 283 c 0
 733 246 714 210 686 173 c 0
 610 74 526 24 435 24 c 0
 330 24 253 89 200 220 c 0
 177 277 162 332 156 382 c 0
 150 430 151 489 158 562 c 1
 165 576 174 583 188 583 c 0
 195 583 203 581 210 577 c 1
150 673 m 1
 899 673 l 1
 884 610 l 1
 135 610 l 1
 150 673 l 1
EndSplineSet
EndChar

StartChar: u09ae
Encoding: 89 2478 85
Width: 524
GlyphClass: 2
Flags: HW
AnchorPoint: "Anchor-1" 464 34 basechar 0
AnchorPoint: "Anchor-0" 273 667 basechar 0
LayerCount: 2
Fore
SplineSet
544 610 m 1
 278 610 l 1
 227 547 l 1
 260 542 286 529 304 506 c 0
 322 484 328 454 322 418 c 1
 345 419 367 416 387 409 c 0
 397 405 406 401 415 395 c 0
 435 381 457 357 478 324 c 1
 544 610 l 1
150 673 m 1
 687 673 l 1
 672 610 l 1
 601 610 l 1
 474 57 l 2
 471 45 462 39 443 39 c 0
 423 39 413 45 416 58 c 2
 426 102 l 2
 437 150 443 188 443 215 c 0
 443 255 432 287 410 310 c 1
 386 343 354 359 314 359 c 0
 263 359 220 333 186 283 c 1
 179 269 174 255 171 241 c 0
 163 208 166 181 179 159 c 0
 193 135 215 123 248 123 c 1
 255 119 258 111 255 99 c 0
 250 78 241 67 227 67 c 0
 153 74 115 117 112 195 c 1
 113 213 116 228 119 243 c 0
 135 312 183 366 264 407 c 1
 270 428 268 446 260 459 c 2
 253 469 l 2
 250 472 247 474 243 476 c 0
 227 486 204 491 177 489 c 0
 174 489 172 489 169 489 c 0
 151 493 145 503 149 522 c 0
 150 526 150 530 152 534 c 2
 213 610 l 1
 135 610 l 1
 150 673 l 1
EndSplineSet
EndChar

StartChar: u09af
Encoding: 90 2479 86
Width: 455
GlyphClass: 2
Flags: HW
AnchorPoint: "Anchor-1" 385 29 basechar 0
AnchorPoint: "Anchor-0" 347 687 basechar 0
LayerCount: 2
Fore
SplineSet
150 673 m 1
 617 673 l 1
 602 610 l 1
 532 610 l 1
 405 60 l 2
 401 43 387 34 366 34 c 0
 357 34 348 37 343 42 c 2
 94 278 l 2
 89 284 87 291 89 299 c 0
 91 306 95 314 101 321 c 1
 254 439 l 1
 160 610 l 1
 135 610 l 1
 150 673 l 1
231 610 m 1
 316 452 l 1
 318 440 317 431 312 423 c 0
 310 419 307 415 303 412 c 2
 155 302 l 1
 360 115 l 1
 474 610 l 1
 231 610 l 1
EndSplineSet
EndChar

StartChar: u09b0
Encoding: 91 2480 87
Width: 446
GlyphClass: 2
Flags: HW
AnchorPoint: "Anchor-1" 378 34 basechar 0
AnchorPoint: "Anchor-0" 320 680 basechar 0
LayerCount: 2
Fore
SplineSet
354 128 m 1
 440 500 l 1
 177 347 l 1
 354 128 l 1
150 673 m 1
 608 673 l 1
 594 610 l 1
 523 610 l 1
 397 62 l 1
 390 47 377 39 359 39 c 0
 349 39 341 42 336 49 c 2
 112 332 l 2
 108 337 107 343 109 352 c 0
 112 363 117 371 124 375 c 2
 455 564 l 1
 466 610 l 1
 135 610 l 1
 150 673 l 1
176 82 m 1
 250 82 l 1
 233 9 l 1
 159 9 l 1
 176 82 l 1
EndSplineSet
EndChar

StartChar: u09b2
Encoding: 92 2482 88
Width: 634
GlyphClass: 2
Flags: HW
AnchorPoint: "Anchor-1" 584 34 basechar 0
AnchorPoint: "Anchor-0" 325 670 basechar 0
LayerCount: 2
Fore
SplineSet
802 673 m 1xdc
 787 610 l 1
 717 610 l 1
 590 62 l 2
 585 41 573 31 553 31 c 0
 534 31 527 40 532 60 c 2
 599 351 l 1
 580 426 551 463 514 463 c 0xdc
 485 463 455 439 424 390 c 1
 418 384 409 382 397 382 c 0
 385 382 377 385 373 392 c 1
 368 443 341 469 294 469 c 0
 249 469 212 447 182 401 c 0
 173 385 167 370 164 355 c 0
 156 322 161 294 178 273 c 0
 195 252 220 241 252 241 c 0
 258 241 263 241 269 242 c 1
 280 237 284 229 281 218 c 0
 278 204 270 193 256 186 c 1
 249 185 243 185 236 185 c 0
 189 185 154 201 129 235 c 0
 105 269 98 309 109 355 c 0
 116 386 132 417 155 446 c 0
 199 501 250 528 308 528 c 0xbc
 358 528 393 506 414 461 c 1
 455 501 491 521 524 521 c 0
 559 521 592 498 622 452 c 1
 659 610 l 1
 135 610 l 1
 150 673 l 1
 802 673 l 1xdc
EndSplineSet
EndChar

StartChar: u09b6
Encoding: 93 2486 89
Width: 583
GlyphClass: 2
Flags: HW
AnchorPoint: "Anchor-1" 538 37 basechar 0
AnchorPoint: "Anchor-0" 350 670 basechar 0
LayerCount: 2
Fore
SplineSet
664 610 m 1
 537 60 l 2
 534 47 524 40 506 40 c 0
 485 40 476 47 479 60 c 2
 584 513 l 2
 589 536 581 558 559 579 c 0
 535 601 504 612 467 612 c 0
 442 612 417 604 394 588 c 0
 366 569 351 546 345 516 c 2
 344 513 l 1
 337 473 344 445 366 427 c 0
 383 413 415 403 460 398 c 1
 464 395 463 390 461 381 c 0
 457 363 450 350 440 342 c 1
 393 347 359 355 340 367 c 0
 318 381 303 407 292 445 c 1
 260 401 229 372 197 357 c 0
 175 348 141 342 94 339 c 1
 88 345 86 354 89 366 c 0
 92 377 97 387 105 395 c 1
 139 397 169 406 198 423 c 0
 229 442 253 465 266 494 c 0
 273 509 275 524 272 539 c 0
 271 546 268 554 264 562 c 0
 253 585 236 599 214 605 c 0
 201 608 177 610 141 610 c 0
 132 610 129 621 134 643 c 0
 139 663 147 673 156 673 c 0
 205 673 237 670 252 664 c 0
 283 653 307 624 321 577 c 1
 348 610 374 633 397 646 c 0
 418 659 445 668 481 673 c 0
 499 674 517 672 534 667 c 0
 543 664 551 660 560 656 c 0
 587 643 603 628 606 609 c 1
 609 623 618 637 632 651 c 0
 646 665 662 673 678 673 c 2
 749 673 l 1
 734 610 l 1
 664 610 l 1
EndSplineSet
EndChar

StartChar: u09b7
Encoding: 94 2487 90
Width: 455
GlyphClass: 2
Flags: HW
AnchorPoint: "Anchor-1" 383 36 basechar 0
AnchorPoint: "Anchor-0" 230 680 basechar 0
LayerCount: 2
Fore
SplineSet
602 610 m 1
 532 610 l 1
 405 60 l 2
 401 43 387 34 366 34 c 0
 357 34 348 37 343 42 c 2
 94 278 l 2
 89 284 87 291 89 299 c 0
 91 306 95 314 101 321 c 1
 254 439 l 1
 160 610 l 1
 135 610 l 1
 150 673 l 1
 617 673 l 1
 602 610 l 1
424 392 m 1
 474 610 l 1
 231 610 l 1
 315 453 l 1
 424 392 l 1
360 115 m 1
 409 329 l 1
 282 397 l 1
 155 302 l 1
 360 115 l 1
EndSplineSet
EndChar

StartChar: u09b8
Encoding: 95 2488 91
Width: 604
GlyphClass: 2
Flags: HW
AnchorPoint: "Anchor-1" 563 27 basechar 0
AnchorPoint: "Anchor-0" 365 670 basechar 0
LayerCount: 2
Fore
SplineSet
628 610 m 1
 344 610 l 1
 290 542 l 1
 325 535 352 522 371 503 c 0
 387 488 402 463 416 429 c 1
 438 442 457 449 475 449 c 0
 507 449 538 421 571 364 c 1
 628 610 l 1
771 673 m 1
 757 610 l 1
 686 610 l 1
 556 49 l 2
 553 36 544 29 526 29 c 0
 505 29 496 36 499 49 c 2
 514 117 l 2
 531 192 533 258 518 315 c 0
 505 367 486 393 460 393 c 0
 446 393 434 384 423 366 c 1
 387 296 348 239 305 193 c 0
 258 144 216 120 178 120 c 0
 134 120 103 153 82 220 c 0
 81 225 82 229 83 233 c 0
 87 250 96 258 115 258 c 0
 122 258 129 256 135 252 c 1
 149 204 168 180 194 180 c 0
 233 180 290 243 367 369 c 1
 356 413 342 443 325 460 c 0
 306 478 273 488 229 489 c 0
 217 488 210 491 208 499 c 0
 207 503 206 508 208 515 c 0
 210 522 213 528 218 534 c 2
 274 610 l 1
 135 610 l 1
 150 673 l 1
 771 673 l 1
EndSplineSet
EndChar

StartChar: u09b9
Encoding: 96 2489 92
Width: 413
GlyphClass: 2
Flags: HW
AnchorPoint: "Anchor-1" 512 -51 basechar 0
AnchorPoint: "Anchor-0" 180 670 basechar 0
LayerCount: 2
Fore
SplineSet
579 673 m 1
 564 610 l 1
 312 610 l 2
 311 610 311 609 314 608 c 0
 316 607 317 606 320 605 c 0
 330 600 337 596 339 592 c 1
 346 594 353 594 360 594 c 0
 398 594 429 582 453 558 c 0
 484 526 491 478 477 416 c 0
 474 405 471 393 468 382 c 0
 423 286 329 229 188 211 c 1
 465 -6 l 1
 465 -10 465 -14 464 -18 c 0
 460 -36 448 -45 431 -44 c 2
 428 -44 l 1
 79 227 l 1
 75 235 75 243 77 252 c 0
 81 271 91 280 107 280 c 0
 110 280 113 279 116 278 c 0
 140 274 166 272 188 272 c 0
 291 272 367 310 415 387 c 1
 419 397 422 407 425 418 c 0
 432 447 430 472 420 494 c 0
 408 522 382 536 343 536 c 0
 271 536 224 496 202 416 c 1
 194 407 185 402 173 402 c 0
 160 402 153 409 152 423 c 1
 159 454 174 484 197 513 c 0
 220 542 245 563 274 574 c 1
 241 610 l 1
 135 610 l 1
 150 673 l 1
 579 673 l 1
EndSplineSet
EndChar

StartChar: u09bc
Encoding: 97 2492 93
Width: 6
GlyphClass: 2
Flags: HW
LayerCount: 2
Fore
SplineSet
-169 -5 m 1
 -95 -5 l 1
 -112 -78 l 1
 -185 -78 l 1
 -169 -5 l 1
EndSplineSet
EndChar

StartChar: avagraha
Encoding: 98 2493 94
Width: 413
GlyphClass: 2
Flags: HW
LayerCount: 2
Fore
SplineSet
152 673 m 5
 195 683 235 677 271 655 c 4
 289 644 307 629 323 610 c 6
 340 592 l 5
 347 594 354 594 361 594 c 4
 399 594 431 582 454 558 c 4
 485 526 493 478 479 416 c 4
 476 405 473 393 470 382 c 4
 425 286 331 229 190 211 c 5
 466 -6 l 5
 466 -10 467 -14 466 -18 c 4
 462 -36 450 -45 433 -44 c 6
 430 -44 l 5
 81 227 l 5
 77 235 77 243 79 252 c 4
 83 271 92 280 108 280 c 4
 111 280 115 279 118 278 c 4
 142 274 166 272 189 272 c 4
 292 272 369 310 417 387 c 5
 421 397 424 407 427 418 c 4
 434 447 432 472 422 494 c 4
 410 522 384 536 345 536 c 4
 273 536 226 496 204 416 c 5
 196 407 187 402 175 402 c 4
 162 402 155 409 154 423 c 5
 161 454 175 484 198 513 c 4
 221 542 247 563 276 574 c 5
 246 611 210 626 164 617 c 4
 155 615 146 613 137 610 c 5
 152 673 l 5
EndSplineSet
EndChar

StartChar: u09be
Encoding: 99 2494 95
Width: 228
GlyphClass: 2
Flags: HW
LayerCount: 2
Fore
SplineSet
381 673 m 1
 367 610 l 1
 292 610 l 1
 165 62 l 2
 163 52 152 47 132 47 c 0
 113 47 105 53 108 64 c 2
 234 610 l 1
 135 610 l 1
 150 673 l 1
 381 673 l 1
EndSplineSet
EndChar

StartChar: u09bf
Encoding: 100 2495 96
Width: 223
GlyphClass: 2
Flags: HW
LayerCount: 2
Fore
SplineSet
775 786 m 0xe0
 775 782 775 778 774 775 c 0
 770 757 759 748 740 748 c 0
 735 748 731 749 727 751 c 1
 670 848 597 897 506 897 c 0
 477 897 445 893 410 885 c 1
 335 857 291 818 280 769 c 0xe0
 273 738 279 706 297 673 c 1
 381 673 l 1
 367 610 l 1
 292 610 l 1
 166 66 l 2
 163 54 152 48 132 48 c 0
 113 48 106 55 109 68 c 2
 234 610 l 1xd0
 135 610 l 1
 150 673 l 1
 235 673 l 1
 216 700 211 731 219 766 c 0
 232 823 271 871 333 908 c 1
 396 939 456 954 516 954 c 0
 634 954 721 898 775 786 c 0xe0
EndSplineSet
Substitution2: "Single Substitution Lookup 28" u09bf.salt
EndChar

StartChar: u09c0
Encoding: 101 2496 97
Width: 223
GlyphClass: 2
Flags: HW
LayerCount: 2
Fore
SplineSet
131 925 m 0xfc
 261 895 317 811 301 673 c 1xfc
 390 673 l 1
 375 610 l 1
 300 610 l 1
 173 62 l 2
 168 41 157 30 137 30 c 0
 117 30 111 41 116 62 c 2
 242 610 l 1xfa
 140 610 l 1
 154 673 l 1
 247 673 l 1
 249 782 201 848 106 871 c 0
 82 877 57 880 30 880 c 0
 -30 880 -84 866 -132 837 c 1
 -138 830 -142 824 -143 818 c 0
 -146 803 -122 795 -66 794 c 0
 6 793 56 786 84 773 c 0
 134 750 150 705 134 637 c 1
 125 622 113 615 98 615 c 0
 89 615 82 620 79 630 c 1
 83 666 83 689 80 699 c 0
 74 714 58 724 30 729 c 0
 14 732 -24 734 -80 735 c 0
 -126 736 -157 741 -173 751 c 0
 -196 764 -202 788 -192 824 c 0
 -192 826 -191 827 -191 828 c 0
 -180 864 -149 892 -99 911 c 0
 -59 926 -12 934 43 934 c 0
 76 934 105 931 131 925 c 0xfc
EndSplineSet
Substitution2: "Single Substitution lookup 29" u09c0.salt
EndChar

StartChar: u09c1
Encoding: 102 2497 98
Width: 11
GlyphClass: 2
Flags: HW
AnchorPoint: "Anchor-1" -100 65 mark 0
LayerCount: 2
Fore
SplineSet
-215 -52 m 0
 -220 -74 -210 -85 -185 -85 c 0
 -176 -85 -164 -79 -150 -67 c 0
 -136 -55 -127 -43 -119 -30 c 1
 -137 -22 -153 -17 -168 -17 c 0
 -194 -17 -210 -29 -215 -52 c 0
-262 -93 m 0
 -269 -81 -270 -68 -267 -55 c 0
 -263 -38 -253 -22 -236 -7 c 0
 -214 13 -191 23 -170 23 c 0
 -151 23 -129 19 -102 11 c 1
 -100 16 -98 26 -98 39 c 0
 -98 46 -98 53 -99 61 c 1
 -50 61 l 1
 -44 40 -45 17 -51 -6 c 0
 -51 -8 -52 -9 -52 -11 c 2
 50 -75 l 2
 52 -77 53 -80 52 -85 c 0
 50 -92 46 -99 40 -106 c 0
 34 -112 29 -115 25 -114 c 0
 24 -114 24 -113 23 -113 c 2
 -74 -54 l 1
 -87 -75 -106 -92 -129 -105 c 0
 -152 -118 -177 -124 -200 -124 c 0
 -232 -124 -251 -114 -262 -93 c 0
EndSplineSet
EndChar

StartChar: u09c2
Encoding: 103 2498 99
Width: 11
GlyphClass: 2
Flags: HW
AnchorPoint: "Anchor-1" -95 55 mark 0
LayerCount: 2
Fore
SplineSet
-138 35 m 0xb0
 -125 39 -112 39 -100 35 c 1xb0
 -99 44 -99 53 -100 61 c 1
 -51 61 l 1
 -45 49 -44 36 -46 23 c 0
 -48 16 -51 9 -57 2 c 0
 -61 -2 -65 -5 -70 -8 c 0
 -83 -17 -93 -20 -100 -19 c 0xd0
 -110 -16 -120 -14 -128 -14 c 0
 -149 -14 -166 -23 -178 -42 c 1
 -182 -62 -173 -72 -153 -72 c 0
 -135 -72 -115 -65 -93 -53 c 0
 -84 -48 -77 -46 -72 -48 c 0
 -69 -49 -67 -50 -66 -53 c 2
 52 -154 l 2
 53 -158 53 -161 52 -165 c 0
 50 -172 46 -178 39 -184 c 0
 32 -190 26 -193 19 -193 c 1
 -90 -102 l 1
 -116 -114 -140 -120 -163 -120 c 0
 -201 -120 -223 -104 -227 -70 c 0
 -227 -62 -226 -54 -224 -46 c 0
 -215 -6 -187 21 -138 35 c 0xb0
EndSplineSet
EndChar

StartChar: u09c3
Encoding: 104 2499 100
Width: 8
GlyphClass: 2
Flags: HW
AnchorPoint: "Anchor-1" -90 50 mark 0
LayerCount: 2
Fore
SplineSet
-71 61 m 1
 -62 63 -56 61 -53 56 c 0
 -50 51 -48 44 -50 37 c 0
 -51 31 -54 27 -59 23 c 2
 -162 -33 l 1
 -49 -158 l 2
 -47 -162 -46 -166 -47 -171 c 0
 -50 -186 -59 -193 -75 -193 c 0
 -78 -193 -79 -193 -82 -192 c 2
 -215 -50 l 2
 -218 -45 -221 -39 -219 -32 c 0
 -217 -24 -212 -17 -205 -11 c 1
 -71 61 l 1
EndSplineSet
EndChar

StartChar: u09c4
Encoding: 105 2500 101
Width: 6
GlyphClass: 2
Flags: HW
LayerCount: 2
Fore
SplineSet
-223 -24 m 1
 -224 -26 l 2
 -225 -32 -228 -37 -233 -41 c 1
 -126 -158 l 2
 -124 -162 -123 -166 -124 -171 c 0
 -127 -186 -137 -193 -153 -193 c 0
 -156 -193 -157 -193 -160 -192 c 2
 -278 -65 l 1
 -336 -97 l 1
 -223 -222 l 2
 -221 -226 -220 -229 -221 -234 c 0
 -224 -249 -233 -256 -249 -256 c 0
 -252 -256 -253 -256 -256 -255 c 2
 -389 -113 l 2
 -392 -108 -395 -103 -393 -96 c 0
 -391 -88 -386 -81 -379 -75 c 1
 -295 -29 l 1
 -292 -22 -289 -16 -283 -11 c 2
 -149 61 l 1
 -140 63 -134 61 -131 56 c 0
 -128 51 -125 44 -127 37 c 0
 -128 31 -131 27 -136 23 c 2
 -223 -24 l 1
EndSplineSet
EndChar

StartChar: u09c7
Encoding: 106 2503 102
Width: 294
GlyphClass: 2
Flags: HW
LayerCount: 2
Fore
SplineSet
449 668 m 1
 437 614 l 1
 402 608 371 600 344 592 c 0
 308 580 273 558 238 524 c 0
 186 474 151 405 131 320 c 0
 118 265 118 218 129 179 c 0
 142 135 170 107 212 95 c 0
 218 93 226 92 235 93 c 2
 244 94 l 2
 261 97 272 99 277 99 c 0
 297 99 303 90 299 71 c 0
 297 62 293 55 286 50 c 1
 270 43 260 40 255 39 c 0
 241 36 228 35 216 35 c 0
 158 35 115 63 89 120 c 0
 65 173 60 234 73 303 c 0
 84 362 106 419 139 473 c 0
 155 500 176 527 198 553 c 1
 230 585 264 604 302 611 c 1
 135 611 l 1
 148 668 l 1
 449 668 l 1
EndSplineSet
Substitution2: "'init' Initial Forms in Bengali lookup 0 subtable" u09c7.init
EndChar

StartChar: u09c8
Encoding: 107 2504 103
Width: 281
GlyphClass: 2
Flags: HW
LayerCount: 2
Fore
SplineSet
436 673 m 1
 422 610 l 1
 371 610 322 592 277 557 c 0
 231 521 194 470 165 403 c 0
 152 375 142 346 135 316 c 0
 123 263 121 217 130 178 c 0
 140 133 163 104 198 89 c 0
 210 86 223 85 233 86 c 0
 239 87 245 89 250 91 c 0
 256 92 261 93 266 93 c 0
 285 93 292 84 288 66 c 0
 286 59 283 53 278 46 c 1
 254 31 234 24 219 27 c 1
 173 26 138 39 112 67 c 0
 99 81 90 99 82 121 c 0
 62 176 62 244 80 322 c 0
 86 350 95 376 105 401 c 0
 155 521 213 591 281 611 c 1
 134 611 l 1
 149 673 l 1
 327 673 l 1
 321 698 301 715 270 725 c 0
 254 730 222 734 171 735 c 0
 124 736 90 742 67 753 c 0
 34 770 22 801 33 847 c 0
 35 857 44 886 62 935 c 1
 71 940 81 943 89 943 c 0
 102 943 112 938 118 927 c 1
 103 893 93 869 90 855 c 0
 82 820 99 801 143 798 c 0
 236 793 291 787 309 781 c 0
 357 766 385 730 393 673 c 1
 436 673 l 1
EndSplineSet
Substitution2: "'init' Initial Forms in Bengali lookup 0 subtable" u09c8.init
EndChar

StartChar: u09cb
Encoding: 108 2507 104
Width: 659
GlyphClass: 2
Flags: HW
LayerCount: 2
Fore
SplineSet
447 668 m 1
 435 614 l 1
 400 608 369 600 342 592 c 0
 306 580 272 558 237 524 c 0
 185 474 150 405 130 320 c 0
 117 265 116 218 127 179 c 0
 140 135 168 107 210 95 c 0
 216 93 225 92 234 93 c 2
 242 94 l 2
 259 97 270 99 275 99 c 0
 295 99 301 90 297 71 c 0
 295 62 291 55 284 50 c 1
 268 43 258 40 253 39 c 0
 239 36 226 35 214 35 c 0
 156 35 113 63 87 120 c 0
 63 173 58 234 71 303 c 0
 82 362 105 419 138 473 c 0
 154 500 174 527 196 553 c 1
 228 585 262 604 300 611 c 1
 134 611 l 1
 147 668 l 1
 447 668 l 1
859 673 m 1
 844 610 l 1
 770 610 l 1
 643 62 l 2
 641 52 630 47 610 47 c 0
 591 47 583 53 586 64 c 2
 712 610 l 1
 613 610 l 1
 628 673 l 1
 859 673 l 1
EndSplineSet
EndChar

StartChar: u09cc
Encoding: 109 2508 105
Width: 689
GlyphClass: 2
Flags: HW
LayerCount: 2
Fore
SplineSet
447 668 m 1xf0
 435 614 l 1
 400 608 369 600 342 592 c 0
 306 580 272 558 237 524 c 0
 185 474 150 405 130 320 c 0
 117 265 116 218 127 179 c 0
 140 135 168 107 210 95 c 0
 216 93 225 92 234 93 c 2
 242 94 l 2
 259 97 270 99 275 99 c 0
 295 99 301 90 297 71 c 0
 295 62 291 55 284 50 c 1
 268 43 258 40 253 39 c 0
 239 36 226 35 214 35 c 0
 156 35 113 63 87 120 c 0
 63 173 58 234 71 303 c 0
 82 362 105 419 138 473 c 0
 154 500 174 527 196 553 c 1
 228 585 262 604 300 611 c 1
 134 611 l 1
 147 668 l 1
 447 668 l 1xf0
447 894 m 1
 443 886 441 878 439 871 c 0
 430 832 456 809 518 803 c 2
 695 789 l 1
 758 774 785 735 777 673 c 1xf8
 854 673 l 1
 839 610 l 1
 770 610 l 1
 646 76 l 2
 641 54 630 43 611 43 c 0
 591 43 583 54 588 75 c 2
 712 610 l 1xf4
 613 610 l 1
 628 673 l 1
 723 673 l 1xf8
 727 709 696 731 632 738 c 2
 454 758 l 1
 394 774 371 811 384 868 c 0
 386 878 389 889 394 901 c 1
 404 910 414 915 423 915 c 0
 435 915 444 908 447 894 c 1
EndSplineSet
EndChar

StartChar: u09cd
Encoding: 110 2509 106
Width: 8
GlyphClass: 2
Flags: HW
AnchorPoint: "Anchor-1" -115 15 mark 0
LayerCount: 2
Fore
SplineSet
-62 10 m 1
 64 -111 l 1
 24 -154 l 1
 -103 -28 l 1
 -62 10 l 1
EndSplineSet
EndChar

StartChar: u09ce
Encoding: 111 2510 107
Width: 463
GlyphClass: 2
Flags: HW
LayerCount: 2
Fore
SplineSet
341 671 m 0
 380 670 408 659 426 637 c 0
 442 618 454 588 458 547 c 1
 456 539 452 532 443 527 c 0
 435 521 426 519 418 519 c 0
 411 519 408 521 406 525 c 0
 400 584 376 613 334 613 c 0
 326 613 317 612 307 610 c 0
 252 593 217 558 205 506 c 0
 192 448 221 381 294 305 c 2
 394 202 l 1
 428 159 449 112 457 60 c 1
 456 49 450 42 441 38 c 0
 436 36 431 35 424 35 c 0
 410 35 402 40 400 49 c 0
 392 95 368 139 326 184 c 2
 216 297 l 1
 177 345 154 396 148 452 c 0
 146 471 149 489 153 508 c 0
 164 554 189 593 231 626 c 0
 270 656 306 671 341 671 c 0
EndSplineSet
Colour: ff0000
EndChar

StartChar: u09d7
Encoding: 112 2519 108
Width: 221
GlyphClass: 2
Flags: HW
LayerCount: 2
Fore
SplineSet
-24 894 m 1xe0
 -28 886 -31 878 -33 871 c 0
 -42 832 -15 809 47 803 c 2
 223 789 l 1
 286 774 314 735 306 673 c 1xe0
 383 673 l 1
 369 610 l 1
 298 610 l 1
 175 76 l 2
 170 54 158 43 139 43 c 0
 119 43 112 54 117 75 c 2
 240 610 l 1xd0
 142 610 l 1
 156 673 l 1
 251 673 l 1
 255 709 224 731 160 738 c 2
 -18 758 l 1
 -78 774 -101 811 -88 868 c 0
 -86 878 -83 889 -78 901 c 1
 -68 910 -57 915 -48 915 c 0
 -36 915 -27 908 -24 894 c 1xe0
EndSplineSet
EndChar

StartChar: u09dc
Encoding: 113 2524 109
Width: 656
GlyphClass: 3
Flags: HW
AnchorPoint: "Anchor-1" 463 -92 basechar 0
AnchorPoint: "Anchor-0" 325 675 basechar 0
LayerCount: 2
Fore
SplineSet
836 673 m 1
 822 610 l 1
 466 610 l 1
 407 353 l 1
 409 340 415 333 425 333 c 0
 442 333 467 347 501 376 c 0
 531 402 561 433 593 470 c 0
 598 477 606 480 614 480 c 0
 627 480 638 474 646 463 c 0
 683 414 694 358 680 296 c 0
 673 264 657 229 636 190 c 1
 566 88 491 36 411 35 c 0
 377 35 345 43 315 58 c 0
 300 66 284 75 270 87 c 0
 236 116 211 152 194 195 c 0
 164 271 147 373 142 502 c 0
 143 507 145 511 148 515 c 0
 149 517 152 519 154 521 c 0
 161 527 168 530 176 530 c 0
 185 530 192 526 197 519 c 1
 204 408 216 329 231 281 c 1
 241 229 264 184 298 148 c 0
 333 112 372 94 417 94 c 0
 468 94 516 119 562 168 c 0
 593 201 613 240 623 285 c 0
 635 335 630 377 610 412 c 1
 556 361 523 330 508 319 c 0
 466 288 428 272 394 272 c 1
 354 279 341 316 356 382 c 2
 409 610 l 1
 134 610 l 1
 148 673 l 1
 836 673 l 1
388 -10 m 1
 461 -10 l 1
 444 -83 l 1
 372 -83 l 1
 388 -10 l 1
EndSplineSet
LCarets2: 1 0
Ligature2: "'nukt' Nukta Forms in Bengali lookup 1 subtable" u09a1 u09bc
EndChar

StartChar: u09dd
Encoding: 114 2525 110
Width: 453
GlyphClass: 3
Flags: HW
AnchorPoint: "Anchor-1" 203 -101 basechar 0
AnchorPoint: "Anchor-0" 145 670 basechar 0
LayerCount: 2
Fore
SplineSet
150 673 m 1
 624 673 l 1
 610 610 l 1
 286 610 l 1
 186 176 l 2
 182 159 185 145 193 133 c 0
 201 121 212 115 229 115 c 0
 252 115 279 128 308 154 c 0
 369 210 406 264 418 315 c 0
 425 345 422 367 412 382 c 0
 411 383 402 392 382 412 c 0
 380 416 380 420 381 425 c 0
 383 433 387 440 395 447 c 0
 403 454 412 457 422 457 c 1
 467 416 484 371 472 321 c 0
 458 260 421 198 363 135 c 0
 302 69 246 35 195 35 c 0
 172 35 152 48 137 74 c 0
 122 100 117 128 124 160 c 2
 228 609 l 1
 135 610 l 1
 150 673 l 1
153 -5 m 1
 226 -5 l 1
 209 -78 l 1
 136 -78 l 1
 153 -5 l 1
EndSplineSet
Ligature2: "'nukt' Nukta Forms in Bengali lookup 1 subtable" u09a2 u09bc
EndChar

StartChar: u09df
Encoding: 115 2527 111
Width: 460
GlyphClass: 3
Flags: HW
AnchorPoint: "Anchor-1" 384 31 basechar 0
AnchorPoint: "Anchor-0" 235 675 basechar 0
LayerCount: 2
Fore
SplineSet
150 673 m 1
 617 673 l 1
 602 610 l 1
 532 610 l 1
 405 60 l 2
 401 43 387 34 366 34 c 0
 357 34 348 37 343 42 c 2
 94 278 l 2
 89 284 87 291 89 299 c 0
 91 306 95 314 101 321 c 1
 254 439 l 1
 160 610 l 1
 135 610 l 1
 150 673 l 1
231 610 m 1
 316 452 l 1
 318 440 317 431 312 423 c 0
 310 419 307 415 303 412 c 2
 155 302 l 1
 360 115 l 1
 474 610 l 1
 231 610 l 1
165 117 m 1
 223 117 l 1
 210 59 l 1
 151 59 l 1
 165 117 l 1
EndSplineSet
Ligature2: "'nukt' Nukta Forms in Bengali lookup 1 subtable" u09af u09bc
EndChar

StartChar: u09e0
Encoding: 116 2528 112
Width: 611
GlyphClass: 2
Flags: HW
LayerCount: 2
Fore
SplineSet
405 123 m 1
 490 491 l 1
 231 342 l 1
 405 123 l 1
690 671 m 2
 693 682 703 688 723 688 c 0
 743 688 751 682 748 671 c 2
 630 162 l 2
 626 145 612 137 590 137 c 0
 579 137 572 140 569 146 c 2
 498 272 l 1
 448 57 l 2
 444 39 430 31 405 31 c 0
 397 31 390 33 386 38 c 2
 164 328 l 2
 161 333 160 338 161 344 c 0
 163 354 170 364 180 373 c 1
 420 513 l 1
 390 562 l 1
 351 524 310 505 268 505 c 0
 214 505 178 531 157 583 c 0
 157 586 158 589 159 592 c 0
 163 611 176 620 198 620 c 0
 203 620 207 620 210 619 c 1
 222 581 246 562 280 562 c 0
 314 562 344 581 369 619 c 1
 382 630 396 635 410 632 c 0
 413 632 415 631 418 630 c 2
 475 542 l 1
 507 562 l 1
 532 669 l 2
 535 681 546 687 566 687 c 0
 584 687 593 682 590 671 c 2
 518 362 l 1
 591 240 l 1
 690 671 l 2
333 87 m 1
 342 89 348 87 351 82 c 0
 354 77 356 70 354 63 c 0
 353 57 351 53 346 49 c 2
 242 -7 l 1
 356 -132 l 2
 358 -136 359 -140 358 -145 c 0
 355 -160 345 -167 329 -167 c 0
 326 -167 325 -167 322 -166 c 2
 189 -24 l 2
 186 -19 184 -13 186 -6 c 0
 188 2 192 9 199 15 c 1
 333 87 l 1
EndSplineSet
EndChar

StartChar: u09e1
Encoding: 117 2529 113
Width: 509
GlyphClass: 2
Flags: HW
LayerCount: 2
Fore
SplineSet
414 64 m 1xef80
 424 58 431 51 438 44 c 0
 462 20 471 -8 463 -42 c 0
 454 -79 431 -110 394 -131 c 0
 370 -145 347 -152 323 -154 c 1
 313 -152 308 -149 309 -144 c 0
 309 -142 311 -139 315 -135 c 0
 320 -127 324 -118 329 -110 c 0
 334 -102 336 -95 338 -88 c 0
 340 -80 339 -71 338 -61 c 0
 334 -45 324 -37 306 -37 c 0
 297 -37 288 -39 279 -46 c 0
 267 -55 257 -68 254 -83 c 0
 251 -94 252 -106 255 -118 c 0
 255 -121 254 -123 253 -125 c 0
 252 -126 251 -127 250 -128 c 0
 247 -131 242 -132 237 -132 c 0
 232 -132 230 -131 229 -128 c 0
 226 -113 227 -98 230 -83 c 0
 234 -66 241 -51 252 -39 c 0
 270 -19 290 -9 313 -9 c 0
 326 -9 338 -14 348 -21 c 0
 365 -35 371 -58 364 -89 c 0
 362 -99 356 -110 350 -122 c 1
 371 -116 389 -107 404 -95 c 0
 421 -81 432 -64 436 -45 c 0
 444 -12 434 15 407 36 c 0
 401 41 392 45 380 51 c 1
 355 43 329 37 302 35 c 1
 282 39 272 45 274 53 c 0
 276 60 280 70 289 83 c 0
 315 124 330 154 335 174 c 0
 339 192 341 210 338 231 c 1
 329 265 305 282 269 282 c 0
 249 282 229 275 209 261 c 0
 185 241 168 216 161 184 c 0
 156 161 157 137 161 112 c 0
 160 105 158 100 155 95 c 0
 153 92 151 91 149 89 c 0
 142 83 133 80 125 80 c 0
 114 80 108 84 106 91 c 0
 99 121 100 152 107 184 c 0xdf80
 115 220 131 252 155 278 c 0
 192 319 236 340 284 340 c 0
 312 340 336 332 356 316 c 0
 376 300 388 278 392 251 c 0
 396 224 395 197 389 172 c 0
 384 151 374 127 361 102 c 1
 404 113 444 132 475 159 c 0
 511 189 533 224 542 265 c 0
 545 278 547 291 546 304 c 0
 547 356 526 399 481 434 c 0
 456 452 412 474 349 500 c 0
 282 528 240 547 226 557 c 0
 191 581 179 613 189 652 c 0
 194 670 203 678 219 678 c 0
 238 678 246 671 244 655 c 1
 240 641 243 627 254 615 c 0
 259 609 266 603 276 597 c 0
 286 590 320 575 380 551 c 0
 456 520 511 488 546 453 c 0
 597 402 613 341 597 270 c 0
 592 248 583 225 572 201 c 1
 544 153 505 115 452 84 c 0
 439 77 427 70 414 64 c 1xef80
EndSplineSet
EndChar

StartChar: u09e2
Encoding: 118 2530 114
Width: 5
GlyphClass: 2
Flags: HW
LayerCount: 2
Fore
SplineSet
-134 262 m 0xd8
 -135 256 -134 251 -130 246 c 0
 -128 243 -125 241 -121 239 c 0
 -117 236 -103 230 -79 220 c 0
 -49 208 -27 195 -13 181 c 0
 7 161 14 137 7 108 c 0
 0 76 -20 52 -51 34 c 0
 -70 23 -90 16 -110 14 c 1
 -118 16 -123 19 -122 23 c 0
 -122 23 -116 33 -105 51 c 0
 -101 58 -98 63 -97 69 c 0
 -95 76 -96 84 -97 92 c 0
 -100 106 -109 113 -124 113 c 0
 -131 113 -140 110 -148 104 c 0
 -158 96 -164 87 -167 74 c 0
 -169 65 -169 55 -167 45 c 0
 -167 42 -168 41 -169 39 c 2
 -172 36 l 2
 -175 34 -177 32 -181 32 c 0
 -186 32 -189 33 -189 36 c 0
 -192 48 -191 61 -188 74 c 0xb8
 -185 89 -179 101 -170 111 c 0
 -155 127 -138 136 -118 136 c 0
 -107 136 -98 133 -90 126 c 0
 -75 114 -70 95 -76 69 c 0
 -78 61 -82 51 -87 41 c 1
 -69 46 -55 53 -42 63 c 0
 -28 75 -18 90 -14 106 c 0
 -8 133 -16 156 -39 174 c 0
 -49 181 -65 190 -91 200 c 0
 -118 211 -135 219 -141 223 c 0
 -155 233 -160 245 -155 261 c 0
 -153 268 -151 271 -144 271 c 0
 -137 271 -133 269 -134 262 c 0xd8
EndSplineSet
EndChar

StartChar: u09e3
Encoding: 119 2531 115
Width: 10
GlyphClass: 2
Flags: HW
LayerCount: 2
Fore
SplineSet
-183 71 m 1xebc0
 -183 74 l 2xebc0
 -180 89 -172 101 -163 111 c 0
 -148 127 -132 136 -112 136 c 0
 -101 136 -91 133 -83 126 c 0
 -68 114 -64 95 -70 69 c 0
 -72 61 -75 51 -80 41 c 1
 -62 46 -48 53 -35 63 c 0
 -21 75 -13 90 -9 106 c 0
 -3 133 -10 156 -33 174 c 0
 -43 181 -60 190 -86 200 c 0
 -113 211 -128 219 -134 223 c 0
 -148 233 -155 245 -150 261 c 0
 -148 268 -145 271 -138 271 c 0
 -131 271 -127 269 -128 262 c 0xcdc0
 -129 256 -128 251 -124 246 c 0
 -122 243 -119 241 -115 239 c 0
 -111 236 -98 230 -74 220 c 0
 -44 208 -21 195 -7 181 c 0
 13 161 20 137 13 108 c 0
 6 76 -13 52 -44 34 c 0
 -63 23 -84 16 -104 14 c 1
 -112 16 -116 19 -115 23 c 0
 -115 23 -110 33 -99 51 c 0
 -95 58 -93 63 -92 69 c 0
 -90 76 -89 84 -90 92 c 0
 -93 106 -103 113 -118 113 c 0
 -125 113 -134 110 -142 104 c 0
 -152 96 -158 87 -161 74 c 0xcbc0
 -163 66 -164 57 -162 48 c 1
 -152 31 -149 12 -154 -9 c 0
 -161 -41 -181 -65 -212 -83 c 0
 -231 -94 -252 -101 -272 -103 c 1
 -280 -101 -285 -98 -284 -94 c 0
 -284 -94 -278 -84 -267 -66 c 0
 -263 -59 -260 -54 -259 -48 c 0
 -257 -41 -257 -33 -258 -25 c 0
 -261 -11 -270 -4 -285 -4 c 0
 -292 -4 -302 -7 -310 -13 c 0
 -320 -21 -326 -30 -329 -43 c 0
 -331 -52 -331 -62 -329 -72 c 0
 -329 -75 -330 -77 -331 -79 c 0
 -331 -80 -333 -81 -334 -82 c 0
 -337 -84 -339 -85 -343 -85 c 0
 -348 -85 -350 -84 -350 -81 c 0
 -353 -69 -353 -56 -350 -43 c 0
 -347 -28 -340 -16 -331 -6 c 0
 -316 10 -299 19 -279 19 c 0
 -268 19 -259 16 -251 9 c 0
 -236 -3 -232 -22 -238 -48 c 0
 -240 -56 -244 -66 -249 -76 c 1
 -231 -71 -217 -64 -204 -54 c 0
 -190 -42 -180 -27 -176 -11 c 0
 -172 6 -174 21 -181 34 c 0xddc0
 -182 34 -182 35 -183 36 c 2
 -183 37 l 1
 -188 44 -193 51 -200 57 c 0
 -210 64 -227 73 -253 83 c 0
 -280 94 -297 101 -303 105 c 0
 -317 115 -322 128 -317 144 c 0
 -315 151 -312 154 -305 154 c 0
 -298 154 -294 152 -295 145 c 0
 -296 139 -296 134 -292 129 c 0
 -290 126 -287 124 -283 122 c 0
 -279 119 -265 113 -241 103 c 0
 -216 93 -197 82 -183 71 c 1xebc0
EndSplineSet
EndChar

StartChar: u09e6
Encoding: 120 2534 116
Width: 497
GlyphClass: 2
Flags: HW
LayerCount: 2
Fore
SplineSet
404 531 m 0
 368 530 333 518 298 496 c 0
 263 473 232 442 207 401 c 0
 192 378 182 353 176 328 c 0
 168 295 170 266 179 242 c 0
 194 201 225 181 273 181 c 0
 306 181 339 193 375 215 c 0
 408 236 436 262 460 294 c 0
 483 324 497 355 505 388 c 0
 514 429 511 463 495 489 c 0
 478 518 447 532 404 531 c 0
179 452 m 0
 210 493 246 527 287 552 c 0
 329 577 370 591 409 592 c 0
 448 594 480 586 506 569 c 0
 519 561 531 551 541 538 c 0
 571 500 579 453 566 397 c 0
 563 384 559 371 553 358 c 0
 500 227 416 149 302 123 c 0
 285 119 269 117 254 117 c 0
 200 117 160 138 136 181 c 0
 113 222 108 271 121 329 c 0
 131 372 150 413 179 452 c 0
EndSplineSet
EndChar

StartChar: u09e7
Encoding: 121 2535 117
Width: 422
GlyphClass: 2
Flags: HW
LayerCount: 2
Fore
SplineSet
438 244 m 0
 410 160 375 105 332 78 c 0
 311 65 293 57 276 54 c 0
 259 51 225 49 174 49 c 0
 157 49 134 65 103 98 c 1
 103 105 103 110 104 116 c 0
 109 136 122 145 144 144 c 0
 145 144 146 143 147 143 c 0
 164 114 193 99 239 99 c 0
 262 99 282 104 296 112 c 0
 344 142 379 204 398 296 c 2
 400 302 l 1
 405 366 361 430 270 493 c 1
 234 527 211 552 203 568 c 0
 190 592 188 621 197 655 c 2
 197 657 l 1
 201 668 211 674 225 674 c 0
 241 674 249 668 247 657 c 1
 241 637 244 619 254 601 c 0
 259 592 266 583 274 575 c 2
 357 502 l 2
 435 430 464 352 444 267 c 0
 442 260 441 252 438 244 c 0
EndSplineSet
EndChar

StartChar: u09e8
Encoding: 122 2536 118
Width: 444
GlyphClass: 2
Flags: HW
LayerCount: 2
Fore
SplineSet
228 657 m 1
 238 671 249 678 265 678 c 0
 276 678 283 672 284 661 c 1
 277 650 273 642 272 636 c 0
 270 628 272 622 279 617 c 0
 329 587 364 560 385 538 c 0
 430 490 447 439 436 384 c 0
 430 354 415 328 393 305 c 0
 382 293 369 282 354 273 c 0
 316 249 273 234 223 229 c 1
 447 -16 l 2
 450 -20 451 -25 450 -30 c 0
 446 -46 435 -54 415 -54 c 0
 407 -54 398 -52 391 -46 c 2
 108 259 l 2
 103 267 102 275 104 283 c 0
 108 300 118 308 137 308 c 0
 141 308 145 307 148 306 c 0
 166 293 190 286 221 286 c 0
 257 286 291 295 323 312 c 0
 355 329 374 353 381 383 c 0
 384 397 383 412 380 427 c 1
 363 469 339 502 306 525 c 1
 237 568 l 2
 219 582 213 602 219 628 c 0
 221 637 224 646 228 657 c 1
EndSplineSet
EndChar

StartChar: u09e9
Encoding: 123 2537 119
Width: 598
GlyphClass: 2
Flags: HW
LayerCount: 2
Fore
SplineSet
497 644 m 0
 543 644 581 632 608 609 c 0
 622 597 633 583 642 565 c 0
 665 516 669 451 653 369 c 0
 645 327 627 285 602 244 c 0
 589 223 575 202 557 181 c 0
 498 110 435 74 371 74 c 0
 318 74 271 101 228 156 c 0
 185 210 162 275 156 351 c 0
 151 420 152 482 160 536 c 1
 168 551 178 558 190 558 c 0
 200 558 209 552 214 540 c 1
 208 484 205 442 206 413 c 0
 207 374 214 334 226 293 c 0
 239 252 256 217 279 188 c 0
 309 151 343 133 380 133 c 0
 400 133 420 139 442 150 c 0
 483 171 519 203 548 244 c 0
 574 281 591 320 600 361 c 2
 600 364 l 1
 629 513 591 588 488 588 c 2
 485 588 l 1
 438 580 409 548 396 493 c 0
 392 477 390 459 389 439 c 1
 385 422 373 414 353 414 c 0
 342 414 336 419 335 429 c 0
 334 448 337 467 342 488 c 0
 352 530 369 565 396 595 c 0
 426 627 461 643 497 644 c 0
EndSplineSet
EndChar

StartChar: u09ea
Encoding: 124 2538 120
Width: 441
GlyphClass: 2
Flags: HW
LayerCount: 2
Fore
SplineSet
314 335 m 0xf4
 220 328 164 287 147 213 c 0
 139 180 145 154 162 136 c 0
 179 117 202 108 233 108 c 0
 272 108 308 121 339 147 c 0
 370 173 389 203 397 238 c 0
 404 267 401 290 387 309 c 0
 373 328 349 336 318 335 c 0
 316 335 316 335 314 335 c 0xf4
397 678 m 0
 450 678 488 664 510 634 c 0
 531 608 536 573 527 532 c 0
 512 469 473 417 409 377 c 1
 461 347 480 302 466 241 c 0
 453 186 419 138 363 98 c 0
 312 61 264 43 218 43 c 0
 199 43 182 46 164 51 c 0
 93 73 66 121 83 194 c 0xf4
 90 224 104 253 127 283 c 0
 150 312 176 336 207 355 c 1
 163 386 146 429 159 484 c 0xec
 170 533 201 578 248 618 c 0
 295 658 345 678 397 678 c 0
225 493 m 0xec
 218 459 221 434 237 417 c 0
 251 401 271 393 298 393 c 0
 322 393 348 400 373 412 c 0
 398 424 420 440 437 461 c 0
 451 478 459 495 464 515 c 0
 471 544 467 569 453 590 c 0
 440 610 420 619 393 618 c 0
 392 618 390 617 389 617 c 0
 355 614 323 603 291 582 c 0
 255 558 233 528 225 493 c 0xec
EndSplineSet
EndChar

StartChar: u09eb
Encoding: 125 2539 121
Width: 498
GlyphClass: 2
Flags: HW
LayerCount: 2
Fore
SplineSet
417 605 m 1xd0
 373 590 323 553 268 495 c 0
 206 430 168 368 154 308 c 0
 149 287 149 268 151 249 c 0
 155 200 175 162 212 135 c 0
 245 110 286 97 335 97 c 0
 343 97 351 97 359 98 c 1
 315 154 302 217 318 288 c 0xe0
 337 370 390 433 475 476 c 1
 450 503 435 521 430 529 c 0
 416 552 412 578 417 605 c 1xd0
466 671 m 1
 484 669 491 660 487 643 c 0
 486 640 485 637 482 633 c 0
 477 626 473 618 471 610 c 0xd0
 466 587 474 563 496 540 c 0
 514 519 536 506 558 500 c 0
 575 495 581 484 577 466 c 0
 575 459 572 452 565 446 c 1
 517 442 474 425 439 393 c 0
 404 361 382 324 372 282 c 0
 364 248 365 218 376 189 c 0
 387 158 409 134 439 117 c 0
 449 109 454 99 451 88 c 0
 449 79 445 72 436 67 c 0
 400 46 361 36 321 36 c 0
 261 36 210 57 164 97 c 0
 101 152 80 220 98 300 c 0
 118 386 171 470 256 552 c 0
 337 631 407 671 466 671 c 1
EndSplineSet
EndChar

StartChar: u09ec
Encoding: 126 2540 122
Width: 552
GlyphClass: 2
Flags: HW
LayerCount: 2
Fore
SplineSet
415 641 m 2
 363 414 l 1
 367 402 373 396 385 396 c 0
 417 396 474 435 556 513 c 0
 565 520 573 524 580 524 c 0
 587 524 592 520 598 513 c 0
 621 476 625 427 611 367 c 0
 594 295 560 231 506 172 c 0
 450 110 392 79 334 78 c 0
 294 78 258 91 226 116 c 0
 194 141 171 175 156 216 c 0
 127 297 123 383 144 475 c 0
 147 489 152 503 157 517 c 0
 162 531 170 537 183 537 c 0
 197 537 205 530 204 515 c 1
 201 506 198 496 196 486 c 0
 181 420 179 357 190 297 c 0
 198 255 215 218 243 187 c 0
 273 152 309 135 348 135 c 0
 393 135 437 162 482 216 c 0
 522 264 547 313 559 363 c 0
 566 395 567 423 562 448 c 1
 472 375 406 339 365 339 c 0
 331 339 310 360 302 403 c 1
 357 641 l 2
 360 652 369 657 389 657 c 0
 409 657 418 652 415 641 c 2
EndSplineSet
EndChar

StartChar: u09ed
Encoding: 127 2541 123
Width: 439
GlyphClass: 2
Flags: HW
LayerCount: 2
Fore
SplineSet
396 612 m 1
 350 609 308 593 271 562 c 0
 230 527 204 479 190 418 c 1
 192 385 223 369 284 369 c 0
 304 369 331 371 364 375 c 0
 396 379 412 380 417 380 c 1
 449 540 443 617 399 612 c 1
 396 612 l 1
431 225 m 1
 410 134 414 89 441 91 c 0
 455 91 461 85 458 72 c 0
 456 64 450 56 442 49 c 0
 434 42 424 38 414 38 c 0
 394 38 378 44 369 57 c 0
 364 64 362 73 361 83 c 0
 357 106 360 142 371 189 c 0
 374 200 379 222 388 257 c 2
 402 319 l 1
 272 309 l 1
 175 309 129 341 133 405 c 0
 134 417 136 429 139 441 c 0
 153 500 186 552 239 597 c 0
 292 642 348 666 406 671 c 0
 435 673 457 666 472 649 c 0
 479 641 485 629 489 616 c 0
 495 591 496 547 490 484 c 0
 488 462 483 433 475 398 c 2
 431 225 l 1
EndSplineSet
EndChar

StartChar: u09ee
Encoding: 128 2542 124
Width: 604
GlyphClass: 2
Flags: HW
LayerCount: 2
Fore
SplineSet
413 362 m 0xf4
 405 386 381 398 345 398 c 0
 309 398 258 386 195 362 c 1
 176 279 166 234 165 226 c 0
 156 170 157 130 170 105 c 0
 176 98 185 95 195 95 c 0
 228 95 270 119 321 168 c 0
 372 216 402 263 413 309 c 0
 418 329 418 347 413 362 c 0xf4
181 499 m 1xec
 199 579 195 618 168 617 c 1
 155 619 150 626 153 639 c 0
 155 647 161 655 169 662 c 0
 177 669 185 673 195 673 c 0
 224 673 241 662 248 640 c 0
 255 618 253 581 241 531 c 0xec
 235 504 224 469 212 427 c 1
 277 447 327 456 360 456 c 0
 403 456 434 443 454 418 c 1
 675 506 l 1
 688 508 694 505 697 496 c 0
 698 491 698 485 696 477 c 0
 694 467 689 459 681 452 c 1
 474 369 l 1
 475 352 473 335 469 316 c 0
 454 249 415 186 353 127 c 0
 290 66 229 37 169 38 c 2
 167 38 l 1
 142 45 125 57 116 74 c 0
 109 87 104 110 103 141 c 0
 101 170 107 212 120 267 c 2xf4
 181 499 l 1xec
EndSplineSet
EndChar

StartChar: u09ef
Encoding: 129 2543 125
Width: 557
GlyphClass: 2
Flags: HW
LayerCount: 2
Fore
SplineSet
242 655 m 1xd8
 238 641 240 627 251 615 c 0
 256 609 263 603 273 597 c 0
 283 590 318 575 378 551 c 0
 454 520 509 488 544 453 c 0
 595 402 610 341 594 270 c 0
 589 248 580 225 569 201 c 1
 541 153 502 115 449 84 c 0
 400 55 350 39 299 35 c 1
 279 39 269 46 272 57 c 0
 273 62 278 68 285 76 c 1
 295 93 303 110 313 127 c 0
 323 144 329 160 332 174 c 0
 336 192 338 210 335 231 c 1
 326 265 302 282 266 282 c 0
 246 282 226 275 206 261 c 0
 182 241 165 216 158 184 c 0
 153 161 154 137 158 112 c 0
 157 105 155 100 152 95 c 0
 150 92 148 91 146 89 c 0
 139 83 130 80 122 80 c 0
 111 80 105 84 103 91 c 0
 96 121 97 152 104 184 c 0xb8
 112 220 129 252 153 278 c 0
 190 319 233 340 281 340 c 0
 309 340 333 332 353 316 c 0
 373 300 385 278 389 251 c 0
 393 224 393 197 387 172 c 0
 382 151 371 127 358 102 c 1
 401 113 441 132 472 159 c 0
 508 189 530 224 539 265 c 0
 542 278 544 291 543 304 c 0
 544 356 523 399 478 434 c 0
 453 452 410 474 347 500 c 0
 280 528 239 547 225 557 c 0
 190 581 177 613 187 652 c 0
 192 670 200 678 216 678 c 0
 235 678 244 671 242 655 c 1xd8
EndSplineSet
EndChar

StartChar: u09f0
Encoding: 130 2544 126
Width: 440
GlyphClass: 2
Flags: HW
AnchorPoint: "Anchor-1" 390 39 basechar 0
AnchorPoint: "Anchor-0" 248 669 basechar 0
LayerCount: 2
Fore
SplineSet
594 610 m 1
 523 610 l 1
 397 62 l 1
 390 47 377 39 359 39 c 0
 349 39 341 42 336 49 c 2
 112 332 l 2
 108 337 107 343 109 352 c 0
 112 363 117 371 124 375 c 2
 455 564 l 1
 466 610 l 1
 135 610 l 1
 150 673 l 1
 608 673 l 1
 594 610 l 1
391 288 m 1
 440 500 l 1
 296 416 l 1
 391 288 l 1
354 128 m 1
 378 232 l 1
 259 395 l 1
 177 347 l 1
 354 128 l 1
EndSplineSet
EndChar

StartChar: u09f1
Encoding: 131 2545 127
Width: 446
GlyphClass: 2
Flags: HW
LayerCount: 2
Fore
SplineSet
354 128 m 1
 440 500 l 1
 177 347 l 1
 354 128 l 1
150 673 m 1
 608 673 l 1
 594 610 l 1
 523 610 l 1
 397 62 l 1
 390 47 377 39 359 39 c 0
 349 39 341 42 336 49 c 2
 112 332 l 2
 108 337 107 343 109 352 c 0
 112 363 117 371 124 375 c 2
 455 564 l 1
 466 610 l 1
 135 610 l 1
 150 673 l 1
106 197 m 1
 202 68 l 1
 178 47 l 1
 79 180 l 1
 106 197 l 1
EndSplineSet
EndChar

StartChar: u09f2
Encoding: 132 2546 128
Width: 520
GlyphClass: 2
Flags: HW
LayerCount: 2
Fore
SplineSet
306 -165 m 6
 307 -167 307 -170 307 -175 c 4
 307 -180 305 -185 303 -191 c 4
 301 -194 301 -196 299 -199 c 4
 290 -212 282 -217 275 -213 c 4
 272 -212 270 -210 268 -208 c 6
 108 -6 l 5
 114 78 l 5
 306 -165 l 6
EndSplineSet
EndChar

StartChar: u09f3
Encoding: 133 2547 129
Width: 608
GlyphClass: 2
Flags: HW
LayerCount: 2
Fore
SplineSet
638 134 m 0
 629 97 611 66 582 42 c 0
 546 13 501 -1 444 -1 c 0
 375 -1 330 21 309 65 c 1
 297 96 294 131 303 170 c 2
 347 370 l 1
 270 371 l 1
 277 404 l 1
 357 404 l 1
 394 562 l 2
 399 582 397 598 392 609 c 0
 385 630 362 640 322 640 c 0
 281 640 252 631 231 614 c 0
 210 597 195 570 187 535 c 1
 135 535 l 1
 140 561 l 1
 179 629 l 1
 211 663 262 680 332 680 c 0
 380 680 413 665 432 636 c 1
 446 611 449 580 441 544 c 2
 409 407 l 1
 487 404 l 1
 480 371 l 1
 400 370 l 1
 352 160 l 1
 351 130 352 103 355 77 c 1
 370 56 404 45 455 45 c 0
 492 45 521 53 545 71 c 0
 569 89 584 113 591 143 c 0
 595 161 591 176 580 188 c 1
 545 209 l 1
 570 256 l 1
 587 248 603 236 617 219 c 0
 638 193 645 164 638 134 c 0
EndSplineSet
EndChar

StartChar: u09f4
Encoding: 134 2548 130
Width: 313
GlyphClass: 2
Flags: HW
LayerCount: 2
Fore
SplineSet
291 288 m 2
 293 290 296 291 300 292 c 0
 308 294 316 294 323 290 c 0
 330 286 334 281 333 274 c 0
 333 271 332 268 329 265 c 0
 328 263 326 261 324 259 c 2
 86 36 l 1
 5 21 l 1
 291 288 l 2
EndSplineSet
EndChar

StartChar: u09f5
Encoding: 135 2549 131
Width: 593
GlyphClass: 2
Flags: HW
LayerCount: 2
Fore
SplineSet
730 774 m 5
 729 769 566 298 565 292 c 0
 564 288 522 216 520 212 c 0
 501 164 462 115 429 89 c 0
 393 60 355 44 315 40 c 1
 295 45 288 56 296 73 c 0
 298 76 298 78 300 81 c 0
 313 119 322 154 323 186 c 0
 324 202 322 217 320 231 c 0
 310 265 292 282 263 282 c 0
 247 282 230 275 216 261 c 0
 195 238 183 207 182 171 c 0
 182 153 184 133 188 112 c 0
 188 105 187 100 185 95 c 0
 183 92 182 91 181 89 c 0
 176 83 169 80 162 80 c 0
 154 80 149 84 147 91 c 0
 140 121 138 152 142 184 c 0
 145 208 151 230 159 250 c 0
 163 260 168 269 174 278 c 0
 201 319 233 340 271 340 c 0
 292 340 311 332 328 316 c 0
 345 300 357 278 362 251 c 0
 367 224 367 197 364 172 c 2
 356 107 l 1
 389 118 417 136 433 159 c 1
 461 191 479 198 482 238 c 0
 482 239 730 773 730 774 c 5
EndSplineSet
EndChar

StartChar: u09f6
Encoding: 136 2550 132
Width: 592
GlyphClass: 2
Flags: HW
LayerCount: 2
Fore
SplineSet
508 654 m 1xe0
 547 690 l 1xe0
 555 636 551 544 534 412 c 0
 533 409 533 405 532 402 c 0xd0
 525 372 511 340 488 303 c 0
 476 282 460 261 443 238 c 0xe0
 387 164 323 108 251 71 c 0
 209 50 174 38 144 38 c 0
 143 38 141 38 140 38 c 2
 138 38 l 1
 130 43 129 52 136 62 c 0
 140 68 145 73 153 80 c 2
 202 127 l 2
 231 157 257 190 276 226 c 1
 280 234 283 242 284 248 c 0
 287 259 285 267 282 273 c 2
 278 279 l 1
 268 282 l 1
 261 283 251 282 240 277 c 0
 234 275 228 272 221 268 c 0
 175 238 137 190 105 126 c 0
 99 117 92 110 84 105 c 0
 76 100 72 99 66 99 c 0
 61 100 59 103 61 109 c 0
 61 110 62 110 62 111 c 0
 76 141 96 172 119 203 c 0
 146 238 173 266 202 289 c 0
 242 321 274 337 300 337 c 0
 302 337 305 337 307 337 c 0
 309 337 309 337 310 337 c 0
 325 334 335 325 336 307 c 0
 337 299 336 290 334 280 c 0
 333 275 331 270 329 265 c 0
 326 257 322 249 317 240 c 0
 292 192 257 145 212 98 c 1
 243 105 274 119 308 142 c 0
 360 177 402 223 435 277 c 1
 448 306 460 343 470 388 c 0xd0
 477 419 484 454 490 493 c 0
 497 541 503 594 508 654 c 1xe0
EndSplineSet
EndChar

StartChar: u09f7
Encoding: 137 2551 133
Width: 320
GlyphClass: 2
Flags: HW
LayerCount: 2
Fore
SplineSet
328 569 m 1
 188 -39 l 1
 156 17 l 1
 296 624 l 1
 328 569 l 1
EndSplineSet
EndChar

StartChar: u09f8
Encoding: 138 2552 134
Width: 293
GlyphClass: 2
Flags: HW
LayerCount: 2
Fore
SplineSet
32 82 m 1
 123 477 l 1
 148 501 171 508 189 499 c 0
 198 495 207 486 215 473 c 2
 288 311 l 2
 293 298 300 293 305 298 c 0
 308 301 309 306 312 314 c 2
 364 543 l 1
 382 554 396 558 402 553 c 0
 406 550 409 545 409 538 c 1
 334 208 l 1
 318 163 305 148 293 161 c 0
 289 165 285 173 281 183 c 2
 175 407 l 2
 173 415 169 418 162 413 c 2
 154 405 l 1
 150 400 l 1
 77 81 l 1
 61 55 49 46 41 55 c 0
 37 60 35 69 32 82 c 1
EndSplineSet
EndChar

StartChar: u09f9
Encoding: 139 2553 135
Width: 254
GlyphClass: 2
Flags: HW
LayerCount: 2
Fore
SplineSet
216 408 m 0
 177 407 150 389 135 354 c 2
 126 332 l 1
 125 298 l 1
 127 277 144 267 174 265 c 2
 189 264 l 1
 226 265 251 275 261 295 c 0
 263 300 265 309 269 325 c 2
 271 333 l 2
 276 355 272 375 257 391 c 0
 247 402 234 408 216 408 c 0
228 460 m 0
 282 459 314 436 323 392 c 0
 328 372 328 350 322 325 c 0
 318 304 310 285 297 266 c 0
 290 257 282 247 274 239 c 0
 245 210 211 196 171 196 c 0
 134 196 107 206 91 227 c 0
 83 238 79 251 76 267 c 0
 73 282 72 299 76 319 c 0
 80 342 90 365 105 386 c 0
 113 396 122 407 132 417 c 0
 163 447 195 461 228 460 c 0
EndSplineSet
EndChar

StartChar: u09fa
Encoding: 140 2554 136
Width: 354
GlyphClass: 2
Flags: HW
LayerCount: 2
Fore
SplineSet
272 518 m 0
 269 503 260 491 246 482 c 0
 232 473 216 468 198 468 c 0
 181 468 169 473 160 482 c 0
 151 491 149 503 152 518 c 0
 155 533 164 546 177 556 c 0
 190 565 205 570 222 570 c 0
 240 570 254 565 263 556 c 0
 272 546 275 533 272 518 c 0
449 817 m 0
 473 800 478 757 462 688 c 0
 450 634 427 580 398 525 c 0
 368 468 338 428 308 405 c 1
 264 377 223 363 184 363 c 0
 157 363 133 369 107 382 c 1
 104 391 103 399 105 406 c 0
 108 419 119 428 138 435 c 1
 174 425 199 420 212 420 c 0
 240 420 266 434 290 462 c 0
 314 490 338 528 361 576 c 0
 384 624 399 667 408 706 c 0
 417 745 417 771 406 781 c 1
 408 792 410 800 413 806 c 0
 415 809 416 811 418 812 c 0
 424 816 431 818 444 817 c 0
 446 817 447 817 449 817 c 0
EndSplineSet
EndChar

StartChar: zwnj
Encoding: 146 8204 137
Width: 0
GlyphClass: 2
Flags: HW
LayerCount: 2
Fore
SplineSet
147 684 m 1
 170 683 l 1
 14 12 l 1
 -9 12 l 1
 147 684 l 1
EndSplineSet
EndChar

StartChar: zwj
Encoding: 147 8205 138
Width: 5
GlyphClass: 2
Flags: HW
LayerCount: 2
Fore
SplineSet
-12 10 m 1
 125 605 l 1
 31 532 l 1
 6 542 l 1
 117 630 l 1
 26 688 l 1
 53 723 l 1
 152 645 l 1
 256 723 l 1
 278 698 l 1
 166 625 l 1
 250 557 l 1
 237 537 l 1
 160 601 l 1
 25 15 l 1
 -12 10 l 1
EndSplineSet
EndChar

StartChar: quotedblleft
Encoding: 148 8220 139
Width: 478
GlyphClass: 2
Flags: HW
LayerCount: 2
Fore
SplineSet
268 623 m 1
 231 633 217 657 226 695 c 0
 229 710 236 725 247 743 c 0
 272 783 307 818 354 848 c 1
 368 849 376 845 379 838 c 0
 381 834 380 830 379 824 c 0
 378 819 376 815 374 810 c 1
 361 804 343 789 319 765 c 0
 291 737 275 715 271 697 c 0
 268 684 272 675 285 670 c 0
 291 669 300 669 311 670 c 0
 317 670 324 671 331 672 c 1
 341 667 345 658 342 646 c 0
 340 637 335 630 325 625 c 1
 305 621 290 621 278 622 c 2
 268 623 l 1
462 623 m 1
 425 633 411 657 420 695 c 0
 423 710 431 725 442 743 c 0
 467 783 502 818 549 848 c 1
 563 849 570 845 573 838 c 0
 575 834 575 830 574 824 c 0
 573 819 571 815 569 810 c 1
 556 804 538 789 514 765 c 0
 486 737 469 715 465 697 c 0
 462 684 467 675 480 670 c 0
 486 669 495 669 506 670 c 0
 512 670 519 671 526 672 c 1
 536 667 539 658 536 646 c 0
 534 637 530 630 520 625 c 1
 500 621 485 621 473 622 c 2
 462 623 l 1
EndSplineSet
EndChar

StartChar: quotedblright
Encoding: 149 8221 140
Width: 476
GlyphClass: 2
Flags: HW
LayerCount: 2
Fore
SplineSet
562 683 m 0
 537 642 501 607 454 578 c 1
 440 576 431 579 428 587 c 0
 426 591 426 596 428 603 c 0
 429 607 431 611 433 616 c 1
 445 621 465 636 490 661 c 0
 518 689 533 712 537 729 c 0
 540 742 536 751 523 756 c 0
 517 757 507 757 496 756 c 0
 490 756 484 755 477 754 c 1
 467 759 463 767 466 779 c 0
 468 789 474 796 484 801 c 1
 503 805 519 806 531 805 c 0
 535 805 537 804 540 803 c 0
 578 793 593 769 584 732 c 0
 581 717 572 700 562 683 c 0
368 683 m 0
 343 642 307 607 260 578 c 1
 246 576 237 579 234 587 c 0
 232 591 232 596 234 603 c 0
 235 607 237 611 239 616 c 1
 251 621 270 636 295 661 c 0
 323 689 339 712 343 729 c 0
 346 742 342 751 329 756 c 0
 323 757 313 757 302 756 c 0
 296 756 290 755 283 754 c 1
 273 759 269 767 272 779 c 0
 274 789 280 796 290 801 c 1
 309 805 324 806 336 805 c 0
 340 805 342 804 345 803 c 0
 383 793 397 769 388 732 c 0
 385 717 378 700 368 683 c 0
EndSplineSet
EndChar

StartChar: euro
Encoding: 151 8364 141
Width: 482
GlyphClass: 2
Flags: HW
LayerCount: 2
Fore
SplineSet
346 410 m 1
 553 410 l 1
 547 385 l 1
 327 386 l 1
 318 374 l 1
 303 330 l 1
 304 318 305 304 308 289 c 2
 305 312 l 1
 531 312 l 1
 526 287 l 1
 309 288 l 1
 313 269 317 248 324 225 c 0
 336 184 378 129 450 61 c 1
 434 12 l 1
 425 10 411 18 389 37 c 0
 378 46 365 58 351 73 c 0
 308 117 280 159 268 198 c 0
 259 225 253 255 247 287 c 1
 71 288 l 1
 78 314 l 1
 242 313 l 1
 240 330 l 1
 244 347 254 368 270 394 c 1
 264 386 l 1
 93 386 l 1
 100 409 l 1
 281 410 l 1
 291 424 301 438 314 454 c 0
 401 563 493 620 590 627 c 1
 591 574 l 1
 554 571 514 556 472 532 c 0
 436 511 395 471 346 410 c 1
EndSplineSet
EndChar

StartChar: uni25CC
Encoding: 153 9676 142
Width: 717
GlyphClass: 2
Flags: HW
LayerCount: 2
Fore
SplineSet
207 313 m 1
 264 400 331 464 407 504 c 1
 429 450 l 1
 363 408 305 357 258 298 c 1
 207 313 l 1
580 521 m 1
 652 481 697 425 718 353 c 1
 659 315 l 1
 634 376 599 425 552 461 c 1
 580 521 l 1
323 -21 m 1
 251 19 206 75 185 147 c 1
 244 184 l 1
 269 123 304 74 351 38 c 1
 323 -21 l 1
685 183 m 1
 628 96 559 33 483 -8 c 1
 462 46 l 1
 528 88 585 139 632 198 c 1
 685 183 l 1
EndSplineSet
EndChar

StartChar: u0981.salt
Encoding: 156 -1 144
Width: 3
GlyphClass: 2
Flags: HW
LayerCount: 2
Fore
SplineSet
63 749 m 0
 48 749 40 755 36 767 c 0
 32 779 37 790 49 800 c 0
 50 801 50 801 51 802 c 0
 59 808 68 811 77 811 c 0
 94 811 105 805 108 793 c 0
 109 789 108 784 107 779 c 0
 105 766 96 757 82 752 c 0
 76 750 70 749 63 749 c 0
56 694 m 0
 19 694 -7 706 -19 729 c 0
 -25 743 -25 759 -21 778 c 1
 -15 786 -11 790 -6 790 c 0
 -1 790 5 787 11 781 c 1
 10 763 14 749 27 739 c 0
 35 732 46 728 56 729 c 0
 79 730 96 737 108 750 c 0
 114 757 122 769 132 786 c 1
 139 790 144 792 149 792 c 0
 156 792 162 787 165 778 c 1
 149 735 116 707 68 695 c 0
 63 695 60 694 56 694 c 0
EndSplineSet
EndChar

StartChar: u099c_u09cd_u099e.akhn
Encoding: 157 -1 145
Width: 798
GlyphClass: 3
Flags: HW
LayerCount: 2
Fore
SplineSet
735 173 m 0
 740 196 733 212 715 221 c 0
 708 225 699 227 688 227 c 1
 675 232 670 242 673 255 c 0
 676 269 685 278 700 283 c 1
 722 286 742 296 758 313 c 0
 768 323 774 334 777 346 c 0
 783 373 768 388 732 390 c 1
 699 383 674 371 654 353 c 2
 638 337 l 1
 614 307 l 2
 611 303 608 299 604 293 c 1
 609 271 608 247 600 220 c 0
 599 216 597 213 595 209 c 1
 609 183 621 165 631 155 c 0
 645 141 661 132 680 129 c 0
 706 125 724 136 733 163 c 0
 734 166 734 169 735 173 c 0
489 392 m 1
 475 479 462 540 453 577 c 1
 430 565 408 543 385 510 c 0
 363 479 349 449 342 419 c 0
 333 381 338 353 358 335 c 1
 489 392 l 1
287 427 m 0
 299 479 327 528 371 573 c 0
 384 587 399 600 413 610 c 1
 129 610 l 1
 144 673 l 1
 955 673 l 1
 940 610 l 1
 505 610 l 1
 544 405 l 1
 563 394 578 377 590 355 c 1
 619 390 650 416 685 434 c 0
 708 446 731 451 751 451 c 0
 779 451 802 440 818 418 c 0
 834 397 837 373 831 345 c 0
 823 311 803 283 770 259 c 1
 792 236 798 206 790 170 c 0
 781 129 756 97 717 76 c 0
 705 71 692 69 680 69 c 0
 643 69 609 86 580 120 c 0
 571 130 564 140 558 150 c 1
 523 108 493 79 469 62 c 0
 443 44 414 33 382 29 c 0
 373 28 364 28 355 28 c 0
 267 28 203 85 163 199 c 0
 130 295 122 397 138 506 c 1
 147 521 158 528 169 528 c 0
 177 528 186 523 195 515 c 1
 184 408 194 310 223 223 c 0
 255 128 302 80 363 80 c 0
 399 80 437 98 480 134 c 1
 513 167 534 202 543 241 c 0
 553 286 544 322 516 349 c 1
 503 345 475 330 431 306 c 0
 395 286 367 276 347 276 c 0
 337 276 327 278 318 283 c 1
 284 322 274 370 287 427 c 0
EndSplineSet
Ligature2: "'akhn' Akhand in Bengali lookup 2 subtable" u099c u09cd u099e
EndChar

StartChar: u0995_u09cd_u09b7.akhn
Encoding: 158 -1 146
Width: 759
GlyphClass: 3
Flags: HW
LayerCount: 2
Fore
SplineSet
518 610 m 1xdc
 507 600 500 590 498 580 c 0
 492 553 515 524 568 494 c 1
 595 610 l 1
 518 610 l 1xdc
485 133 m 1
 553 430 l 1
 467 477 430 526 442 578 c 0xdc
 444 588 448 599 454 610 c 1
 298 610 l 1
 305 591 306 570 301 548 c 0
 299 538 295 527 289 514 c 1
 329 508 361 490 385 460 c 0
 411 427 418 388 408 343 c 0xec
 402 319 391 294 374 269 c 1
 485 133 l 1
346 342 m 0xec
 353 373 348 400 331 423 c 0
 316 445 295 456 268 456 c 0
 261 456 255 455 248 453 c 1
 221 420 187 392 143 368 c 1
 127 367 118 371 114 380 c 0
 112 384 112 390 114 397 c 0
 115 402 117 406 121 410 c 1
 146 422 170 441 196 467 c 0
 223 494 239 520 245 545 c 0
 253 578 238 600 203 610 c 1
 130 610 l 1
 144 673 l 1
 928 673 l 1
 914 610 l 1
 648 610 l 1
 616 471 l 1
 665 451 704 427 732 396 c 0
 763 363 775 330 767 297 c 0
 757 254 715 216 641 185 c 0
 631 182 625 187 621 198 c 0
 619 204 617 210 619 217 c 0
 620 222 622 226 624 230 c 1
 674 251 702 275 708 300 c 0
 717 339 682 375 601 408 c 1
 523 68 l 2
 521 58 511 51 496 45 c 0
 489 42 484 41 477 41 c 0
 470 41 463 43 460 47 c 2
 325 221 l 1
 296 197 261 175 222 155 c 1
 210 157 203 164 199 175 c 0
 197 180 198 186 199 191 c 0
 200 197 203 202 208 206 c 0
 289 249 335 294 346 342 c 0xec
EndSplineSet
Ligature2: "'akhn' Akhand in Bengali lookup 2 subtable" u0995 u09cd u09b7
EndChar

StartChar: u09b9_u09cd_u09ae.cjct
Encoding: 159 -1 147
Width: 728
GlyphClass: 3
Flags: HW
LayerCount: 2
Fore
SplineSet
473 170 m 1xbe
 533 431 l 1
 516 428 491 427 458 428 c 0
 441 429 422 429 401 431 c 1
 406 404 406 378 400 353 c 0
 396 336 389 320 381 305 c 1
 473 170 l 1xbe
365 501 m 1
 409 488 450 482 487 482 c 0
 507 482 527 484 546 488 c 1
 574 610 l 1
 286 610 l 1
 297 580 299 556 292 535 c 0
 292 533 290 532 290 530 c 1
 322 527 347 517 365 501 c 1
723 59 m 0
 720 47 712 39 697 34 c 0
 690 32 682 31 676 32 c 1
 653 59 647 108 657 179 c 1
 669 238 681 297 693 358 c 0
 705 419 705 454 689 462 c 0
 686 463 683 464 677 464 c 0
 675 464 648 458 594 445 c 1
 514 97 l 1
 453 84 l 1
 345 251 l 1
 311 221 272 198 228 181 c 1
 212 186 207 197 211 213 c 0
 212 219 215 224 219 230 c 1
 290 252 332 294 346 355 c 0
 354 388 350 415 334 439 c 0
 319 462 295 473 263 472 c 0
 262 472 261 471 260 471 c 0
 238 438 200 405 147 372 c 1
 137 372 129 378 124 389 c 0
 121 396 120 402 122 409 c 0
 123 413 125 416 128 419 c 0
 150 428 172 445 195 470 c 0
 220 496 235 522 241 546 c 0
 251 589 227 610 169 610 c 2
 135 610 l 1
 150 673 l 1
 890 673 l 1
 876 610 l 1
 632 610 l 1
 607 502 l 1
 645 513 675 519 695 519 c 0x7e
 712 519 723 516 731 509 c 0
 758 480 762 422 742 335 c 2
 719 240 l 2
 700 157 701 101 723 71 c 0
 724 67 724 63 723 59 c 0
EndSplineSet
Substitution2: "'salt' Stylistic Alternatives in Bengali2 lookup 17-1" u09b9_u09cd_u09ae.salt
Ligature2: "'cjct' Conjunct Forms in Bengali2 lookup 13" u09b9 u09cd u09ae
EndChar

StartChar: u09a4_u09cd_u09a4.cjct
Encoding: 160 -1 148
Width: 655
GlyphClass: 3
Flags: HW
LayerCount: 2
Fore
SplineSet
519 576 m 0xfc
 561 576 594 561 618 531 c 1
 627 515 l 1
 643 486 647 453 639 417 c 0xfc
 631 382 612 350 584 321 c 1
 615 283 626 239 614 189 c 0
 603 140 575 101 531 71 c 0
 491 44 446 31 397 31 c 0
 349 31 300 55 252 104 c 0
 233 125 217 146 203 168 c 0
 154 251 132 369 139 524 c 0
 142 539 146 548 154 553 c 0
 158 556 163 557 169 557 c 0
 181 557 189 550 193 536 c 1
 198 388 l 1
 202 336 214 290 232 249 c 0
 280 144 343 91 421 91 c 0
 435 91 450 92 465 96 c 0
 515 108 546 139 558 190 c 0xfa
 567 227 559 256 535 276 c 1
 517 285 510 297 513 310 c 0
 516 321 525 335 543 351 c 1
 565 368 578 389 584 414 c 0
 591 444 586 470 569 491 c 0
 554 510 534 519 507 519 c 0
 498 519 488 518 478 515 c 1
 436 494 411 464 402 425 c 0
 398 407 397 386 399 362 c 1
 397 348 391 338 382 333 c 0
 378 331 373 330 366 330 c 0
 357 330 350 334 346 342 c 0
 339 366 339 392 345 419 c 0
 355 462 377 498 410 529 c 0
 444 560 480 576 519 576 c 0xfc
144 673 m 1
 810 673 l 1
 796 610 l 1
 130 610 l 1
 144 673 l 1
EndSplineSet
Ligature2: "'cjct' Conjunct Forms in Bengali2 lookup 13" u09a4 u09cd u09a4
EndChar

StartChar: u0995_u09cd.haln
Encoding: 161 -1 149
Width: 657
GlyphClass: 3
Flags: HW
LayerCount: 2
Fore
SplineSet
389 0 m 1
 514 -121 l 1
 475 -164 l 1
 348 -38 l 1
 389 0 l 1
446 493 m 1
 183 342 l 1
 360 121 l 1
 446 493 l 1
673 382 m 0
 662 335 644 298 616 269 c 0
 591 243 564 230 534 231 c 0
 520 230 513 233 510 241 c 0
 508 245 508 251 510 258 c 0
 513 273 522 282 535 287 c 1
 556 284 576 295 595 321 c 0
 609 340 619 361 624 384 c 0
 631 413 628 437 617 457 c 0
 597 495 562 513 512 511 c 2
 508 511 l 1
 403 55 l 2
 400 42 391 35 378 35 c 0
 364 35 353 41 344 51 c 2
 117 328 l 2
 110 333 107 340 109 348 c 0
 111 358 119 366 131 373 c 2
 461 560 l 1
 473 610 l 1
 134 610 l 1
 149 673 l 1
 817 673 l 1
 802 610 l 1
 531 610 l 1
 522 572 l 1
 649 556 699 493 673 382 c 0
EndSplineSet
Ligature2: "'haln' Halant Forms in Bengali lookup 12 subtable" u0995 u09cd
EndChar

StartChar: u0996_u09cd.hln
Encoding: 162 -1 150
Width: 568
GlyphClass: 3
Flags: HW
LayerCount: 2
Fore
SplineSet
493 0 m 1
 618 -120 l 1
 579 -163 l 1
 452 -37 l 1
 493 0 l 1
725 673 m 1
 711 610 l 1
 639 610 l 1
 513 64 l 2
 511 55 502 47 488 42 c 0
 482 40 477 39 471 39 c 0
 463 39 455 41 451 46 c 2
 192 297 l 1
 188 306 189 315 191 324 c 0
 195 341 203 349 215 349 c 0
 254 354 291 369 326 397 c 0
 362 426 385 461 394 499 c 0
 400 524 398 548 391 572 c 1
 349 506 301 473 243 473 c 0
 210 473 174 485 139 508 c 1
 133 515 132 523 134 533 c 0
 138 552 149 562 166 562 c 0
 169 562 171 561 174 560 c 0
 201 540 228 531 253 531 c 0
 305 531 342 565 364 633 c 0
 367 646 373 655 381 660 c 0
 385 662 388 663 394 663 c 0
 400 663 404 661 410 657 c 0
 453 622 464 568 446 496 c 1
 445 491 l 1
 422 404 364 343 269 308 c 1
 469 121 l 1
 583 617 l 2
 592 654 612 673 645 673 c 2
 725 673 l 1
EndSplineSet
Ligature2: "'haln' Halant Forms in Bengali lookup 12 subtable" u0996 u09cd
EndChar

StartChar: u0996_u09cd.haln
Encoding: 163 -1 151
Width: 558
GlyphClass: 3
Flags: HW
LayerCount: 2
Fore
SplineSet
484 0 m 1xcc
 611 -121 l 1
 570 -164 l 1
 443 -38 l 1
 484 0 l 1xcc
288 316 m 0
 296 349 290 376 274 398 c 0
 259 418 240 428 214 428 c 0
 194 428 172 422 149 409 c 0
 139 403 130 401 123 401 c 0
 109 401 104 409 107 424 c 0
 108 428 110 432 113 437 c 0
 145 505 186 555 236 587 c 0
 265 606 300 622 341 633 c 0
 361 637 379 638 396 638 c 0xec
 465 638 517 607 556 545 c 1
 586 673 l 1
 717 673 l 1
 702 610 l 1
 629 610 l 1xdc
 500 53 l 2
 497 38 487 31 467 31 c 0
 447 31 440 38 443 53 c 2
 519 382 l 2
 529 425 526 461 512 491 c 0
 481 550 434 580 371 580 c 0xec
 306 580 248 548 197 484 c 1
 235 488 266 483 290 468 c 0
 302 461 314 451 322 439 c 0
 347 406 353 365 342 316 c 0
 326 248 286 197 219 162 c 0
 215 161 212 160 208 160 c 0
 195 160 186 165 183 175 c 0
 182 179 181 183 182 187 c 0
 184 195 191 202 199 209 c 0
 249 236 278 271 288 316 c 0
EndSplineSet
Ligature2: "'haln' Halant Forms in Bengali lookup 12 subtable" u0997 u09cd
EndChar

StartChar: u0998_u09cd.haln
Encoding: 164 -1 152
Width: 504
GlyphClass: 3
Flags: HW
LayerCount: 2
Fore
SplineSet
429 2 m 1
 554 -119 l 1
 514 -162 l 1
 387 -36 l 1
 429 2 l 1
203 548 m 0
 198 525 203 506 219 492 c 0
 230 482 243 477 261 477 c 1
 303 484 l 1
 321 484 327 474 323 455 c 0
 321 448 317 441 311 435 c 2
 188 315 l 1
 402 121 l 1
 515 610 l 1
 257 610 l 1
 226 594 209 573 203 548 c 0
144 673 m 1
 660 673 l 1
 645 610 l 1
 573 610 l 1
 446 62 l 2
 443 47 428 39 406 39 c 0
 397 39 390 41 385 46 c 2
 124 287 l 1
 117 291 114 298 116 307 c 0
 118 314 122 321 129 328 c 2
 223 420 l 1
 192 425 169 441 156 468 c 0
 145 489 144 515 150 543 c 0
 155 565 166 588 181 610 c 1
 129 610 l 1
 144 673 l 1
EndSplineSet
Ligature2: "'haln' Halant Forms in Bengali lookup 12 subtable" u0998 u09cd
EndChar

StartChar: u0999_u09cd.haln
Encoding: 165 -1 153
Width: 583
GlyphClass: 3
Flags: HW
LayerCount: 2
Fore
SplineSet
401 0 m 1
 527 -120 l 1
 486 -163 l 1
 359 -37 l 1
 401 0 l 1
543 597 m 0
 522 617 494 614 461 590 c 0
 436 571 414 547 398 516 c 0
 396 512 394 508 392 504 c 1
 418 498 437 495 451 495 c 0
 490 495 522 515 548 556 c 1
 555 573 554 587 543 597 c 0
376 94 m 0
 412 94 449 108 486 135 c 0
 522 162 546 194 558 230 c 0
 560 234 561 238 562 243 c 0
 572 288 561 327 528 362 c 1
 338 265 l 1
 301 304 287 347 298 394 c 0
 305 425 312 448 321 465 c 0
 321 467 320 468 319 468 c 0
 251 506 210 561 199 633 c 0
 199 647 204 656 216 662 c 0
 221 664 225 665 231 665 c 0
 238 665 243 663 248 659 c 1
 269 593 300 547 344 522 c 1
 360 554 384 586 418 616 c 0
 456 650 490 668 520 671 c 0
 547 674 568 666 585 647 c 0
 593 638 600 625 606 610 c 1
 608 597 607 583 604 568 c 0
 595 530 573 498 538 472 c 0
 505 448 471 436 434 436 c 0
 409 436 387 441 369 450 c 0
 365 450 359 435 352 403 c 0
 346 379 350 358 360 339 c 1
 510 409 l 1
 519 416 530 420 543 420 c 0
 549 420 554 419 559 418 c 1
 612 368 630 310 615 244 c 0
 602 189 570 141 520 100 c 0
 470 59 418 38 365 38 c 0
 304 38 250 64 206 117 c 0
 172 157 151 204 142 256 c 0
 134 305 130 356 131 410 c 0
 131 426 134 460 136 511 c 1
 142 528 152 537 166 537 c 0
 176 537 184 531 188 519 c 1
 182 415 186 335 198 278 c 0
 210 228 230 186 260 151 c 0
 293 113 332 94 376 94 c 0
EndSplineSet
Ligature2: "'haln' Halant Forms in Bengali lookup 12 subtable" u0989 u09cd
EndChar

StartChar: u099a_u09cd.haln
Encoding: 166 -1 154
Width: 444
GlyphClass: 3
Flags: HW
LayerCount: 2
Fore
SplineSet
265 -1 m 1
 391 -122 l 1
 350 -165 l 1
 224 -39 l 1
 265 -1 l 1
226 475 m 1
 150 145 l 2
 142 112 150 95 171 95 c 0
 180 95 192 99 208 107 c 0
 242 125 277 156 316 202 c 0
 357 252 382 297 391 336 c 0
 394 347 395 357 394 366 c 1
 389 381 363 398 314 415 c 0
 265 432 236 452 226 475 c 1
144 673 m 1
 601 673 l 1
 587 610 l 1
 257 610 l 1
 248 570 l 1
 257 534 279 504 315 483 c 1
 406 440 l 2
 432 426 447 406 449 383 c 0
 451 370 448 355 444 337 c 0
 430 277 395 215 339 152 c 0
 282 89 227 50 174 35 c 0
 170 34 165 33 160 33 c 0
 133 33 114 44 99 65 c 0
 87 84 84 107 90 133 c 2
 200 610 l 1
 129 610 l 1
 144 673 l 1
EndSplineSet
Ligature2: "'haln' Halant Forms in Bengali lookup 12 subtable" u099a u09cd
EndChar

StartChar: u099b_u09cd.haln
Encoding: 167 -1 155
Width: 568
GlyphClass: 3
Flags: HW
LayerCount: 2
Fore
SplineSet
427 -1 m 1
 552 -122 l 1
 513 -165 l 1
 386 -39 l 1
 427 -1 l 1
260 524 m 1
 214 327 l 2
 210 310 216 301 231 301 c 0
 256 301 293 319 341 354 c 0
 400 398 425 433 415 457 c 0
 409 473 389 482 355 488 c 0
 304 497 272 509 260 524 c 1
577 392 m 0
 565 338 535 285 488 234 c 0
 462 206 434 184 407 167 c 0
 387 156 361 145 330 136 c 1
 402 132 472 110 540 69 c 0
 564 54 586 38 604 21 c 1
 606 12 606 6 604 -1 c 0
 600 -18 587 -26 566 -25 c 2
 563 -25 l 1
 510 23 442 56 361 74 c 0
 312 85 250 93 177 97 c 1
 170 105 167 116 170 129 c 0
 173 140 178 147 188 152 c 1
 238 158 272 163 290 168 c 0
 325 177 358 194 388 216 c 1
 418 235 448 261 475 294 c 0
 504 329 521 363 528 394 c 0
 538 439 522 468 477 482 c 1
 476 474 475 466 473 458 c 0
 460 403 423 355 363 312 c 0
 308 273 257 252 211 252 c 0
 164 252 145 275 155 320 c 2
 221 604 l 1
 215 610 l 1
 129 610 l 1
 144 673 l 1
 722 673 l 1
 708 612 l 1
 280 612 l 1
 274 587 295 567 341 554 c 0
 371 546 401 542 434 542 c 0
 449 542 461 542 470 544 c 1
 525 540 561 519 576 479 c 0
 585 455 585 426 577 392 c 0
EndSplineSet
Ligature2: "'haln' Halant Forms in Bengali lookup 12 subtable" u099b u09cd
EndChar

StartChar: u099c_u09cd.haln
Encoding: 168 -1 156
Width: 789
GlyphClass: 3
Flags: HW
LayerCount: 2
Fore
SplineSet
527 -1 m 1xbf
 653 -122 l 1
 613 -165 l 1
 486 -39 l 1
 527 -1 l 1xbf
153 673 m 1
 542 674 806 674 944 673 c 1
 930 610 l 1
 651 610 l 1
 830 470 l 1
 839 466 843 459 840 447 c 0
 839 442 837 437 833 432 c 0
 777 344 743 272 730 217 c 0
 716 157 718 91 737 19 c 1
 731 -5 720 -17 700 -17 c 0x7f
 695 -17 690 -16 685 -13 c 1
 664 73 662 149 677 216 c 0
 691 275 724 347 777 432 c 1
 550 613 l 1
 518 598 486 574 456 542 c 0
 424 508 404 475 397 443 c 0
 390 411 398 387 419 371 c 0
 422 372 454 384 515 408 c 0
 553 423 584 430 609 430 c 1
 649 391 663 341 649 279 c 0
 632 207 588 152 517 115 c 0
 472 92 430 80 390 80 c 0
 297 80 227 140 179 259 c 1
 164 284 154 332 151 403 c 0
 149 445 150 482 154 515 c 1
 159 536 169 546 184 546 c 0
 193 546 201 540 208 529 c 1
 193 432 203 347 237 272 c 0
 279 182 335 136 407 136 c 0
 449 136 491 153 535 188 c 0
 566 213 587 244 595 280 c 0
 604 317 598 350 577 377 c 1
 564 373 533 361 485 341 c 0
 447 325 417 316 395 315 c 1
 347 340 330 382 344 441 c 0
 357 499 393 555 450 610 c 1
 138 610 l 1
 153 673 l 1
EndSplineSet
Ligature2: "'haln' Halant Forms in Bengali lookup 12 subtable" u099c u09cd
EndChar

StartChar: u099d_u09cd.haln
Encoding: 169 -1 157
Width: 655
GlyphClass: 3
Flags: HW
LayerCount: 2
Fore
SplineSet
374 -2 m 1
 499 -123 l 1
 459 -166 l 1
 332 -40 l 1
 374 -2 l 1
436 491 m 1
 179 342 l 1
 351 123 l 1
 436 491 l 1
659 610 m 2
 669 652 693 673 731 673 c 2
 811 673 l 1
 797 610 l 1
 717 610 l 1
 613 162 l 2
 610 149 599 142 579 142 c 0
 567 142 558 145 553 152 c 2
 443 272 l 1
 394 57 l 2
 390 39 376 31 354 31 c 0
 345 31 337 33 332 39 c 2
 108 326 l 2
 105 329 105 336 107 345 c 0
 110 358 116 368 126 373 c 2
 452 560 l 1
 464 610 l 1
 135 610 l 1
 150 673 l 1
 478 673 l 2
 516 673 531 652 521 610 c 2
 462 351 l 1
 573 238 l 1
 659 610 l 2
EndSplineSet
Ligature2: "'haln' Halant Forms in Bengali lookup 12 subtable" u099d u09cd
EndChar

StartChar: u099e_u09cd.haln
Encoding: 170 -1 158
Width: 858
GlyphClass: 3
Flags: HW
LayerCount: 2
Fore
SplineSet
548 0 m 1x8f80
 674 -121 l 1
 634 -164 l 1
 507 -38 l 1
 548 0 l 1x8f80
332 426 m 0
 347 489 379 543 430 589 c 0
 469 624 511 647 557 659 c 0
 572 664 586 667 598 667 c 0
 624 667 647 656 666 633 c 0
 683 612 686 581 677 540 c 2
 566 60 l 2
 564 52 555 45 538 40 c 0
 531 38 525 36 518 36 c 0
 511 36 506 38 504 42 c 0
 478 97 436 125 377 125 c 0xaf80
 369 125 331 121 264 112 c 0
 235 108 214 106 205 106 c 0
 188 106 174 108 161 111 c 1
 116 131 88 160 80 201 c 0
 74 230 78 267 88 312 c 0
 92 330 97 350 104 373 c 1
 114 381 124 385 132 385 c 0
 142 385 150 379 156 369 c 1
 146 334 141 313 139 306 c 0
 126 249 135 208 163 182 c 0
 176 170 195 164 218 164 c 0xcf80
 232 164 258 167 295 174 c 0
 332 181 361 184 381 184 c 0xaf80
 438 184 485 164 523 123 c 1
 618 536 l 2
 629 584 620 608 589 608 c 0
 573 608 550 600 520 585 c 0
 451 551 408 502 393 438 c 0
 386 409 384 376 387 337 c 1
 381 320 370 311 351 311 c 0
 341 311 335 314 330 321 c 1
 324 355 324 390 332 426 c 0
868 342 m 1
 901 315 912 278 902 233 c 0x9fa0
 890 183 857 150 802 135 c 0
 794 134 785 133 777 133 c 0
 699 133 649 195 627 320 c 1
 640 375 l 1
 669 426 695 463 717 485 c 0
 761 529 804 552 849 555 c 1
 882 552 908 539 925 514 c 0
 940 492 945 466 938 437 c 0x9fc0
 930 402 906 370 868 342 c 1
841 241 m 0
 845 260 839 277 823 292 c 0
 810 304 794 310 776 310 c 1
 763 319 758 329 761 340 c 0
 764 351 772 361 786 369 c 1
 810 372 832 383 851 401 c 0
 864 414 873 428 877 444 c 0x9fc0
 885 477 868 493 828 493 c 0
 805 493 776 475 745 438 c 0
 737 429 715 399 678 348 c 1
 684 305 696 268 716 238 c 0
 736 208 760 193 787 193 c 0
 792 193 797 194 803 195 c 0
 825 208 837 223 841 241 c 0
EndSplineSet
Ligature2: "'haln' Halant Forms in Bengali lookup 12 subtable" u099e u09cd
EndChar

StartChar: u099f_u09cd.haln
Encoding: 171 -1 159
Width: 458
GlyphClass: 3
Flags: HW
LayerCount: 2
Fore
SplineSet
268 -2 m 1xfc
 393 -123 l 1
 352 -166 l 1
 225 -40 l 1
 268 -2 l 1xfc
184 35 m 0
 161 35 141 47 126 72 c 0
 111 100 107 129 113 160 c 2
 217 609 l 1
 196 610 172 610 150 610 c 2
 137 610 l 1
 152 673 l 1
 506 673 l 1
 509 680 512 686 513 692 c 0
 523 735 483 756 390 756 c 1
 309 753 l 1
 224 763 171 775 152 789 c 0
 119 811 107 858 120 930 c 1
 124 943 134 949 149 949 c 0
 161 949 170 945 174 936 c 1
 163 885 172 851 201 833 c 0
 223 820 262 813 319 813 c 2
 374 813 l 2
 442 812 488 806 516 794 c 0
 562 773 579 733 565 673 c 1xfd
 613 673 l 1
 599 610 l 1
 275 610 l 1
 175 176 l 2
 170 154 173 137 187 125 c 0
 195 118 206 115 218 115 c 0
 241 115 268 128 297 154 c 0
 358 210 394 264 406 315 c 0
 412 342 411 362 404 375 c 2
 395 386 l 1
 370 412 l 2
 368 416 369 420 370 425 c 0
 373 438 380 447 393 453 c 0
 399 456 405 457 411 457 c 1
 456 416 473 371 461 321 c 0xfe
 447 260 410 198 352 135 c 0
 291 69 235 35 184 35 c 0
EndSplineSet
Ligature2: "'haln' Halant Forms in Bengali lookup 12 subtable" u099f u09cd
EndChar

StartChar: u09a0_u09cd.haln
Encoding: 172 -1 160
Width: 480
GlyphClass: 3
Flags: HW
LayerCount: 2
Fore
SplineSet
284 -3 m 1xf3
 409 -124 l 1
 369 -167 l 1
 243 -41 l 1
 284 -3 l 1xf3
386 551 m 1
 384 540 382 528 379 517 c 0
 351 394 269 304 137 246 c 1xfb
 130 216 129 190 133 168 c 0
 135 157 139 146 144 137 c 0
 159 109 182 94 214 94 c 0
 247 94 282 109 319 140 c 0
 375 187 409 241 424 304 c 0
 442 381 429 464 386 551 c 1
288 950 m 0xf7
 301 1005 341 1040 410 1052 c 1
 426 1047 432 1035 428 1016 c 0
 426 1006 419 999 412 996 c 1
 372 996 349 980 342 949 c 0xf7
 337 927 340 891 350 842 c 1
 372 766 389 709 401 673 c 1
 640 673 l 1
 625 610 l 1
 433 610 l 1
 489 506 505 402 481 297 c 0
 466 232 432 173 382 121 c 0
 328 66 273 39 213 39 c 0
 191 39 169 44 149 52 c 0
 126 61 108 85 95 125 c 0
 82 164 79 202 87 236 c 0xfb
 93 261 104 279 120 292 c 1
 190 320 242 354 276 394 c 0
 306 429 328 472 340 524 c 0
 346 550 350 579 352 610 c 1
 140 610 l 1
 154 673 l 1
 338 673 l 1
 335 688 326 721 308 774 c 0
 285 849 278 907 288 950 c 0xf7
EndSplineSet
Ligature2: "'haln' Halant Forms in Bengali lookup 12 subtable" u09a0 u09cd
EndChar

StartChar: u09a1_u09cd.haln
Encoding: 173 -1 161
Width: 683
GlyphClass: 3
Flags: HW
LayerCount: 2
Fore
SplineSet
837 673 m 1
 823 610 l 1
 467 610 l 1
 408 353 l 1
 410 340 416 333 426 333 c 0
 443 333 468 347 502 376 c 0
 532 402 562 433 594 470 c 0
 599 477 607 480 615 480 c 0
 628 480 638 474 646 463 c 0
 683 414 694 358 680 296 c 0
 673 264 658 229 637 190 c 1
 567 88 492 36 412 35 c 0
 349 34 295 59 249 109 c 0
 225 134 207 163 195 195 c 0
 165 271 148 373 143 502 c 1
 145 513 152 521 162 526 c 0
 167 529 171 530 177 530 c 0
 186 530 193 526 198 519 c 1
 205 408 216 329 231 281 c 1
 240 233 261 191 291 156 c 0
 327 115 370 94 418 94 c 0
 469 94 517 119 563 168 c 0
 594 201 614 240 624 285 c 0
 636 335 631 377 611 412 c 1
 557 361 524 330 509 319 c 0
 467 288 429 272 395 272 c 1
 355 279 342 316 357 382 c 2
 410 610 l 1
 134 610 l 1
 149 673 l 1
 837 673 l 1
421 -4 m 1
 547 -125 l 1
 507 -167 l 1
 380 -42 l 1
 421 -4 l 1
EndSplineSet
Ligature2: "'haln' Halant Forms in Bengali lookup 12 subtable" u09a1 u09cd
EndChar

StartChar: u09a2_u09cd.haln
Encoding: 174 -1 162
Width: 468
GlyphClass: 3
Flags: HW
LayerCount: 2
Fore
SplineSet
239 -1 m 1
 364 -122 l 1
 325 -165 l 1
 198 -39 l 1
 239 -1 l 1
195 35 m 0
 172 35 153 47 138 72 c 0
 123 100 118 129 124 160 c 2
 228 609 l 1
 135 610 l 1
 150 673 l 1
 624 673 l 1
 610 610 l 1
 286 610 l 1
 186 176 l 2
 181 154 185 137 199 125 c 0
 207 118 217 115 229 115 c 0
 252 115 279 128 308 154 c 0
 369 210 406 264 418 315 c 0
 424 342 423 362 416 375 c 2
 407 386 l 1
 382 412 l 2
 380 416 380 420 381 425 c 0
 384 438 392 447 405 453 c 0
 411 456 416 457 422 457 c 1
 467 416 484 371 472 321 c 0
 458 260 421 198 363 135 c 0
 302 69 246 35 195 35 c 0
EndSplineSet
Ligature2: "'haln' Halant Forms in Bengali lookup 12 subtable" u09a2 u09cd
EndChar

StartChar: u09a3_u09cd.haln
Encoding: 175 -1 163
Width: 485
GlyphClass: 3
Flags: HW
LayerCount: 2
Fore
SplineSet
389 0 m 1xcc
 514 -121 l 1
 475 -164 l 1
 348 -38 l 1
 389 0 l 1xcc
143 461 m 0
 157 522 187 569 235 603 c 0
 276 632 323 646 377 646 c 0xec
 421 646 460 627 494 588 c 1
 507 645 533 673 571 673 c 2
 641 673 l 1
 626 610 l 1
 557 610 l 1xdc
 432 69 l 2
 428 52 417 44 399 44 c 0
 379 44 370 52 374 68 c 2
 454 414 l 2
 457 429 460 455 461 493 c 0
 462 521 451 544 427 563 c 0
 405 581 379 591 348 591 c 0xec
 311 591 276 577 245 548 c 1
 230 532 l 2
 212 511 200 487 194 461 c 0
 186 426 189 397 205 373 c 0
 219 352 238 340 263 339 c 1
 270 336 273 330 270 319 c 0
 267 306 261 295 251 288 c 0
 247 285 243 283 238 283 c 0
 174 297 141 336 137 398 c 0
 135 419 138 440 143 461 c 0
EndSplineSet
Ligature2: "'haln' Halant Forms in Bengali lookup 12 subtable" u09a3 u09cd
EndChar

StartChar: u09a4_u09cd.haln
Encoding: 176 -1 164
Width: 676
GlyphClass: 3
Flags: HW
LayerCount: 2
Fore
SplineSet
451 -1 m 1
 576 -122 l 1
 537 -165 l 1
 410 -39 l 1
 451 -1 l 1
386 417 m 0
 395 454 415 486 449 512 c 0
 480 535 515 547 549 547 c 0
 607 548 645 525 668 478 c 0
 689 435 692 380 677 313 c 0
 661 244 631 183 588 132 c 0
 553 90 514 62 472 48 c 0
 452 41 433 38 413 38 c 0
 400 38 386 39 374 42 c 0
 323 52 285 72 258 101 c 0
 242 119 223 146 203 184 c 0
 153 281 134 394 149 523 c 0
 149 533 155 541 167 546 c 0
 172 548 177 549 182 549 c 0
 194 549 201 544 202 534 c 0
 202 453 203 397 207 366 c 0
 214 311 230 259 256 210 c 0
 275 174 296 149 317 133 c 0
 331 123 358 111 399 98 c 0
 406 97 414 97 421 97 c 0
 480 97 529 127 569 188 c 0
 592 222 609 262 622 310 c 0
 638 369 638 415 617 447 c 0
 597 477 567 491 527 489 c 0
 525 489 523 489 521 489 c 0
 476 481 449 456 440 416 c 0
 436 397 437 381 444 366 c 1
 439 346 428 336 408 336 c 0
 401 336 396 338 390 342 c 1
 382 367 380 392 386 417 c 0
150 673 m 1
 831 673 l 1
 816 610 l 1
 135 610 l 1
 150 673 l 1
EndSplineSet
Ligature2: "'haln' Halant Forms in Bengali lookup 12 subtable" u09a4 u09cd
EndChar

StartChar: u09a5_u09cd.haln
Encoding: 177 -1 165
Width: 542
GlyphClass: 3
Flags: HW
LayerCount: 2
Fore
SplineSet
464 0 m 1x9c
 590 -121 l 1
 550 -164 l 1
 423 -38 l 1
 464 0 l 1x9c
316 653 m 0xdc
 366 653 401 637 420 603 c 0
 435 577 437 543 428 504 c 0
 420 469 403 432 377 394 c 0
 354 361 314 327 260 292 c 1
 438 117 l 1
 552 610 l 2
 558 635 572 654 593 665 c 0
 603 671 613 673 624 673 c 2
 696 673 l 1
 682 610 l 1
 610 610 l 1xbc
 483 60 l 2
 480 47 467 40 443 40 c 0
 434 40 427 42 422 46 c 2
 190 274 l 1
 188 283 187 292 189 299 c 0
 192 310 198 318 207 321 c 0
 239 333 271 355 303 387 c 0
 343 426 367 465 376 504 c 0
 386 547 371 576 334 592 c 1
 322 594 311 595 302 595 c 0
 246 595 209 560 190 489 c 1
 184 475 174 468 156 468 c 0
 144 468 138 473 136 482 c 1
 150 558 181 609 230 634 c 0
 254 647 283 653 316 653 c 0xdc
EndSplineSet
Ligature2: "'haln' Halant Forms in Bengali lookup 12 subtable" u09a5 u09cd
EndChar

StartChar: u09a6_u09cd.haln
Encoding: 178 -1 166
Width: 410
GlyphClass: 3
Flags: HW
LayerCount: 2
Fore
SplineSet
325 0 m 1
 451 -120 l 1
 411 -163 l 1
 284 -37 l 1
 325 0 l 1
565 673 m 1
 550 610 l 1
 229 610 l 1
 175 375 l 1
 193 394 224 417 266 445 c 0
 336 492 386 514 417 514 c 0
 420 514 423 513 426 513 c 0
 445 511 452 499 446 478 c 1
 396 389 364 316 351 258 c 0
 337 196 337 133 354 69 c 1
 353 52 342 43 322 40 c 0
 315 39 308 39 301 40 c 1
 281 108 278 178 295 251 c 0
 308 306 334 370 371 443 c 1
 295 414 221 364 150 294 c 1
 141 289 132 287 123 287 c 0
 105 287 100 295 103 310 c 2
 172 610 l 1
 129 610 l 1
 144 673 l 1
 565 673 l 1
EndSplineSet
Ligature2: "'haln' Halant Forms in Bengali lookup 12 subtable" u09a6 u09cd
EndChar

StartChar: u09a7_u09cd.haln
Encoding: 179 -1 167
Width: 452
GlyphClass: 3
Flags: HW
LayerCount: 2
Fore
SplineSet
363 2 m 1
 488 -119 l 1
 449 -162 l 1
 321 -36 l 1
 363 2 l 1
344 121 m 1
 430 495 l 1
 167 344 l 1
 344 121 l 1
148 558 m 0
 159 606 188 638 236 657 c 0
 260 666 287 671 317 671 c 1
 327 668 331 659 328 646 c 0
 324 629 317 618 305 612 c 1
 245 612 211 595 203 562 c 0
 201 555 200 546 201 538 c 0
 213 499 241 480 283 480 c 0
 290 480 297 481 304 482 c 1
 446 564 l 1
 457 610 l 2
 467 652 491 673 529 673 c 2
 599 673 l 1
 585 610 l 1
 514 610 l 1
 386 53 l 2
 383 42 370 37 347 37 c 0
 338 37 330 39 325 42 c 2
 103 328 l 2
 100 333 99 339 101 347 c 0
 104 359 111 370 122 380 c 1
 216 432 l 1
 173 455 148 489 143 534 c 0
 144 542 146 550 148 558 c 0
EndSplineSet
Ligature2: "'haln' Halant Forms in Bengali lookup 12 subtable" u09a7 u09cd
EndChar

StartChar: u09a8_u09cd.haln
Encoding: 180 -1 168
Width: 484
GlyphClass: 3
Flags: HW
LayerCount: 2
Fore
SplineSet
411 -1 m 1
 536 -122 l 1
 497 -165 l 1
 370 -39 l 1
 411 -1 l 1
101 277 m 0
 114 332 142 375 186 408 c 0
 225 438 272 453 324 453 c 0
 379 453 421 432 451 390 c 1
 502 610 l 1
 135 610 l 1
 150 673 l 1
 645 673 l 1
 630 610 l 1
 559 610 l 1
 430 51 l 2
 427 39 417 33 397 33 c 0
 377 33 370 39 373 51 c 2
 422 263 l 1
 424 326 405 367 366 384 c 0
 349 391 329 395 305 395 c 0
 263 395 227 381 198 353 c 0
 176 332 163 306 156 276 c 0
 147 239 150 211 163 192 c 0
 169 183 181 173 197 162 c 0
 200 157 200 152 199 146 c 0
 196 135 191 126 180 119 c 0
 173 115 168 114 162 115 c 0
 128 131 106 158 99 195 c 0
 94 222 95 249 101 277 c 0
EndSplineSet
Ligature2: "'haln' Halant Forms in Bengali lookup 12 subtable" u09a8 u09cd
EndChar

StartChar: u09aa_u09cd.haln
Encoding: 181 -1 169
Width: 600
GlyphClass: 3
Flags: HW
LayerCount: 2
Fore
SplineSet
523 2 m 1x20
 648 -119 l 1
 608 -162 l 1
 481 -36 l 1
 523 2 l 1x20
497 542 m 1
 465 585 429 606 387 606 c 0xa0
 345 606 299 585 248 542 c 1
 328 398 l 1
 497 542 l 1
152 439 m 0
 139 439 130 446 126 459 c 0
 125 463 125 467 125 472 c 1
 192 575 272 638 365 661 c 0
 380 664 393 666 407 666 c 0xa0
 489 666 552 611 593 502 c 1
 617 609 l 2
 622 630 633 647 652 660 c 0
 664 668 677 673 690 673 c 2
 760 673 l 1
 745 610 l 1
 675 610 l 1x60
 547 55 l 2
 544 42 533 35 514 35 c 0
 494 35 486 41 489 54 c 2
 552 328 l 2
 559 359 559 390 552 422 c 0
 549 437 539 463 524 500 c 1
 260 276 l 1
 244 272 234 276 229 287 c 0
 226 292 225 299 227 306 c 0
 228 310 229 314 231 317 c 2
 278 358 l 1
 206 493 l 1
 165 443 l 1
 160 440 157 439 152 439 c 0
EndSplineSet
LCarets2: 1 0
Ligature2: "'haln' Halant Forms in Bengali lookup 12 subtable" u09aa u09cd
EndChar

StartChar: u09ab_u09cd.haln
Encoding: 182 -1 170
Width: 638
GlyphClass: 3
Flags: HW
LayerCount: 2
Fore
SplineSet
391 -1 m 1
 517 -122 l 1
 477 -165 l 1
 350 -39 l 1
 391 -1 l 1
625 389 m 0
 636 438 626 474 593 496 c 0
 573 509 545 515 512 515 c 1
 408 62 l 2
 406 51 401 44 393 40 c 0
 389 38 384 37 377 37 c 0
 364 37 354 41 347 49 c 2
 122 297 l 1
 120 305 119 312 121 319 c 0
 123 328 129 338 139 347 c 2
 257 443 l 1
 156 610 l 1
 133 610 l 1
 147 673 l 1
 801 673 l 1
 786 610 l 1
 230 610 l 1
 318 463 l 1
 320 449 319 437 313 429 c 0
 310 424 306 421 302 418 c 2
 184 321 l 1
 364 121 l 1
 455 514 l 2
 464 551 477 570 497 570 c 0
 601 570 662 538 679 474 c 0
 686 446 686 417 679 387 c 0
 670 347 652 311 623 280 c 0
 597 251 570 236 542 233 c 1
 527 235 521 246 526 267 c 0
 529 280 536 288 547 292 c 1
 563 290 580 301 597 327 c 0
 610 346 620 367 625 389 c 0
EndSplineSet
Ligature2: "'haln' Halant Forms in Bengali lookup 12 subtable" u09ab u09cd
EndChar

StartChar: u09ac_u09cd.haln
Encoding: 183 -1 171
Width: 446
GlyphClass: 3
Flags: HW
LayerCount: 2
Fore
SplineSet
368 0 m 1
 495 -120 l 1
 454 -163 l 1
 327 -37 l 1
 368 0 l 1
354 128 m 1
 440 500 l 1
 177 347 l 1
 354 128 l 1
150 673 m 1
 608 673 l 1
 594 610 l 1
 523 610 l 1
 397 62 l 1
 390 47 377 39 359 39 c 0
 349 39 341 42 336 49 c 2
 112 332 l 2
 108 337 107 343 109 352 c 0
 112 363 117 371 124 375 c 2
 455 564 l 1
 466 610 l 1
 135 610 l 1
 150 673 l 1
EndSplineSet
Ligature2: "'haln' Halant Forms in Bengali lookup 12 subtable" u09ac u09cd
EndChar

StartChar: u09ad_u09cd.haln
Encoding: 184 -1 172
Width: 725
GlyphClass: 3
Flags: HW
LayerCount: 2
Fore
SplineSet
548 5 m 1
 674 -116 l 1
 634 -159 l 1
 507 -33 l 1
 548 5 l 1
485 288 m 0
 445 288 416 304 400 336 c 0
 387 362 385 393 394 430 c 0
 398 447 404 465 414 482 c 1
 422 489 430 493 438 493 c 0
 450 493 459 485 465 470 c 1
 459 455 454 442 451 429 c 0
 438 372 452 344 497 344 c 0
 504 344 511 345 518 347 c 0
 546 354 571 368 595 390 c 0
 606 400 623 420 649 452 c 0
 656 462 667 468 682 468 c 0
 689 468 694 466 698 461 c 0
 742 405 756 345 742 283 c 0
 733 246 714 210 686 173 c 0
 610 74 526 24 435 24 c 0
 330 24 253 89 200 220 c 0
 175 282 160 339 155 390 c 0
 150 434 152 491 158 562 c 1
 165 576 174 583 188 583 c 0
 195 583 203 581 210 577 c 1
 201 487 207 399 231 313 c 0
 247 255 270 208 297 172 c 0
 338 118 387 91 446 91 c 0
 511 91 571 119 625 175 c 0
 657 209 677 244 686 283 c 0
 695 322 689 358 669 392 c 1
 610 335 561 301 520 292 c 0
 508 289 496 288 485 288 c 0
150 673 m 1
 899 673 l 1
 884 610 l 1
 135 610 l 1
 150 673 l 1
EndSplineSet
Ligature2: "'haln' Halant Forms in Bengali lookup 12 subtable" u09ad u09cd
EndChar

StartChar: u09ae_u09cd.haln
Encoding: 185 -1 173
Width: 530
GlyphClass: 3
Flags: HW
LayerCount: 2
Fore
SplineSet
449 -3 m 1
 574 -124 l 1
 534 -167 l 1
 407 -41 l 1
 449 -3 l 1
542 610 m 1
 276 610 l 1
 225 547 l 1
 268 541 296 522 312 490 c 0
 319 475 323 459 322 440 c 0
 322 433 322 425 320 418 c 1
 343 419 365 416 385 409 c 0
 395 405 404 401 413 395 c 0
 433 381 455 357 476 324 c 1
 542 610 l 1
169 241 m 0
 160 201 165 169 185 147 c 0
 200 131 220 123 246 123 c 1
 253 119 256 111 253 99 c 0
 248 78 239 67 225 67 c 0
 151 74 113 117 110 195 c 1
 111 213 115 228 118 243 c 0
 134 312 181 366 262 407 c 1
 272 443 262 468 232 481 c 0
 219 487 204 490 185 490 c 0
 179 490 174 490 167 489 c 0
 149 493 143 503 147 522 c 0
 148 526 148 530 150 534 c 2
 212 610 l 1
 134 610 l 1
 148 673 l 1
 685 673 l 1
 670 610 l 1
 599 610 l 1
 472 57 l 2
 469 45 460 39 441 39 c 0
 421 39 411 45 414 58 c 2
 425 102 l 2
 441 171 445 222 437 255 c 0
 433 276 422 294 408 310 c 1
 384 343 352 359 312 359 c 0
 261 359 219 333 185 283 c 1
 178 269 172 255 169 241 c 0
EndSplineSet
Ligature2: "'haln' Halant Forms in Bengali lookup 12 subtable" u09ae u09cd
EndChar

StartChar: u09af_u09cd.haln
Encoding: 186 -1 174
Width: 468
GlyphClass: 3
Flags: HW
LayerCount: 2
Fore
SplineSet
389 -1 m 1
 515 -122 l 1
 475 -165 l 1
 348 -39 l 1
 389 -1 l 1
154 673 m 1
 621 673 l 1
 607 610 l 1
 536 610 l 1
 409 60 l 2
 405 43 392 34 371 34 c 0
 362 34 352 37 347 42 c 2
 99 278 l 2
 94 284 91 291 93 299 c 0
 95 306 100 314 106 321 c 1
 259 439 l 1
 164 610 l 1
 140 610 l 1
 154 673 l 1
236 610 m 1
 320 452 l 1
 322 440 321 431 316 423 c 0
 314 419 311 415 307 412 c 2
 160 302 l 1
 364 115 l 1
 478 610 l 1
 236 610 l 1
EndSplineSet
Ligature2: "'haln' Halant Forms in Bengali lookup 12 subtable" u09af u09cd
EndChar

StartChar: u09b0_u09cd.haln
Encoding: 187 -1 175
Width: 450
GlyphClass: 3
Flags: HW
LayerCount: 2
Fore
SplineSet
374 -1 m 1
 499 -122 l 1
 460 -165 l 1
 332 -39 l 1
 374 -1 l 1
354 128 m 1
 440 500 l 1
 177 347 l 1
 354 128 l 1
150 673 m 1
 608 673 l 1
 594 610 l 1
 523 610 l 1
 397 62 l 1
 390 47 377 39 359 39 c 0
 349 39 341 42 336 49 c 2
 112 332 l 2
 108 337 107 343 109 352 c 0
 112 363 117 371 124 375 c 2
 455 564 l 1
 466 610 l 1
 135 610 l 1
 150 673 l 1
164 122 m 1
 238 122 l 1
 221 49 l 1
 147 49 l 1
 164 122 l 1
EndSplineSet
Ligature2: "'haln' Halant Forms in Bengali lookup 12 subtable" u09b0 u09cd
Ligature2: "'haln' Halant Forms in Bengali lookup 12 subtable" u09b0 u09cd
EndChar

StartChar: u09b2_u09cd.haln
Encoding: 188 -1 176
Width: 649
GlyphClass: 2
Flags: HW
LayerCount: 2
Fore
SplineSet
568 0 m 1xce
 694 -120 l 1
 654 -163 l 1
 527 -37 l 1
 568 0 l 1xce
164 355 m 0
 155 318 162 289 184 267 c 0
 201 250 223 241 252 241 c 0
 258 241 263 241 269 242 c 1
 280 237 284 229 281 218 c 0
 278 204 270 193 256 186 c 1
 249 185 243 185 236 185 c 0
 189 185 154 201 129 235 c 0
 105 269 98 309 109 355 c 0
 116 386 132 417 155 446 c 0
 199 501 250 528 308 528 c 0xde
 358 528 393 506 414 461 c 1
 455 501 491 521 524 521 c 0
 559 521 592 498 622 452 c 1
 659 610 l 1
 135 610 l 1
 150 673 l 1
 802 673 l 1
 787 610 l 1
 717 610 l 1
 590 62 l 2
 585 41 573 31 553 31 c 0
 534 31 527 40 532 60 c 2
 599 351 l 1
 580 426 551 463 514 463 c 0xee
 485 463 455 439 424 390 c 1
 418 384 409 382 397 382 c 0
 385 382 377 385 373 392 c 1
 368 443 341 469 294 469 c 0xde
 261 469 232 456 206 431 c 0
 184 410 171 385 164 355 c 0
EndSplineSet
EndChar

StartChar: u09b6_u09cd.haln
Encoding: 189 -1 177
Width: 588
GlyphClass: 3
Flags: HW
LayerCount: 2
Fore
SplineSet
518 -3 m 1
 643 -124 l 1
 603 -167 l 1
 475 -41 l 1
 518 -3 l 1
466 612 m 0
 435 612 408 602 384 581 c 2
 371 569 l 1
 356 553 347 534 343 513 c 0
 334 468 346 436 376 419 c 0
 393 409 422 402 459 398 c 1
 463 395 463 390 461 381 c 0
 457 363 449 350 439 342 c 1
 392 347 359 355 340 367 c 0
 318 381 302 407 291 445 c 1
 259 401 228 372 196 357 c 0
 174 348 140 342 93 339 c 1
 87 345 86 354 89 366 c 0
 92 377 97 387 105 395 c 1
 150 398 189 412 222 439 c 0
 242 455 256 473 265 494 c 0
 276 519 275 544 259 569 c 0
 247 588 231 600 213 605 c 0
 200 608 176 610 140 610 c 0
 131 610 129 621 134 643 c 0
 139 663 146 673 155 673 c 0
 204 673 237 670 252 664 c 0
 283 653 306 624 320 577 c 1
 347 610 373 633 396 646 c 0
 417 659 444 668 480 673 c 1
 509 674 539 668 566 653 c 0
 589 640 602 626 605 609 c 1
 609 626 619 642 636 656 c 0
 650 667 664 673 677 673 c 2
 748 673 l 1
 734 610 l 1
 663 610 l 1
 536 60 l 2
 533 47 523 40 505 40 c 0
 484 40 475 47 478 60 c 2
 583 513 l 2
 589 539 579 562 555 582 c 0
 531 602 500 612 466 612 c 0
EndSplineSet
Ligature2: "'haln' Halant Forms in Bengali lookup 12 subtable" u09b6 u09cd
EndChar

StartChar: u09b7_u09cd.haln
Encoding: 190 -1 178
Width: 459
GlyphClass: 3
Flags: HW
LayerCount: 2
Fore
SplineSet
385 -1 m 1
 510 -122 l 1
 471 -165 l 1
 344 -39 l 1
 385 -1 l 1
600 610 m 1
 529 610 l 1
 402 60 l 2
 398 43 384 34 363 34 c 0
 354 34 345 37 340 42 c 2
 92 278 l 2
 87 284 85 291 87 299 c 0
 89 306 92 314 98 321 c 1
 252 439 l 1
 158 610 l 1
 134 610 l 1
 148 673 l 1
 615 673 l 1
 600 610 l 1
421 392 m 1
 471 610 l 1
 229 610 l 1
 313 453 l 1
 421 392 l 1
357 115 m 1
 406 329 l 1
 281 397 l 1
 153 302 l 1
 357 115 l 1
EndSplineSet
LCarets2: 1 0
Ligature2: "'haln' Halant Forms in Bengali lookup 12 subtable" u09b7 u09cd
EndChar

StartChar: u09b8_u09cd.haln
Encoding: 191 -1 179
Width: 612
GlyphClass: 3
Flags: HW
LayerCount: 2
Fore
SplineSet
542 -1 m 1
 668 -122 l 1
 627 -165 l 1
 500 -39 l 1
 542 -1 l 1
628 610 m 1
 344 610 l 1
 290 542 l 1
 333 533 364 515 384 489 c 0
 395 475 405 455 416 429 c 1
 438 442 457 449 475 449 c 0
 507 449 538 421 571 364 c 1
 628 610 l 1
771 673 m 1
 757 610 l 1
 686 610 l 1
 556 49 l 2
 553 36 544 29 526 29 c 0
 505 29 496 36 499 49 c 2
 514 117 l 2
 531 192 533 258 518 315 c 0
 505 367 486 393 460 393 c 0
 446 393 434 384 423 366 c 1
 387 296 348 239 305 193 c 0
 258 144 216 120 178 120 c 0
 134 120 103 153 82 220 c 0
 81 225 82 229 83 233 c 0
 87 250 96 258 115 258 c 0
 122 258 129 256 135 252 c 1
 149 204 168 180 194 180 c 0
 233 180 290 243 367 369 c 1
 357 410 345 438 331 454 c 0
 312 476 277 488 229 489 c 0
 217 488 210 491 208 499 c 0
 207 503 206 508 208 515 c 0
 210 522 213 528 218 534 c 2
 274 610 l 1
 135 610 l 1
 150 673 l 1
 771 673 l 1
EndSplineSet
Ligature2: "'haln' Halant Forms in Bengali lookup 12 subtable" u09b8 u09cd
EndChar

StartChar: u09b9_u09cd.haln
Encoding: 192 -1 180
Width: 418
GlyphClass: 3
Flags: HW
LayerCount: 2
Fore
SplineSet
336 -20 m 1
 462 -140 l 1
 422 -183 l 1
 295 -57 l 1
 336 -20 l 1
425 418 m 0
 435 460 429 492 407 514 c 1
 394 523 l 1
 378 531 l 2
 368 535 356 536 343 536 c 0
 271 536 224 496 202 416 c 1
 194 407 185 402 173 402 c 0
 160 402 153 409 152 423 c 1
 161 463 181 498 213 531 c 0
 232 551 253 566 274 574 c 1
 241 610 l 1
 135 610 l 1
 150 673 l 1
 579 673 l 1
 564 610 l 1
 312 610 l 2
 311 610 311 609 314 608 c 0
 316 607 317 606 320 605 c 0
 330 600 337 596 339 592 c 1
 346 594 353 594 360 594 c 0
 411 594 446 576 467 539 c 1
 475 521 l 1
 486 491 486 457 477 416 c 0
 474 405 471 393 468 382 c 0
 423 286 329 229 188 211 c 1
 465 -6 l 1
 465 -10 465 -14 464 -18 c 0
 460 -36 448 -45 431 -44 c 2
 428 -44 l 1
 79 227 l 1
 75 235 75 243 77 252 c 0
 81 271 91 280 107 280 c 0
 110 280 113 279 116 278 c 0
 140 274 166 272 188 272 c 0
 291 272 367 310 415 387 c 1
 419 397 422 407 425 418 c 0
EndSplineSet
Ligature2: "'haln' Halant Forms in Bengali lookup 12 subtable" u09b9 u09cd
EndChar

StartChar: u09dc_u09cd.haln
Encoding: 193 -1 181
Width: 684
GlyphClass: 3
Flags: HW
LayerCount: 2
Fore
SplineSet
544 -1 m 1x7fc0
 669 -122 l 1
 630 -165 l 1
 503 -39 l 1
 544 -1 l 1x7fc0
390 -10 m 1xbfc0
 463 -10 l 1
 446 -83 l 1
 373 -83 l 1
 390 -10 l 1xbfc0
838 673 m 1
 824 610 l 1
 468 610 l 1
 409 353 l 1
 411 340 417 333 427 333 c 0
 444 333 469 347 503 376 c 0
 533 402 563 433 595 470 c 0
 600 477 608 480 616 480 c 0
 629 480 639 474 647 463 c 0
 684 414 695 358 681 296 c 0
 674 264 659 229 638 190 c 1
 568 88 493 36 413 35 c 0
 350 34 296 59 250 109 c 0
 226 134 208 163 196 195 c 0
 166 271 149 373 144 502 c 1
 146 513 152 521 162 526 c 0
 167 529 172 530 178 530 c 0
 187 530 194 526 199 519 c 1
 206 408 217 329 232 281 c 1
 241 233 262 191 292 156 c 0
 328 115 371 94 419 94 c 0
 470 94 517 119 563 168 c 0
 594 201 615 240 625 285 c 0
 637 335 632 377 612 412 c 1
 558 361 525 330 510 319 c 0
 468 288 430 272 396 272 c 1
 356 279 343 316 358 382 c 2
 411 610 l 1
 135 610 l 1
 150 673 l 1
 838 673 l 1
EndSplineSet
LCarets2: 1 0
Ligature2: "'haln' Halant Forms in Bengali lookup 12 subtable" u09dc u09cd
EndChar

StartChar: u09dd_u09cd.haln
Encoding: 194 -1 182
Width: 467
GlyphClass: 3
Flags: HW
LayerCount: 2
Fore
SplineSet
316 -2 m 1
 441 -123 l 1
 402 -166 l 1
 275 -40 l 1
 316 -2 l 1
153 -5 m 1
 226 -5 l 1
 209 -78 l 1
 136 -78 l 1
 153 -5 l 1
195 35 m 0
 172 35 153 47 138 72 c 0
 123 100 118 129 124 160 c 2
 228 609 l 1
 135 610 l 1
 150 673 l 1
 624 673 l 1
 610 610 l 1
 286 610 l 1
 186 176 l 2
 181 154 185 137 199 125 c 0
 207 118 217 115 229 115 c 0
 252 115 279 128 308 154 c 0
 369 210 406 264 418 315 c 0
 424 342 423 362 416 375 c 2
 407 386 l 1
 382 412 l 2
 380 416 380 420 381 425 c 0
 384 438 392 447 405 453 c 0
 411 456 416 457 422 457 c 1
 467 416 484 371 472 321 c 0
 458 260 421 198 363 135 c 0
 302 69 246 35 195 35 c 0
EndSplineSet
Ligature2: "'haln' Halant Forms in Bengali lookup 12 subtable" u09dd u09cd
EndChar

StartChar: glyph219
Encoding: 195 -1 183
Width: 463
GlyphClass: 2
Flags: HW
LayerCount: 2
Fore
SplineSet
383 0 m 1
 509 -121 l 1
 468 -164 l 1
 341 -38 l 1
 383 0 l 1
150 673 m 1
 617 673 l 1
 602 610 l 1
 532 610 l 1
 405 60 l 2
 401 43 387 34 366 34 c 0
 357 34 348 37 343 42 c 2
 94 278 l 2
 89 284 87 291 89 299 c 0
 91 306 95 314 101 321 c 1
 254 439 l 1
 160 610 l 1
 135 610 l 1
 150 673 l 1
231 610 m 1
 316 452 l 1
 318 440 317 431 312 423 c 0
 310 419 307 415 303 412 c 2
 155 302 l 1
 360 115 l 1
 474 610 l 1
 231 610 l 1
165 117 m 1
 223 117 l 1
 210 59 l 1
 151 59 l 1
 165 117 l 1
EndSplineSet
EndChar

StartChar: u099c_u09cd_u099e_u09cd.haln
Encoding: 196 -1 184
Width: 807
GlyphClass: 3
Flags: HW
LayerCount: 2
Fore
SplineSet
453 0 m 1
 579 -121 l 1
 539 -164 l 1
 412 -38 l 1
 453 0 l 1
741 173 m 0
 746 196 740 212 722 221 c 0
 715 225 705 227 694 227 c 1
 681 232 676 242 679 255 c 0
 682 269 691 278 706 283 c 1
 728 286 748 296 764 313 c 0
 774 323 780 334 783 346 c 0
 789 373 774 388 738 390 c 1
 705 383 680 371 660 353 c 2
 643 337 l 1
 621 307 l 2
 618 303 614 299 610 293 c 1
 615 271 614 247 606 220 c 0
 605 216 604 213 602 209 c 1
 616 183 628 165 638 155 c 0
 652 141 667 132 686 129 c 0
 712 125 729 136 738 163 c 0
 739 166 740 169 741 173 c 0
495 392 m 1
 481 479 469 540 460 577 c 1
 437 565 413 543 390 510 c 0
 368 479 355 449 348 419 c 0
 339 381 345 353 365 335 c 1
 495 392 l 1
293 427 m 0
 305 479 333 528 377 573 c 0
 390 587 405 600 419 610 c 1
 135 610 l 1
 150 673 l 1
 961 673 l 1
 946 610 l 1
 511 610 l 1
 550 405 l 1
 569 394 584 377 596 355 c 1
 625 390 657 416 692 434 c 0
 715 446 737 451 757 451 c 0
 785 451 808 440 824 418 c 0
 840 397 844 373 838 345 c 0
 830 311 809 283 776 259 c 1
 798 236 804 206 796 170 c 0
 787 129 763 97 724 76 c 0
 712 71 699 69 687 69 c 0
 650 69 616 86 587 120 c 0
 578 130 571 140 565 150 c 1
 530 108 500 79 476 62 c 0
 450 44 420 33 388 29 c 0
 379 28 371 28 362 28 c 0
 274 28 210 85 170 199 c 0
 137 295 129 397 145 506 c 1
 154 521 164 528 175 528 c 0
 183 528 193 523 202 515 c 1
 191 408 200 310 229 223 c 0
 261 128 308 80 369 80 c 0
 405 80 444 98 487 134 c 1
 520 167 541 202 550 241 c 0
 560 286 550 322 522 349 c 1
 509 345 481 330 437 306 c 0
 401 286 373 276 353 276 c 0
 343 276 333 278 324 283 c 1
 290 322 280 370 293 427 c 0
EndSplineSet
Ligature2: "'half' Half Forms in Bengali lookup 5 subtable" u099c_u09cd_u099e.akhn u09cd zwj
Ligature2: "'haln' Halant Forms in Bengali lookup 12 subtable" u099c_u09cd_u099e.akhn u09cd
EndChar

StartChar: kassa_u09cd.half
Encoding: 197 -1 185
Width: 774
GlyphClass: 3
Flags: HW
LayerCount: 2
Fore
SplineSet
502 0 m 1xe6
 628 -121 l 1
 588 -164 l 1
 461 -38 l 1
 502 0 l 1xe6
523 610 m 1
 512 600 505 590 503 580 c 0xee
 497 553 521 524 574 494 c 1
 600 610 l 1
 523 610 l 1
490 133 m 1
 559 430 l 1
 473 477 435 526 447 578 c 0xee
 449 588 454 599 460 610 c 1
 304 610 l 1
 311 591 311 570 306 548 c 0
 304 538 301 527 295 514 c 1
 335 508 366 490 390 460 c 0
 416 427 423 388 413 343 c 0xf6
 407 319 396 294 379 269 c 1
 490 133 l 1
352 342 m 0xf6
 359 373 354 400 337 423 c 0
 322 445 301 456 274 456 c 0
 267 456 261 455 254 453 c 1
 227 420 192 392 148 368 c 1
 132 367 123 371 119 380 c 0
 117 384 118 390 120 397 c 0
 121 402 122 406 126 410 c 1
 151 422 176 441 202 467 c 0
 229 494 245 520 251 545 c 0
 259 578 244 600 209 610 c 1
 135 610 l 1
 150 673 l 1
 934 673 l 1
 919 610 l 1
 653 610 l 1
 621 471 l 1
 670 451 710 427 738 396 c 0
 769 363 781 330 773 297 c 0
 763 254 720 216 646 185 c 0
 636 182 630 187 626 198 c 0
 624 204 623 210 625 217 c 0
 626 222 628 226 630 230 c 1
 680 251 708 275 714 300 c 0
 723 339 688 375 607 408 c 1
 528 68 l 2
 526 58 517 51 502 45 c 0
 495 42 489 41 482 41 c 0
 475 41 469 43 466 47 c 2
 330 221 l 1
 301 197 266 175 227 155 c 1
 215 157 208 164 204 175 c 0
 202 180 203 186 204 191 c 0
 205 197 208 202 213 206 c 0
 294 249 341 294 352 342 c 0xf6
EndSplineSet
Ligature2: "'haln' Halant Forms in Bengali lookup 12 subtable" u0995_u09cd_u09b7.akhn u09cd
Ligature2: "'half' Half Forms in Bengali lookup 5 subtable" u0995_u09cd_u09b7.akhn u09cd zwj
EndChar

StartChar: u09b0_u09cd.rphf
Encoding: 198 -1 186
Width: 11
GlyphClass: 3
Flags: HW
AnchorPoint: "Anchor-0" -100 660 mark 0
LayerCount: 2
Fore
SplineSet
347 891 m 0
 358 891 367 886 372 878 c 2
 374 871 l 2
 374 869 374 867 374 865 c 0
 373 860 370 857 363 852 c 2
 100 667 l 1
 21 667 l 1
 336 888 l 2
 339 890 342 891 347 891 c 0
EndSplineSet
Ligature2: "'rphf' Reph Form in Bengali lookup 3 subtable" u09f0 u09cd
Ligature2: "'rphf' Reph Form in Bengali lookup 3 subtable" u09b0 u09cd
EndChar

StartChar: u09af_u09cd.pstf
Encoding: 199 -1 187
Width: 246
GlyphClass: 3
Flags: HW
LayerCount: 2
Fore
SplineSet
408 673 m 1
 394 610 l 1
 357 610 l 2
 334 610 310 602 287 585 c 1
 273 574 l 2
 268 570 266 566 263 562 c 0
 252 543 243 520 237 494 c 0
 229 459 226 401 227 321 c 0
 228 241 224 182 216 147 c 0
 197 65 144 11 57 -15 c 1
 37 -11 29 -3 32 12 c 0
 34 21 40 29 52 36 c 1
 117 53 157 92 171 153 c 0
 178 184 181 239 177 318 c 0
 173 397 175 457 184 496 c 0
 195 542 216 580 245 610 c 1
 135 610 l 1
 150 673 l 1
 408 673 l 1
EndSplineSet
LCarets2: 1 0
Ligature2: "'pstf' Post Base Forms in Bengali lookup 6 subtable" u09cd u09af
EndChar

StartChar: u09b0_u09cd.blwf
Encoding: 200 -1 188
Width: 13
GlyphClass: 3
Flags: HW
LayerCount: 2
Fore
SplineSet
-87 108 m 1x90
 -30 108 l 1
 -58 -16 l 2
 -61 -31 -77 -38 -102 -38 c 0x90
 -112 -38 -118 -36 -120 -33 c 0
 -132 -14 -152 -5 -179 -5 c 0x30
 -193 -5 -218 -10 -252 -18 c 0
 -286 -26 -312 -29 -331 -29 c 0
 -371 -28 -398 -19 -414 -3 c 0
 -430 13 -442 44 -451 91 c 1
 -448 106 -444 115 -435 120 c 0
 -431 123 -426 124 -419 124 c 0
 -411 124 -403 121 -396 115 c 1
 -392 81 -383 58 -374 46 c 0
 -364 34 -349 29 -329 29 c 0x50
 -316 29 -293 32 -259 39 c 0
 -213 47 -177 52 -152 52 c 0x30
 -131 52 -114 49 -102 44 c 1
 -87 108 l 1x90
EndSplineSet
Ligature2: "'blwf' Below Base Forms in Bengali2 lookup 4 subtable" u09cd u09f0
Ligature2: "'blwf' Below Base Forms in Bengali2 lookup 4 subtable" u09cd u09b0
EndChar

StartChar: u09ac_u09cd.blwf
Encoding: 201 -1 189
Width: 9
GlyphClass: 3
Flags: HW
LayerCount: 2
Fore
SplineSet
-119 -128 m 1
 -92 -12 l 1
 -188 -61 l 1
 -119 -128 l 1
-67 43 m 0
 -54 43 -43 38 -34 30 c 0
 -29 25 -28 20 -29 14 c 2
 -68 -156 l 2
 -70 -166 -79 -173 -95 -179 c 0
 -102 -182 -109 -183 -116 -183 c 0
 -123 -183 -128 -182 -131 -179 c 2
 -252 -70 l 1
 -256 -63 -258 -59 -257 -56 c 0
 -256 -53 -250 -49 -237 -42 c 2
 -80 40 l 2
 -77 42 -73 43 -67 43 c 0
EndSplineSet
EndChar

StartChar: u0995_u09b0_u09cd.blwf.vatu
Encoding: 202 -1 190
Width: 796
GlyphClass: 3
Flags: HW
AnchorPoint: "Anchor-1" 493 20 basechar 0
LayerCount: 2
Fore
SplineSet
549 585 m 0x7fc0
 582 585 603 571 610 542 c 1
 612 524 l 2
 612 513 612 502 609 489 c 2
 595 430 l 1
 641 470 l 1
 666 490 692 500 719 500 c 0
 726 500 733 499 740 498 c 0
 770 492 793 477 807 452 c 0
 818 431 821 408 815 382 c 0
 813 374 810 365 806 357 c 0
 778 299 733 270 669 270 c 0
 667 270 664 270 662 270 c 1
 659 270 l 1
 651 275 648 283 650 293 c 0
 653 306 661 315 674 320 c 1
 678 320 682 319 686 319 c 0
 709 319 727 327 743 343 c 0
 753 353 760 366 764 382 c 0
 766 389 767 395 767 401 c 0
 758 427 741 440 719 440 c 0
 691 440 656 421 613 383 c 0
 599 371 586 359 576 347 c 1
 508 51 l 2
 506 43 497 35 483 29 c 0
 475 26 467 25 461 24 c 0
 453 24 448 26 445 31 c 0
 418 83 383 109 337 109 c 0x7fc0
 330 109 300 104 246 96 c 0
 222 92 206 91 198 91 c 0
 186 91 174 92 162 94 c 0
 92 116 68 177 91 278 c 0
 95 294 99 311 105 330 c 1
 113 343 122 350 134 350 c 0
 149 350 158 343 161 328 c 1
 153 309 149 292 145 275 c 0
 126 193 149 152 215 152 c 0xbfc0
 222 152 253 157 307 165 c 0
 329 169 345 170 352 170 c 0
 404 170 443 154 467 123 c 1
 551 487 l 2
 557 513 551 526 532 526 c 0
 527 526 522 525 517 524 c 0
 428 500 375 451 358 376 c 0
 352 351 350 323 354 294 c 0
 354 291 355 287 354 284 c 0
 351 270 341 263 324 263 c 0
 313 263 305 268 299 276 c 1
 295 310 296 343 303 375 c 0
 317 436 350 486 399 525 c 0
 438 556 481 576 528 583 c 0
 535 584 542 585 549 585 c 0x7fc0
939 610 m 1
 134 610 l 1
 148 673 l 1
 953 673 l 1
 939 610 l 1
EndSplineSet
Substitution2: "'salt' Stylistic Alternatives in Bengali2 lookup 17-1" u0995_u09cd_u09b0.salt
Ligature2: "'vatu' Vattu Variants in Bengali lookup 7 subtable" u0995 u09b0_u09cd.blwf
EndChar

StartChar: u0996_u09b0_u09cd.blwf.vatu
Encoding: 203 -1 191
Width: 579
GlyphClass: 3
Flags: HW
AnchorPoint: "Anchor-1" 531 10 basechar 0
LayerCount: 2
Fore
SplineSet
484 122 m 1
 498 183 l 1
 499 183 l 1
 600 617 l 2
 609 654 630 673 663 673 c 2
 743 673 l 1
 728 610 l 1
 656 610 l 1
 530 64 l 2
 530 62 528 60 527 58 c 2
 523 41 l 2
 520 26 506 18 481 18 c 0
 472 18 465 19 462 24 c 0
 445 51 419 64 386 64 c 0
 366 64 337 58 299 47 c 0
 266 37 234 33 204 33 c 0
 114 33 66 77 60 167 c 1
 65 185 80 194 101 194 c 0
 107 194 111 193 116 191 c 1
 121 122 153 88 213 88 c 0
 232 88 253 92 278 99 c 0
 326 112 362 120 389 122 c 1
 209 297 l 1
 205 306 205 315 207 324 c 0
 211 341 220 349 232 349 c 0
 271 354 308 369 343 397 c 0
 379 426 402 461 411 499 c 0
 417 524 416 548 409 572 c 1
 367 506 317 473 259 473 c 0
 226 473 192 485 157 508 c 1
 151 515 149 523 151 533 c 0
 155 552 165 562 182 562 c 0
 185 562 188 561 191 560 c 0
 218 540 245 531 270 531 c 0
 322 531 360 565 382 633 c 0
 385 646 389 655 397 660 c 0
 401 662 405 663 411 663 c 0
 417 663 421 661 427 657 c 0
 470 622 482 568 464 496 c 1
 463 491 l 1
 440 404 381 343 286 308 c 1
 484 122 l 1
EndSplineSet
Ligature2: "'vatu' Vattu Variants in Bengali lookup 7 subtable" u0996 u09b0_u09cd.blwf
EndChar

StartChar: u0997_u09b0_u09cd.blwf.vatu
Encoding: 204 -1 192
Width: 577
GlyphClass: 3
Flags: HW
AnchorPoint: "Anchor-1" 511 -3 basechar 0
LayerCount: 2
Fore
SplineSet
307 306 m 0x3b80
 315 339 309 367 293 389 c 0
 278 409 258 418 232 418 c 0
 212 418 191 412 168 399 c 0
 158 393 149 391 142 391 c 0
 128 391 123 399 126 414 c 0
 127 418 129 422 132 427 c 0
 164 495 205 546 255 578 c 0
 284 597 319 612 360 623 c 0
 380 627 398 628 415 628 c 0x3b80
 484 628 536 597 575 535 c 1
 605 663 l 1
 735 663 l 1
 720 600 l 1
 648 600 l 1
 519 43 l 2
 518 38 517 35 514 32 c 1
 512 23 l 2
 509 8 494 0 469 0 c 0
 460 0 453 2 450 7 c 0
 433 34 409 47 376 47 c 0xb780
 356 47 325 41 287 30 c 0
 254 20 224 16 194 16 c 0
 104 16 56 60 50 150 c 1
 55 168 69 177 90 177 c 0
 96 177 100 176 105 174 c 1
 110 105 142 71 202 71 c 0x5380
 221 71 243 75 268 82 c 0
 325 98 366 105 394 105 c 0
 420 105 445 99 469 86 c 1
 487 166 l 1
 490 166 l 1
 538 372 l 2
 548 415 545 451 531 481 c 0
 500 540 453 570 390 570 c 0
 325 570 267 538 216 474 c 1
 254 478 285 473 309 458 c 0
 321 451 333 441 341 429 c 0
 366 396 371 355 360 306 c 0
 344 238 304 187 237 152 c 0
 233 151 231 150 227 150 c 0
 214 150 205 155 202 165 c 0
 201 169 200 173 201 177 c 0
 203 185 210 192 218 199 c 0
 268 226 297 261 307 306 c 0x3b80
EndSplineSet
Ligature2: "'vatu' Vattu Variants in Bengali lookup 7 subtable" u0997 u09b0_u09cd.blwf
EndChar

StartChar: u0998_u09b0_u09cd.blwf.vatu
Encoding: 205 -1 193
Width: 507
GlyphClass: 3
Flags: HW
AnchorPoint: "Anchor-1" 454 -16 basechar 0
LayerCount: 2
Fore
SplineSet
206 548 m 0x1c
 201 525 206 506 222 492 c 0
 233 482 247 477 265 477 c 1
 305 484 l 1
 323 484 330 474 326 455 c 0
 324 448 320 441 314 435 c 2
 191 315 l 1
 405 122 l 1
 406 127 l 1
 518 610 l 1
 260 610 l 1
 229 594 212 573 206 548 c 0x1c
361 70 m 1
 127 287 l 1
 120 291 116 298 118 307 c 0
 120 314 126 321 133 328 c 2
 226 420 l 1
 195 425 171 441 158 468 c 0
 147 489 147 515 153 543 c 0
 158 565 169 588 184 610 c 1
 133 610 l 1
 147 673 l 1
 662 673 l 1
 648 610 l 1
 575 610 l 1
 449 62 l 2
 449 60 448 59 448 57 c 2
 435 3 l 2
 432 -12 417 -19 392 -19 c 0
 382 -19 376 -17 374 -14 c 0
 362 5 341 15 314 15 c 0
 300 15 276 10 241 2 c 0xbc
 207 -6 182 -9 163 -9 c 0
 123 -8 95 0 79 16 c 0
 63 32 51 63 42 110 c 1
 45 125 50 135 59 140 c 0
 63 143 67 144 74 144 c 0
 82 144 91 141 98 135 c 1
 102 101 110 78 119 66 c 0
 129 54 145 48 165 48 c 0x5c
 178 48 201 52 235 59 c 0
 281 67 316 71 341 71 c 0x3c
 348 71 355 71 361 70 c 1
EndSplineSet
Ligature2: "'vatu' Vattu Variants in Bengali lookup 7 subtable" u0998 u09b0_u09cd.blwf
EndChar

StartChar: u0999_u09b0_u09cd.blwf.vatu
Encoding: 206 -1 194
Width: 579
GlyphClass: 3
Flags: HW
AnchorPoint: "Anchor-1" 430 -92 basechar 0
LayerCount: 2
Fore
SplineSet
543 597 m 0x9ec0
 522 617 494 614 461 590 c 0
 436 571 414 547 398 516 c 0
 396 512 394 508 392 504 c 1
 418 498 437 495 451 495 c 0
 490 495 522 515 548 556 c 1
 555 573 554 587 543 597 c 0x9ec0
615 244 m 0
 603 194 575 149 530 109 c 0
 502 83 471 64 438 52 c 1
 410 -68 l 2
 407 -83 393 -91 371 -91 c 0
 364 -91 360 -88 359 -84 c 0
 354 -59 339 -47 319 -47 c 0xdf40
 307 -47 287 -52 259 -63 c 0
 194 -89 151 -103 128 -103 c 0
 90 -103 60 -79 39 -30 c 1
 42 -17 45 -8 51 -3 c 0
 53 -1 56 0 60 0 c 0xbf40
 67 0 74 -3 83 -10 c 1
 91 -42 109 -58 134 -58 c 0
 147 -58 166 -52 192 -42 c 2
 261 -15 l 2
 297 -2 320 4 329 4 c 0
 344 4 359 -2 375 -14 c 1
 387 40 l 1xdf40
 379 39 372 38 365 38 c 0
 304 38 250 64 206 117 c 0
 172 157 151 204 142 256 c 0
 134 305 130 356 131 410 c 0
 131 426 134 460 136 511 c 1
 142 528 152 537 166 537 c 0
 176 537 184 531 188 519 c 1
 182 415 186 335 198 278 c 0
 210 228 230 186 260 151 c 0
 293 113 332 94 376 94 c 0
 412 94 449 108 486 135 c 0
 522 162 546 194 558 230 c 0
 560 234 561 238 562 243 c 0
 572 288 561 327 528 362 c 1
 338 265 l 1
 301 304 287 347 298 394 c 0
 305 425 312 448 321 465 c 0
 321 467 320 468 319 468 c 0
 251 506 210 561 199 633 c 0
 199 647 204 656 216 662 c 0
 221 664 225 665 231 665 c 0
 238 665 243 663 248 659 c 1
 269 593 300 547 344 522 c 1
 360 554 384 586 418 616 c 0
 456 650 490 668 520 671 c 0
 547 674 568 666 585 647 c 0
 593 638 600 625 606 610 c 1
 608 597 607 583 604 568 c 0
 595 530 573 498 538 472 c 0
 505 448 471 436 434 436 c 0
 409 436 387 441 369 450 c 0
 365 450 359 435 352 403 c 0
 346 379 350 358 360 339 c 1
 510 409 l 1
 519 416 530 420 543 420 c 0
 549 420 554 419 559 418 c 1
 612 368 630 310 615 244 c 0
EndSplineSet
Ligature2: "'vatu' Vattu Variants in Bengali lookup 7 subtable" u0999 u09b0_u09cd.blwf
EndChar

StartChar: u099a_u09b0_u09cd.blwf.vatu
Encoding: 207 -1 195
Width: 443
GlyphClass: 3
Flags: HW
AnchorPoint: "Anchor-1" 297 -77 basechar 0
LayerCount: 2
Fore
SplineSet
234 475 m 1
 158 145 l 2
 150 112 158 95 179 95 c 0
 188 95 200 99 216 107 c 0
 250 125 285 156 324 202 c 0
 365 252 390 297 399 336 c 0
 402 347 404 357 403 366 c 1
 398 381 371 398 322 415 c 0
 273 432 244 452 234 475 c 1
265 77 m 1
 237 57 210 43 183 35 c 0
 179 34 174 33 169 33 c 0
 142 33 123 44 108 65 c 0
 96 84 92 107 98 133 c 2
 208 610 l 1
 138 610 l 1
 153 673 l 1
 609 673 l 1
 595 610 l 1
 265 610 l 1
 256 570 l 1
 265 534 288 504 324 483 c 1
 414 440 l 2
 440 426 455 406 457 383 c 0
 459 370 457 355 453 337 c 0
 439 277 404 215 347 152 c 0
 338 142 330 134 321 125 c 1
 324 126 l 1
 284 -48 l 2
 281 -63 267 -71 245 -71 c 0
 238 -71 233 -69 232 -65 c 0
 227 -40 213 -27 193 -27 c 0
 181 -27 161 -33 133 -44 c 0
 68 -70 25 -83 2 -83 c 0
 -36 -83 -66 -59 -87 -10 c 1
 -84 3 -81 12 -75 17 c 0
 -73 19 -70 20 -66 20 c 0
 -59 20 -52 17 -43 10 c 1
 -35 -22 -17 -38 8 -38 c 0
 21 -38 39 -33 65 -23 c 2
 135 5 l 2
 171 18 193 24 202 24 c 0
 217 24 233 18 249 6 c 1
 265 77 l 1
EndSplineSet
Ligature2: "'vatu' Vattu Variants in Bengali lookup 7 subtable" u099a u09b0_u09cd.blwf
EndChar

StartChar: u099b_u09b0_u09cd.blwf.vatu
Encoding: 208 -1 196
Width: 574
GlyphClass: 3
Flags: HW
AnchorPoint: "Anchor-1" 448 -103 basechar 0
LayerCount: 2
Fore
SplineSet
266 524 m 1
 221 327 l 2
 217 310 222 301 237 301 c 0
 262 301 300 319 348 354 c 0
 407 398 431 433 421 457 c 0
 415 473 395 482 361 488 c 0
 310 497 278 509 266 524 c 1
584 392 m 0
 572 338 541 285 494 234 c 0
 468 206 440 184 413 167 c 0
 393 156 368 145 337 136 c 1
 409 132 478 110 546 69 c 0
 570 54 591 38 609 21 c 1
 611 12 612 6 610 -1 c 0
 606 -18 594 -26 573 -25 c 2
 569 -25 l 1
 534 7 493 31 445 50 c 1
 416 -75 l 2
 413 -90 399 -98 377 -98 c 0
 370 -98 366 -96 365 -92 c 0
 360 -67 345 -54 325 -54 c 0
 313 -54 294 -60 266 -71 c 0
 201 -97 157 -110 134 -110 c 0
 96 -110 67 -86 46 -37 c 1
 49 -24 51 -15 57 -10 c 0
 59 -8 62 -7 66 -7 c 0
 73 -7 80 -10 89 -17 c 1
 97 -49 115 -65 140 -65 c 0
 153 -65 172 -60 198 -50 c 2
 267 -22 l 2
 303 -9 325 -3 334 -3 c 0
 349 -3 365 -9 381 -21 c 1
 401 65 l 1
 346 81 272 92 182 97 c 1
 175 105 173 116 176 129 c 0
 179 140 183 147 193 152 c 1
 243 158 278 163 296 168 c 0
 331 177 364 194 394 216 c 1
 424 235 453 261 480 294 c 0
 509 329 528 363 535 394 c 0
 545 439 527 468 482 482 c 1
 481 474 481 466 479 458 c 0
 466 403 430 355 370 312 c 0
 315 273 262 252 216 252 c 0
 169 252 151 275 161 320 c 2
 227 604 l 1
 220 610 l 1
 135 610 l 1
 150 673 l 1
 728 673 l 1
 714 612 l 1
 286 612 l 1
 280 587 302 567 348 554 c 0
 378 546 407 542 440 542 c 0
 455 542 466 542 475 544 c 1
 530 540 566 519 581 479 c 0
 590 455 592 426 584 392 c 0
EndSplineSet
Ligature2: "'vatu' Vattu Variants in Bengali lookup 7 subtable" u099b u09b0_u09cd.blwf
EndChar

StartChar: u099c_u09b0_u09cd.blwf.vatu
Encoding: 209 -1 197
Width: 618
GlyphClass: 3
Flags: HW
AnchorPoint: "Anchor-1" 600 39 basechar 0
LayerCount: 2
Fore
SplineSet
354 218 m 0x7f80
 387 218 414 229 438 250 c 0
 458 267 470 288 476 312 c 0
 482 337 479 363 466 388 c 1
 453 386 432 378 400 365 c 0
 371 352 349 346 335 346 c 0
 328 346 320 347 314 350 c 0
 282 375 271 410 281 455 c 0
 294 512 329 563 386 610 c 1
 135 610 l 1
 150 673 l 1
 780 673 l 1
 766 610 l 1
 584 610 l 1
 704 507 l 1
 716 502 720 489 715 469 c 0
 714 465 712 462 711 460 c 0
 664 411 631 345 612 262 c 0
 598 202 592 137 594 66 c 1
 586 47 574 38 555 38 c 0
 550 38 546 39 542 41 c 1
 524 70 493 85 453 85 c 0x7f80
 428 85 389 79 336 67 c 0
 283 55 244 49 218 49 c 0
 130 49 81 97 73 192 c 1
 80 212 91 221 105 221 c 0
 112 221 121 217 129 210 c 1
 136 140 167 105 224 105 c 0xbf80
 251 105 291 111 346 123 c 0
 401 135 441 141 468 141 c 0
 494 141 517 138 538 131 c 1
 548 200 557 247 563 274 c 0
 580 346 609 411 653 471 c 1
 501 602 l 2
 496 605 491 607 484 607 c 0
 463 607 436 593 406 566 c 0
 376 539 354 510 341 479 c 1
 335 461 l 1
 330 438 334 419 347 404 c 0
 350 403 351 403 354 403 c 0
 361 403 380 410 409 425 c 0
 438 440 462 447 482 447 c 0
 488 447 493 446 499 445 c 1
 533 419 543 377 530 320 c 0
 519 274 497 236 464 206 c 0
 439 183 412 169 382 165 c 0
 369 163 357 162 346 162 c 0
 204 162 144 289 166 544 c 1
 179 555 190 560 200 560 c 0
 207 560 215 558 221 552 c 1
 210 437 220 351 249 292 c 0
 274 243 308 218 354 218 c 0x7f80
EndSplineSet
Ligature2: "'vatu' Vattu Variants in Bengali lookup 7 subtable" u099c u09b0_u09cd.blwf
EndChar

StartChar: u099d_u09b0_u09cd.blwf.vatu
Encoding: 210 -1 198
Width: 648
GlyphClass: 3
Flags: HW
AnchorPoint: "Anchor-1" 383 7 basechar 0
LayerCount: 2
Fore
SplineSet
353 124 m 2x3c
 353 126 356 137 360 158 c 0
 362 166 364 173 366 178 c 2
 438 491 l 1
 180 342 l 1
 353 124 l 2x3c
272 118 m 1x7c
 110 326 l 2
 107 329 106 336 108 345 c 0
 111 358 118 368 128 373 c 2
 454 560 l 1
 466 610 l 1
 138 610 l 1
 152 673 l 1
 480 673 l 2
 518 673 534 652 524 610 c 2
 464 351 l 1
 575 238 l 1
 661 610 l 2
 671 652 695 673 733 673 c 2
 813 673 l 1
 799 610 l 1
 719 610 l 1
 615 162 l 2
 612 149 600 142 580 142 c 0
 568 142 561 145 556 152 c 2
 446 272 l 1
 396 57 l 2
 396 55 394 53 394 51 c 2
 390 36 l 2
 387 21 373 13 348 13 c 0
 339 13 332 15 329 20 c 0
 312 47 287 60 254 60 c 0x7c
 234 60 204 53 166 42 c 0
 133 32 102 28 72 28 c 0
 -18 28 -66 73 -72 163 c 1
 -67 181 -53 189 -32 189 c 0
 -26 189 -22 189 -17 187 c 1
 -12 118 20 83 80 83 c 0xbc
 99 83 121 87 146 94 c 0
 203 110 244 118 272 118 c 1x7c
EndSplineSet
Ligature2: "'vatu' Vattu Variants in Bengali lookup 7 subtable" u099d u09b0_u09cd.blwf
EndChar

StartChar: u099e_u09b0_u09cd.blwf.vatu
Encoding: 211 -1 199
Width: 839
GlyphClass: 3
Flags: HW
AnchorPoint: "Anchor-1" 564 -101 basechar 0
LayerCount: 2
Fore
SplineSet
870 342 m 1xcfb0
 903 315 913 278 903 233 c 0xcf88
 891 183 859 150 804 135 c 0
 796 134 787 133 779 133 c 0
 701 133 651 195 629 320 c 1
 641 375 l 1
 670 426 697 463 719 485 c 0
 763 529 806 552 851 555 c 1
 884 552 909 539 926 514 c 0
 941 492 946 466 939 437 c 0
 931 402 908 370 870 342 c 1xcfb0
843 241 m 0
 847 260 840 277 824 292 c 0
 811 304 796 310 778 310 c 1
 765 319 760 329 763 340 c 0
 766 351 774 361 788 369 c 1
 812 372 834 383 853 401 c 0
 866 414 874 428 878 444 c 0xcf90
 886 477 870 493 830 493 c 0
 807 493 778 475 747 438 c 0
 739 429 717 399 680 348 c 1
 686 305 698 268 718 238 c 0
 738 208 762 193 789 193 c 0
 794 193 798 194 804 195 c 0
 826 208 839 223 843 241 c 0
334 426 m 0
 349 489 381 543 432 589 c 0
 471 624 513 647 559 659 c 0
 574 664 587 667 599 667 c 0
 625 667 648 656 667 633 c 0
 684 612 688 581 679 540 c 2
 577 99 l 1xd7c0
 578 99 l 1
 538 -75 l 2
 535 -90 521 -98 499 -98 c 0
 492 -98 486 -96 485 -92 c 0
 480 -67 467 -54 447 -54 c 0
 435 -54 415 -60 387 -71 c 0
 322 -97 278 -110 255 -110 c 0
 217 -110 187 -86 166 -37 c 1
 169 -24 172 -15 178 -10 c 0
 180 -8 184 -7 188 -7 c 0
 195 -7 201 -10 210 -17 c 1
 218 -49 236 -65 261 -65 c 0
 274 -65 292 -60 318 -50 c 2
 388 -22 l 2
 424 -9 447 -3 456 -3 c 0
 471 -3 486 -9 502 -21 c 1
 515 37 l 1xd7a0
 511 38 507 39 506 42 c 0
 480 97 437 125 378 125 c 0xd7c0
 370 125 332 121 265 112 c 0
 236 108 216 106 207 106 c 0
 190 106 175 108 162 111 c 1
 117 131 90 160 82 201 c 0
 76 230 79 267 89 312 c 0
 93 330 98 350 105 373 c 1
 115 381 126 385 134 385 c 0
 144 385 152 379 158 369 c 1
 148 334 143 313 141 306 c 0
 128 249 136 208 164 182 c 0
 177 170 197 164 220 164 c 0xe7c0
 234 164 259 167 296 174 c 0
 333 181 362 184 382 184 c 0
 439 184 487 164 525 123 c 1
 620 536 l 2xd7c0
 631 584 622 608 591 608 c 0
 575 608 552 600 522 585 c 0
 453 551 410 502 395 438 c 0
 388 409 386 376 389 337 c 1
 383 320 372 311 353 311 c 0
 343 311 336 314 331 321 c 1
 325 355 326 390 334 426 c 0
EndSplineSet
Ligature2: "'vatu' Vattu Variants in Bengali lookup 7 subtable" u099e u09b0_u09cd.blwf
EndChar

StartChar: u099f_u09b0_u09cd.blwf.vatu
Encoding: 212 -1 200
Width: 460
GlyphClass: 3
Flags: HW
AnchorPoint: "Anchor-1" 300 -79 basechar 0
LayerCount: 2
Fore
SplineSet
369 425 m 0xff80
 372 438 380 447 393 453 c 0
 399 456 404 457 410 457 c 1
 455 416 472 371 460 321 c 0xff80
 446 260 409 198 351 135 c 2
 338 120 l 1
 341 121 l 1
 300 -53 l 2
 297 -68 284 -76 262 -76 c 0
 255 -76 249 -74 248 -70 c 0
 243 -45 230 -32 210 -32 c 0
 198 -32 178 -38 150 -49 c 0
 85 -75 41 -88 18 -88 c 0
 -20 -88 -50 -64 -71 -15 c 1
 -68 -2 -64 7 -58 12 c 0
 -56 14 -53 15 -49 15 c 0
 -42 15 -36 12 -27 5 c 1
 -19 -27 -1 -43 24 -43 c 0
 37 -43 55 -38 81 -28 c 2
 151 0 l 2
 187 13 210 19 219 19 c 0
 234 19 249 13 265 1 c 1
 281 71 l 1
 247 47 214 35 183 35 c 0
 160 35 141 47 126 72 c 0
 111 100 106 129 112 160 c 2
 216 609 l 1
 195 610 171 610 149 610 c 2
 137 610 l 1
 152 673 l 1
 506 673 l 1
 509 680 512 686 513 692 c 0
 523 735 482 756 389 756 c 1
 308 753 l 1
 223 763 170 775 151 789 c 0
 118 811 107 858 120 930 c 1
 124 943 134 949 149 949 c 0
 161 949 169 945 173 936 c 1
 162 885 171 851 200 833 c 0
 222 820 261 813 318 813 c 2
 373 813 l 2
 441 812 488 806 516 794 c 0
 562 773 578 733 564 673 c 1xff40
 612 673 l 1
 598 610 l 1
 274 610 l 1
 174 176 l 2
 169 154 173 137 187 125 c 0
 195 118 205 115 217 115 c 0
 240 115 267 128 296 154 c 0
 357 210 394 264 406 315 c 0
 412 342 411 362 404 375 c 2
 395 386 l 1
 370 412 l 2
 368 416 368 420 369 425 c 0xff80
EndSplineSet
Ligature2: "'vatu' Vattu Variants in Bengali lookup 7 subtable" u099f u09b0_u09cd.blwf
EndChar

StartChar: u09a0_u09b0_u09cd.blwf.vatu
Encoding: 213 -1 201
Width: 480
GlyphClass: 3
Flags: HW
AnchorPoint: "Anchor-1" 354 -81 basechar 0
LayerCount: 2
Fore
SplineSet
389 551 m 1xfdc0
 387 540 385 528 382 517 c 0
 354 394 273 304 141 246 c 1
 134 216 132 190 136 168 c 0
 138 157 143 146 148 137 c 0
 163 109 186 94 218 94 c 0
 251 94 285 109 322 140 c 0
 378 187 413 241 428 304 c 0
 446 381 432 464 389 551 c 1xfdc0
323 75 m 1
 286 51 249 39 209 39 c 0
 187 39 165 44 145 52 c 0
 122 61 104 85 91 125 c 0
 78 164 75 202 83 236 c 0xfdc0
 89 261 99 279 115 292 c 1
 185 320 238 354 272 394 c 0
 302 429 323 472 335 524 c 0
 341 550 345 579 347 610 c 1
 135 610 l 1
 149 673 l 1
 334 673 l 1
 331 688 322 721 304 774 c 0
 281 849 274 907 284 950 c 0
 297 1005 337 1040 406 1052 c 1
 422 1047 427 1035 423 1016 c 0
 421 1006 415 999 408 996 c 1
 368 996 345 980 338 949 c 0xfbc0
 333 927 336 891 346 842 c 1
 368 766 385 709 397 673 c 1
 635 673 l 1
 620 610 l 1
 429 610 l 1
 485 506 500 402 476 297 c 0
 461 233 430 175 380 123 c 1
 383 124 l 1
 342 -51 l 2
 339 -66 325 -74 303 -74 c 0
 296 -74 291 -71 290 -67 c 0
 285 -42 271 -30 251 -30 c 0
 239 -30 220 -35 192 -46 c 0
 127 -72 83 -85 60 -85 c 0
 22 -85 -8 -62 -29 -13 c 1
 -26 0 -23 9 -17 14 c 0
 -15 16 -11 18 -7 18 c 0
 0 18 5 14 14 7 c 1
 22 -25 41 -41 66 -41 c 0
 79 -41 97 -35 123 -25 c 2
 193 2 l 2
 229 15 251 21 260 21 c 0
 275 21 290 15 306 3 c 1
 323 75 l 1
EndSplineSet
Ligature2: "'vatu' Vattu Variants in Bengali lookup 7 subtable" u09a0 u09b0_u09cd.blwf
EndChar

StartChar: u09a1_u09b0_u09cd.blwf.vatu
Encoding: 214 -1 202
Width: 681
GlyphClass: 3
Flags: HW
AnchorPoint: "Anchor-1" 440 -104 basechar 0
LayerCount: 2
Fore
SplineSet
390 36 m 1
 333 42 282 69 241 119 c 0
 222 142 207 168 196 195 c 0
 166 271 149 373 144 502 c 1
 146 513 152 521 162 526 c 0
 167 529 172 530 178 530 c 0
 187 530 194 526 199 519 c 1
 206 408 217 329 232 281 c 1
 241 233 262 191 292 156 c 0
 328 115 371 94 419 94 c 0
 470 94 517 119 563 168 c 0
 594 201 615 240 625 285 c 0
 637 335 632 377 612 412 c 1
 558 361 525 330 510 319 c 0
 468 288 430 272 396 272 c 1
 356 279 343 316 358 382 c 2
 411 610 l 1
 135 610 l 1
 150 673 l 1
 838 673 l 1
 824 610 l 1
 468 610 l 1
 409 353 l 1
 411 340 417 333 427 333 c 0
 444 333 469 347 503 376 c 0
 533 402 563 433 595 470 c 0
 600 477 608 480 616 480 c 0
 629 480 639 474 647 463 c 0
 684 414 695 358 681 296 c 0
 674 264 659 229 638 190 c 1
 575 99 508 48 437 37 c 1
 411 -78 l 2
 408 -93 394 -101 372 -101 c 0
 365 -101 361 -98 360 -94 c 0
 355 -69 340 -57 320 -57 c 0
 308 -57 288 -62 260 -73 c 0
 195 -99 153 -112 130 -112 c 0
 92 -112 61 -89 40 -40 c 1
 43 -27 46 -18 52 -13 c 0
 54 -11 57 -9 61 -9 c 0
 68 -9 75 -13 84 -20 c 1
 92 -52 110 -67 135 -67 c 0
 148 -67 167 -62 193 -52 c 2
 262 -24 l 2
 298 -11 320 -5 329 -5 c 0
 344 -5 360 -11 376 -23 c 1
 390 36 l 1
EndSplineSet
Ligature2: "'vatu' Vattu Variants in Bengali lookup 7 subtable" u09a1 u09b0_u09cd.blwf
EndChar

StartChar: u09a2_u09b0_u09cd.blwf.vatu
Encoding: 215 -1 203
Width: 469
GlyphClass: 3
Flags: HW
AnchorPoint: "Anchor-1" 328 -74 basechar 0
LayerCount: 2
Fore
SplineSet
383 425 m 0
 386 438 393 447 406 453 c 0
 412 456 418 457 424 457 c 1
 469 416 486 371 474 321 c 0
 460 260 423 198 365 135 c 2
 355 124 l 1
 317 -43 l 2
 314 -58 299 -66 277 -66 c 0
 270 -66 265 -64 264 -60 c 0
 259 -35 246 -22 226 -22 c 0
 214 -22 194 -28 166 -39 c 0
 101 -65 57 -78 34 -78 c 0
 -3 -78 -34 -54 -55 -5 c 1
 -52 8 -49 16 -43 21 c 0
 -41 23 -37 25 -33 25 c 0
 -26 25 -20 22 -11 15 c 1
 -3 -17 15 -33 40 -33 c 0
 53 -33 71 -28 97 -18 c 2
 167 10 l 2
 203 23 226 29 235 29 c 0
 250 29 265 23 281 11 c 1
 295 71 l 1
 261 47 228 35 197 35 c 0
 174 35 154 47 139 72 c 0
 124 100 120 129 126 160 c 2
 230 609 l 1
 137 610 l 1
 152 673 l 1
 626 673 l 1
 612 610 l 1
 288 610 l 1
 188 176 l 2
 183 154 187 137 201 125 c 0
 209 118 219 115 231 115 c 0
 254 115 281 128 310 154 c 0
 371 210 408 264 420 315 c 0
 426 342 424 362 417 375 c 2
 408 386 l 1
 384 412 l 2
 382 416 382 420 383 425 c 0
EndSplineSet
Ligature2: "'vatu' Vattu Variants in Bengali lookup 7 subtable" u09a2 u09b0_u09cd.blwf
EndChar

StartChar: u09a3_u09b0_u09cd.blwf.vatu
Encoding: 216 -1 204
Width: 474
GlyphClass: 3
Flags: HW
AnchorPoint: "Anchor-1" 402 42 basechar 0
LayerCount: 2
Fore
SplineSet
130 461 m 0x76
 144 522 175 569 223 603 c 0
 264 632 311 646 365 646 c 0x76
 409 646 448 627 482 588 c 1
 495 645 522 673 560 673 c 2
 629 673 l 1
 615 610 l 1
 545 610 l 1
 420 69 l 2
 416 52 405 44 387 44 c 0
 372 44 365 49 362 57 c 1
 360 55 358 55 356 55 c 0
 355 55 355 55 354 55 c 0
 339 81 319 94 299 94 c 0x6e
 286 94 253 85 200 67 c 1
 165 51 136 43 113 43 c 0
 64 43 28 80 9 155 c 0
 8 160 9 164 10 169 c 0
 13 183 23 190 39 190 c 0
 45 190 51 189 57 186 c 1
 71 133 92 106 124 106 c 0xa6
 136 106 155 110 179 118 c 2
 254 142 l 2
 279 149 299 153 316 153 c 0
 340 153 360 144 375 124 c 1
 442 414 l 2
 445 429 447 455 448 493 c 0
 449 521 439 544 415 563 c 0
 393 581 366 591 335 591 c 0
 298 591 264 577 233 548 c 1
 218 532 l 2
 200 511 188 487 182 461 c 0
 174 426 178 397 194 373 c 0
 208 352 227 340 252 339 c 1
 259 336 261 330 258 319 c 0
 255 306 249 295 239 288 c 0
 235 285 231 283 226 283 c 0
 162 297 129 336 125 398 c 0
 123 419 125 440 130 461 c 0x76
EndSplineSet
Ligature2: "'vatu' Vattu Variants in Bengali lookup 7 subtable" u09a3 u09b0_u09cd.blwf
EndChar

StartChar: u09a4_u09b0_u09cd.blwf.vatu
Encoding: 217 -1 205
Width: 562
GlyphClass: 3
Flags: HW
AnchorPoint: "Anchor-1" 498 19 basechar 0
LayerCount: 2
Fore
SplineSet
210 152 m 0xbe
 217 152 248 157 302 165 c 0
 324 169 341 170 348 170 c 0
 400 170 439 154 463 123 c 1
 547 487 l 2
 553 513 547 526 528 526 c 0
 523 526 519 525 514 524 c 0
 425 500 371 451 354 376 c 0
 348 351 347 323 351 294 c 0
 351 291 351 287 350 284 c 0
 347 270 337 263 320 263 c 0
 309 263 302 268 296 276 c 1
 292 310 293 343 300 375 c 0
 314 436 345 486 394 525 c 0
 433 556 477 576 524 583 c 0
 531 584 537 585 544 585 c 0
 577 585 599 571 606 542 c 1
 609 524 l 2
 609 513 608 502 605 489 c 2
 504 51 l 2
 502 43 492 35 478 29 c 0
 470 26 464 25 458 24 c 0
 450 24 445 26 442 31 c 0
 415 83 379 109 333 109 c 0x7e
 326 109 296 104 242 96 c 0
 218 92 202 91 194 91 c 0
 182 91 170 92 158 94 c 0
 88 116 64 177 87 278 c 0
 91 294 96 311 102 330 c 1
 110 343 118 350 130 350 c 0
 145 350 155 343 158 328 c 1
 150 309 145 292 141 275 c 0
 122 193 144 152 210 152 c 0xbe
144 673 m 1
 717 673 l 1
 703 610 l 1
 130 610 l 1
 144 673 l 1
EndSplineSet
Substitution2: "'salt' Stylistic Alternatives in Bengali2 lookup 17-1" u09a4_u09b0_u09cd.vatu.salt
Ligature2: "'vatu' Vattu Variants in Bengali lookup 7 subtable" u09a4 u09b0_u09cd.blwf
EndChar

StartChar: u09a5_u09b0_u09cd.blwf.vatu
Encoding: 218 -1 206
Width: 547
GlyphClass: 3
Flags: HW
AnchorPoint: "Anchor-1" 486 -41 basechar 0
LayerCount: 2
Fore
SplineSet
325 653 m 0x6e
 375 653 410 637 429 603 c 0
 444 577 446 543 437 504 c 0
 429 469 411 432 385 394 c 0
 362 361 323 327 269 292 c 1
 448 117 l 1
 561 610 l 2
 567 635 580 654 601 665 c 0
 611 671 623 673 634 673 c 2
 704 673 l 1
 690 610 l 1
 619 610 l 1
 492 60 l 2
 491 56 489 52 486 49 c 1
 471 -14 l 2
 468 -29 453 -36 428 -36 c 0
 418 -36 412 -34 410 -31 c 0
 398 -12 378 -2 351 -2 c 0x5e
 337 -2 312 -7 278 -15 c 0
 244 -23 218 -26 199 -26 c 0
 159 -25 131 -17 115 -1 c 0
 99 15 87 46 78 93 c 1
 81 108 86 118 95 123 c 0
 99 126 104 126 111 126 c 0
 119 126 127 124 134 118 c 1
 138 84 147 61 156 49 c 0
 166 37 181 31 201 31 c 0x8e
 214 31 237 35 271 42 c 0
 317 50 352 54 377 54 c 0
 398 54 415 51 427 46 c 1
 428 49 l 1
 198 274 l 1
 196 283 196 292 198 299 c 0
 201 310 207 318 216 321 c 0
 248 333 280 355 312 387 c 0
 352 426 376 465 385 504 c 0
 395 547 380 576 343 592 c 1
 331 594 320 595 311 595 c 0
 255 595 218 560 199 489 c 1
 193 475 183 468 165 468 c 0
 153 468 147 473 145 482 c 1
 159 558 190 609 239 634 c 0
 263 647 292 653 325 653 c 0x6e
EndSplineSet
Ligature2: "'vatu' Vattu Variants in Bengali lookup 7 subtable" u09a5 u09b0_u09cd.blwf
EndChar

StartChar: u09a6_u09b0_u09cd.blwf.vatu
Encoding: 219 -1 207
Width: 404
GlyphClass: 3
Flags: HW
AnchorPoint: "Anchor-1" 351 18 basechar 0
LayerCount: 2
Fore
SplineSet
353 55 m 0xb8
 350 44 345 33 336 24 c 0
 331 18 327 17 324 19 c 0
 318 27 312 34 307 40 c 0
 305 40 303 40 301 40 c 2
 301 45 l 1
 291 53 279 57 268 57 c 0x78
 255 57 223 48 170 30 c 1
 135 14 105 6 82 6 c 0
 33 6 -2 43 -21 118 c 0
 -22 123 -21 127 -20 132 c 0
 -17 146 -7 153 9 153 c 0
 15 153 20 152 26 149 c 1
 40 96 62 69 94 69 c 0xb8
 106 69 125 73 149 81 c 2
 223 104 l 2
 248 112 269 116 286 116 c 2
 287 116 l 1x78
 283 160 286 205 297 251 c 0
 310 306 336 370 373 443 c 1
 297 414 223 364 152 294 c 1
 143 289 134 287 125 287 c 0
 107 287 101 295 104 310 c 2
 174 610 l 1
 131 610 l 1
 145 673 l 1
 566 673 l 1
 551 610 l 1
 231 610 l 1
 177 375 l 1
 195 394 226 417 268 445 c 0
 338 492 388 514 419 514 c 0
 422 514 424 513 427 513 c 0
 446 511 454 499 448 478 c 1
 398 389 365 316 352 258 c 0
 338 196 339 133 356 69 c 0
 356 66 354 61 353 55 c 0xb8
EndSplineSet
Ligature2: "'vatu' Vattu Variants in Bengali lookup 7 subtable" u09a6 u09b0_u09cd.blwf
EndChar

StartChar: u09a7_u09b0_u09cd.blwf.vatu
Encoding: 220 -1 208
Width: 454
GlyphClass: 3
Flags: HW
AnchorPoint: "Anchor-1" 385 -33 basechar 0
LayerCount: 2
Fore
SplineSet
353 121 m 1x38
 440 495 l 1
 177 344 l 1
 353 121 l 1x38
157 558 m 0
 168 606 197 638 245 657 c 0
 269 666 297 671 327 671 c 1
 337 668 341 659 338 646 c 0
 334 629 326 618 314 612 c 1
 254 612 220 595 212 562 c 0
 210 555 210 546 211 538 c 0
 223 499 251 480 293 480 c 0
 300 480 307 481 314 482 c 1
 456 564 l 1
 466 610 l 2
 476 652 500 673 538 673 c 2
 609 673 l 1
 595 610 l 1
 524 610 l 1
 410 118 l 1
 411 118 l 1
 383 -6 l 2
 380 -21 364 -28 339 -28 c 0
 329 -28 323 -26 321 -23 c 0
 309 -4 288 5 261 5 c 0x78
 247 5 222 0 188 -8 c 0
 154 -16 129 -19 110 -19 c 0
 70 -18 41 -10 25 6 c 0
 9 22 -2 54 -11 101 c 1
 -8 116 -3 125 6 130 c 0
 10 133 14 134 21 134 c 0
 29 134 38 131 45 125 c 1
 49 91 58 68 67 56 c 0
 77 44 91 39 111 39 c 0xb8
 124 39 148 42 182 49 c 0
 228 57 263 62 288 62 c 0x78
 301 62 312 61 322 59 c 1
 113 328 l 2
 110 333 110 339 112 347 c 0
 115 359 120 370 131 380 c 1
 227 432 l 1
 184 455 159 489 154 534 c 0
 155 542 155 550 157 558 c 0
EndSplineSet
Ligature2: "'vatu' Vattu Variants in Bengali lookup 7 subtable" u09a7 u09b0_u09cd.blwf
EndChar

StartChar: u09a8_u09b0_u09cd.blwf.vatu
Encoding: 221 -1 209
Width: 488
GlyphClass: 3
Flags: HW
AnchorPoint: "Anchor-1" 405 1 basechar 0
LayerCount: 2
Fore
SplineSet
100 277 m 0x7e
 113 332 141 375 185 408 c 0
 224 438 271 453 323 453 c 0
 378 453 420 432 450 390 c 1
 500 610 l 1
 134 610 l 1
 149 673 l 1
 643 673 l 1
 629 610 l 1
 558 610 l 1
 424 28 l 2
 421 13 406 5 381 5 c 0
 372 5 365 7 362 12 c 0
 345 39 321 52 288 52 c 0x7e
 268 52 237 46 199 35 c 0
 166 25 136 21 106 21 c 0
 16 21 -32 65 -38 155 c 1
 -33 173 -19 182 2 182 c 0
 8 182 12 181 17 179 c 1
 22 110 54 76 114 76 c 0xbe
 133 76 155 79 180 86 c 0
 237 102 278 110 306 110 c 0
 332 110 357 104 381 91 c 1
 420 263 l 1
 422 326 404 367 365 384 c 0
 348 391 328 395 304 395 c 0
 262 395 227 381 198 353 c 0
 176 332 162 306 155 276 c 0
 146 239 148 211 161 192 c 0
 167 183 179 173 195 162 c 0
 198 157 199 152 198 146 c 0
 195 135 190 126 179 119 c 0
 172 115 166 114 160 115 c 0
 126 131 105 158 98 195 c 0
 93 222 94 249 100 277 c 0x7e
EndSplineSet
Ligature2: "'vatu' Vattu Variants in Bengali lookup 7 subtable" u09a8 u09b0_u09cd.blwf
EndChar

StartChar: u09aa_u09b0_u09cd.blwf.vatu
Encoding: 222 -1 210
Width: 601
GlyphClass: 3
Flags: HW
AnchorPoint: "Anchor-1" 537 30 basechar 0
LayerCount: 2
Fore
SplineSet
493 542 m 1x28
 461 585 424 606 382 606 c 0
 340 606 295 585 244 542 c 1
 324 398 l 1
 493 542 l 1x28
148 439 m 0
 135 439 126 446 122 459 c 0
 121 463 121 467 121 472 c 1
 188 575 269 638 362 661 c 0
 377 664 390 666 404 666 c 0x68
 486 666 547 611 588 502 c 1
 613 609 l 2
 618 630 630 647 649 660 c 0
 661 668 672 673 685 673 c 2
 756 673 l 1
 741 610 l 1
 671 610 l 1
 543 55 l 2
 540 42 529 35 510 35 c 0
 490 35 482 41 485 54 c 2
 487 66 l 1
 483 62 480 61 477 62 c 1
 462 88 442 101 422 101 c 0x58
 409 101 377 92 324 74 c 1
 289 58 259 50 236 50 c 0
 187 50 152 87 133 162 c 0
 132 167 132 171 133 176 c 0
 136 190 145 197 161 197 c 0
 167 197 174 196 180 193 c 1
 194 140 215 113 247 113 c 0x88
 259 113 279 117 303 125 c 2
 377 148 l 2
 402 156 422 160 439 160 c 0x48
 465 160 486 149 501 126 c 1
 548 328 l 2
 555 359 554 390 547 422 c 0
 544 437 536 463 521 500 c 1
 256 276 l 1
 240 272 229 276 224 287 c 0
 221 292 221 299 223 306 c 0
 224 310 225 314 227 317 c 2
 274 358 l 1
 201 493 l 1
 162 443 l 1
 157 440 153 439 148 439 c 0
EndSplineSet
Ligature2: "'vatu' Vattu Variants in Bengali lookup 7 subtable" u09aa u09b0_u09cd.blwf
EndChar

StartChar: u09ab_u09b0_u09cd.blwf.vatu
Encoding: 223 -1 211
Width: 647
GlyphClass: 3
Flags: HW
AnchorPoint: "Anchor-1" 400 10 basechar 0
LayerCount: 2
Fore
SplineSet
627 389 m 0x7e
 638 438 628 474 595 496 c 0
 575 509 548 515 515 515 c 1
 434 164 l 1
 435 164 l 1
 406 40 l 2
 403 25 388 18 363 18 c 0
 353 18 346 20 344 23 c 0
 332 42 312 51 285 51 c 0x7e
 271 51 246 47 211 39 c 0
 177 31 152 27 133 27 c 0
 93 28 66 37 50 53 c 0
 34 69 22 100 13 147 c 1
 16 162 20 171 29 176 c 0
 33 179 38 180 45 180 c 0
 53 180 62 177 69 171 c 1
 73 137 80 115 89 103 c 0
 99 91 115 85 135 85 c 0xbe
 148 85 172 88 206 95 c 0
 243 102 274 106 297 107 c 1
 124 297 l 1
 122 305 121 312 123 319 c 0
 125 328 131 338 141 347 c 2
 259 443 l 1
 158 610 l 1
 135 610 l 1
 149 673 l 1
 803 673 l 1
 789 610 l 1
 232 610 l 1
 320 463 l 1
 322 449 321 437 315 429 c 0
 312 424 308 421 304 418 c 2
 186 321 l 1
 366 121 l 1
 457 514 l 2
 466 551 479 570 499 570 c 0
 603 570 664 538 681 474 c 0
 688 446 688 417 681 387 c 0
 672 347 654 311 625 280 c 0
 599 251 572 236 544 233 c 1
 529 235 523 246 528 267 c 0
 531 280 538 288 549 292 c 1
 565 290 583 301 600 327 c 0
 613 346 622 367 627 389 c 0x7e
EndSplineSet
Ligature2: "'vatu' Vattu Variants in Bengali lookup 7 subtable" u09ab u09b0_u09cd.blwf
EndChar

StartChar: u09ac_u09b0_u09cd.blwf.vatu
Encoding: 224 -1 212
Width: 452
GlyphClass: 3
Flags: HW
AnchorPoint: "Anchor-1" 387 -29 basechar 0
LayerCount: 2
Fore
SplineSet
355 128 m 1x30
 441 500 l 1
 178 347 l 1
 355 128 l 1x30
330 57 m 1
 113 332 l 2
 109 337 108 343 110 352 c 0
 113 363 118 371 125 375 c 2
 456 564 l 1
 466 610 l 1
 136 610 l 1
 151 673 l 1
 609 673 l 1
 594 610 l 1
 524 610 l 1
 410 118 l 1
 412 118 l 1
 383 -6 l 2
 380 -21 365 -28 340 -28 c 0
 330 -28 324 -26 322 -23 c 0
 310 -4 289 5 262 5 c 0x70
 248 5 223 0 189 -8 c 0
 155 -16 130 -19 111 -19 c 0
 71 -18 42 -10 26 6 c 0
 10 22 -1 54 -10 101 c 1
 -7 116 -2 125 7 130 c 0
 11 133 15 134 22 134 c 0
 30 134 39 131 46 125 c 1
 50 91 59 68 68 56 c 0
 78 44 92 39 112 39 c 0xb0
 125 39 149 42 183 49 c 0
 229 57 263 62 288 62 c 0x70
 305 62 320 60 330 57 c 1
EndSplineSet
Ligature2: "'vatu' Vattu Variants in Bengali lookup 7 subtable" u09ac u09b0_u09cd.blwf
EndChar

StartChar: u09ad_u09b0_u09cd.blwf.vatu
Encoding: 225 -1 213
Width: 558
GlyphClass: 3
Flags: HW
AnchorPoint: "Anchor-1" 536 28 basechar 0
LayerCount: 2
Fore
SplineSet
150 673 m 1
 716 673 l 1
 702 610 l 1
 135 610 l 1
 150 673 l 1
608 394 m 2
 529 51 l 2
 527 42 518 35 504 29 c 0
 497 26 490 25 483 25 c 0
 475 25 468 27 467 33 c 0
 456 70 438 96 412 111 c 0
 387 125 347 133 292 136 c 0
 236 139 197 143 175 148 c 0
 130 160 104 187 97 230 c 0
 92 261 98 305 112 362 c 1
 120 373 129 379 139 379 c 0
 149 379 159 374 167 364 c 1
 156 305 150 270 151 262 c 0
 152 224 184 202 246 195 c 0
 261 193 281 193 302 193 c 0
 349 192 381 190 400 187 c 0
 435 179 465 161 490 134 c 1
 547 380 l 2
 550 395 552 415 552 441 c 1
 484 370 420 334 361 334 c 0
 354 334 348 334 342 335 c 0
 308 347 289 369 285 402 c 0
 282 422 284 448 291 479 c 0
 294 490 297 502 301 517 c 1
 310 530 320 537 334 537 c 0
 348 537 354 530 354 517 c 1
 347 485 341 462 338 446 c 2
 337 428 l 1
 339 403 355 391 387 392 c 2
 390 392 l 1
 426 401 459 421 487 451 c 0
 525 490 551 514 565 522 c 1
 575 523 584 521 591 515 c 0
 595 512 598 509 601 504 c 0
 612 461 615 425 608 394 c 2
EndSplineSet
Ligature2: "'vatu' Vattu Variants in Bengali lookup 7 subtable" u09ad u09b0_u09cd.blwf
EndChar

StartChar: u09ae_u09b0_u09cd.blwf.vatu
Encoding: 226 -1 214
Width: 447
GlyphClass: 3
Flags: HW
AnchorPoint: "Anchor-1" 411 51 basechar 0
LayerCount: 2
Fore
SplineSet
448 427 m 1x1f
 450 436 l 1x1f
 468 436 l 1
 484 447 496 466 502 492 c 0x1e80
 508 519 505 547 493 574 c 1
 482 591 472 601 464 606 c 0
 458 609 446 610 427 610 c 2
 284 610 l 1
 292 591 294 569 288 544 c 0
 287 538 284 533 282 528 c 1
 298 520 318 501 343 470 c 0
 366 443 386 428 402 425 c 0
 408 424 414 423 421 423 c 0
 431 423 440 424 448 427 c 1x1f
192 438 m 0
 188 421 191 409 200 400 c 0
 204 396 208 393 214 393 c 1
 218 381 220 371 218 363 c 0
 215 349 202 342 182 342 c 1
 145 365 133 399 144 446 c 0
 155 492 183 521 229 534 c 1
 233 541 237 549 239 557 c 0
 243 575 239 593 228 610 c 1
 138 610 l 1
 153 673 l 1
 604 673 l 1
 589 610 l 1
 527 610 l 1
 544 597 554 574 557 540 c 0
 559 520 558 500 553 479 c 0x2e80
 543 437 523 405 495 384 c 1
 425 80 l 2
 422 65 407 58 382 58 c 0
 373 58 367 59 364 63 c 0
 352 82 333 91 306 91 c 0x6f
 292 91 265 86 231 78 c 0
 197 70 171 67 152 67 c 0
 112 68 86 76 70 92 c 0
 54 108 42 140 33 187 c 1
 36 202 40 211 49 216 c 0
 53 219 59 220 66 220 c 0
 74 220 81 217 88 211 c 1
 92 177 100 154 110 143 c 0
 120 131 136 125 156 125 c 0x8f
 169 125 191 128 225 135 c 0
 272 144 307 148 332 148 c 0x4f
 353 148 369 146 381 140 c 1
 431 357 l 1
 424 356 420 356 413 356 c 0
 386 356 361 367 337 389 c 0
 330 395 312 415 285 450 c 0
 268 472 253 483 241 483 c 0
 228 483 215 476 203 461 c 0
 197 453 194 445 192 438 c 0
EndSplineSet
Ligature2: "'vatu' Vattu Variants in Bengali lookup 7 subtable" u09ae u09b0_u09cd.blwf
EndChar

StartChar: u09af_u09b0_u09cd.blwf.vatu
Encoding: 227 -1 215
Width: 465
GlyphClass: 3
Flags: HW
AnchorPoint: "Anchor-1" 408 -23 basechar 0
LayerCount: 2
Fore
SplineSet
235 610 m 1x18
 319 452 l 1
 321 440 321 431 316 423 c 0
 314 419 311 415 307 412 c 2
 159 302 l 1
 363 115 l 1
 477 610 l 1
 235 610 l 1x18
318 68 m 1
 98 278 l 2
 93 284 90 291 92 299 c 0
 94 306 98 314 104 321 c 1
 257 439 l 1
 163 610 l 1
 139 610 l 1
 154 673 l 1
 621 673 l 1
 606 610 l 1
 535 610 l 1
 423 125 l 1
 424 125 l 1
 395 1 l 2
 392 -14 377 -21 352 -21 c 0
 342 -21 335 -19 333 -16 c 0
 321 3 302 12 275 12 c 0
 261 12 235 8 200 0 c 0xb8
 166 -8 141 -12 122 -12 c 0
 82 -11 55 -2 39 14 c 0
 23 30 11 61 2 108 c 1
 5 123 9 132 18 137 c 0
 22 140 27 141 34 141 c 0
 42 141 51 138 58 132 c 1
 62 98 70 76 79 64 c 0
 89 52 105 46 125 46 c 0x58
 138 46 161 49 195 56 c 0
 241 64 276 69 301 69 c 0x38
 308 69 312 68 318 68 c 1
EndSplineSet
Ligature2: "'vatu' Vattu Variants in Bengali lookup 7 subtable" u09af u09b0_u09cd.blwf
EndChar

StartChar: u09b0_u09b0_u09cd.blwf.vatu
Encoding: 228 -1 216
Width: 453
GlyphClass: 3
Flags: HW
AnchorPoint: "Anchor-1" 387 -76 basechar 0
AnchorPoint: "Anchor-1" 390 -81 basechar 0
LayerCount: 2
Fore
SplineSet
354 128 m 1x3e
 440 500 l 1
 176 347 l 1
 354 128 l 1x3e
164 122 m 1
 236 122 l 1
 219 49 l 1
 147 49 l 1
 164 122 l 1
335 50 m 1
 112 332 l 2
 108 337 106 343 108 352 c 0
 111 363 116 371 123 375 c 2
 454 564 l 1
 465 610 l 1
 135 610 l 1
 149 673 l 1
 607 673 l 1
 592 610 l 1
 523 610 l 1
 396 62 l 1
 395 59 l 1
 368 -54 l 2
 365 -69 351 -77 326 -77 c 0
 317 -77 310 -75 307 -70 c 0
 290 -43 265 -30 232 -30 c 0x7e
 212 -30 182 -36 144 -47 c 0
 111 -57 80 -62 50 -62 c 0
 -40 -62 -88 -17 -94 73 c 1
 -89 91 -75 100 -54 100 c 0
 -48 100 -43 99 -38 97 c 1
 -33 29 -1 -6 59 -6 c 0xbe
 78 -6 98 -3 123 4 c 0
 180 20 223 28 251 28 c 0x7e
 277 28 301 22 325 9 c 1
 335 50 l 1
EndSplineSet
Ligature2: "'vatu' Vattu Variants in Bengali lookup 7 subtable" u09b0 u09b0_u09cd.blwf
EndChar

StartChar: u09b2_u09b0_u09cd.blwf.vatu
Encoding: 229 -1 217
Width: 513
GlyphClass: 2
Flags: HW
AnchorPoint: "Anchor-1" 462 32 basechar 0
LayerCount: 2
Fore
SplineSet
130 454 m 0x7c
 138 488 158 519 187 546 c 0
 219 574 250 588 281 589 c 0
 315 589 343 573 366 542 c 1
 395 571 423 585 448 585 c 0
 471 585 494 572 517 547 c 1
 532 610 l 1
 134 610 l 1
 148 673 l 1
 675 673 l 1
 661 610 l 1
 589 610 l 1
 462 59 l 2
 459 44 444 37 419 37 c 0
 410 37 403 38 400 42 c 0
 388 61 370 70 343 70 c 0x7c
 329 70 302 66 268 58 c 0
 234 50 208 46 189 46 c 0
 149 47 123 56 107 72 c 0
 91 88 79 119 70 166 c 1
 73 181 77 190 86 195 c 0
 90 198 96 199 103 199 c 0
 111 199 118 196 125 190 c 1
 129 156 136 133 146 122 c 0
 156 110 173 104 193 104 c 0xbc
 206 104 228 107 262 114 c 0
 309 123 344 127 369 127 c 0
 390 127 406 125 418 119 c 1
 487 415 l 2
 498 464 491 499 466 520 c 0
 456 527 446 531 437 531 c 0
 420 531 399 514 372 480 c 0
 364 471 357 467 349 467 c 0
 341 467 333 471 329 480 c 1
 324 516 304 534 268 534 c 0
 242 534 218 523 201 500 c 0
 193 489 187 476 183 461 c 0
 171 423 182 398 215 387 c 0
 229 382 245 380 265 381 c 1
 272 376 276 368 273 355 c 0
 270 340 263 331 254 329 c 0
 246 327 238 326 231 326 c 0
 194 326 165 339 146 365 c 0
 127 389 122 419 130 454 c 0x7c
EndSplineSet
LCarets2: 1 0
Ligature2: "'vatu' Vattu Variants in Bengali lookup 7 subtable" u09b2 u09b0_u09cd.blwf
EndChar

StartChar: u09b6_u09b0_u09cd.blwf.vatu
Encoding: 230 -1 218
Width: 610
GlyphClass: 3
Flags: HW
AnchorPoint: "Anchor-1" 539 32 basechar 0
LayerCount: 2
Fore
SplineSet
467 612 m 0x7e
 436 612 409 602 385 581 c 2
 372 569 l 1
 357 553 348 534 344 513 c 0
 335 468 346 436 376 419 c 0
 393 409 423 402 460 398 c 1
 464 395 463 390 461 381 c 0
 457 363 450 350 440 342 c 1
 393 347 359 355 340 367 c 0
 318 381 303 407 292 445 c 1
 260 401 229 372 197 357 c 0
 175 348 141 342 94 339 c 1
 88 345 86 354 89 366 c 0
 92 377 97 387 105 395 c 1
 150 398 189 412 222 439 c 0
 242 455 257 473 266 494 c 0
 277 519 275 544 259 569 c 0
 247 588 232 600 214 605 c 0
 201 608 177 610 141 610 c 0
 132 610 129 621 134 643 c 0
 139 663 147 673 156 673 c 0
 205 673 237 670 252 664 c 0
 283 653 307 624 321 577 c 1
 348 610 374 633 397 646 c 0
 418 659 445 668 481 673 c 1
 510 674 539 668 566 653 c 0
 589 640 603 626 606 609 c 1
 634 733 l 1
 687 729 l 1
 674 678 l 1
 763 678 l 1
 748 610 l 1
 664 610 l 1
 537 61 l 2
 535 51 526 43 512 37 c 0
 505 34 499 33 492 33 c 0
 485 33 483 35 480 38 c 0
 463 65 432 78 387 78 c 0x7e
 375 78 341 73 283 61 c 0
 247 54 223 50 211 50 c 0
 146 50 99 71 68 114 c 0
 51 139 41 168 39 203 c 1
 43 221 56 230 77 230 c 0
 83 230 88 229 92 227 c 1
 95 177 115 142 149 122 c 0
 168 111 192 105 218 105 c 0xbe
 235 105 250 107 267 112 c 0
 325 128 372 136 407 136 c 0
 440 136 468 130 492 117 c 1
 584 513 l 2
 590 539 580 562 556 582 c 0
 532 602 501 612 467 612 c 0x7e
EndSplineSet
LCarets2: 1 0
Ligature2: "'vatu' Vattu Variants in Bengali lookup 7 subtable" u09b6 u09b0_u09cd.blwf
EndChar

StartChar: u09b7_u09b0_u09cd.blwf.vatu
Encoding: 231 -1 219
Width: 451
GlyphClass: 3
Flags: HW
AnchorPoint: "Anchor-1" 407 -50 basechar 0
LayerCount: 2
Fore
SplineSet
424 392 m 1x30
 474 610 l 1
 232 610 l 1
 316 453 l 1
 424 392 l 1x30
360 115 m 1
 409 329 l 1
 284 397 l 1
 156 302 l 1
 360 115 l 1
405 60 m 2
 406 60 405 56 402 49 c 0
 388 2 383 -27 384 -39 c 0
 383 -45 378 -47 370 -47 c 0
 359 -47 348 -46 339 -40 c 1
 324 -14 304 -1 284 -1 c 0x70
 271 -1 239 -10 186 -28 c 1
 151 -44 121 -52 98 -52 c 0
 49 -52 14 -15 -5 60 c 0
 -6 65 -6 69 -5 74 c 0
 -2 88 7 95 23 95 c 0
 29 95 35 94 41 91 c 1
 55 38 77 11 109 11 c 0xb0
 121 11 141 15 165 23 c 2
 239 47 l 2
 264 54 284 58 301 58 c 0x70
 313 58 325 55 335 50 c 1
 95 278 l 2
 90 284 87 291 89 299 c 0
 91 306 96 314 102 321 c 1
 255 439 l 1
 161 610 l 1
 137 610 l 1
 151 673 l 1
 618 673 l 1
 604 610 l 1
 532 610 l 1
 405 60 l 2
EndSplineSet
Ligature2: "'vatu' Vattu Variants in Bengali lookup 7 subtable" u09b7 u09b0_u09cd.blwf
EndChar

